<svg width="220" height="241" viewBox="0 0 220 241" fill="none" xmlns="http://www.w3.org/2000/svg">
<path d="M160.241 67.1843L154.18 70.6836L157.68 76.7465L163.741 73.2472L160.241 67.1843Z" fill="#60C660"/>
<path d="M156.743 61.1208L150.682 64.6201L154.182 70.683L160.243 67.1837L156.743 61.1208Z" fill="#60C660"/>
<path d="M153.243 55.0603L147.182 58.5596L150.681 64.6205L156.742 61.1212L153.243 55.0603Z" fill="#60C660"/>
<path d="M149.743 48.9998L143.682 52.499L147.181 58.5599L153.242 55.0607L149.743 48.9998Z" fill="#60C660"/>
<path d="M185.682 125.244L179.619 128.744L183.119 134.805L189.181 131.305L185.682 125.244Z" fill="#60C660"/>
<path d="M182.18 119.18L176.117 122.681L179.618 128.744L185.681 125.243L182.18 119.18Z" fill="#60C660"/>
<path d="M178.682 113.119L172.619 116.619L176.119 122.68L182.181 119.18L178.682 113.119Z" fill="#60C660"/>
<path d="M175.18 107.056L169.117 110.557L172.618 116.62L178.681 113.119L175.18 107.056Z" fill="#60C660"/>
<path d="M171.68 100.994L165.617 104.494L169.118 110.557L175.181 107.057L171.68 100.994Z" fill="#60C660"/>
<path d="M168.182 94.9322L162.119 98.4326L165.619 104.494L171.681 100.993L168.182 94.9322Z" fill="#60C660"/>
<path d="M164.68 88.8697L158.617 92.3701L162.118 98.433L168.181 94.9326L164.68 88.8697Z" fill="#60C660"/>
<path d="M161.18 82.8072L155.117 86.3076L158.618 92.3705L164.681 88.8701L161.18 82.8072Z" fill="#60C660"/>
<path d="M157.682 76.7457L151.619 80.2461L155.119 86.307L161.181 82.8066L157.682 76.7457Z" fill="#60C660"/>
<path d="M154.18 70.6832L148.117 74.1836L151.618 80.2465L157.681 76.7461L154.18 70.6832Z" fill="#36B236"/>
<path d="M150.68 64.6207L144.617 68.1211L148.118 74.184L154.181 70.6836L150.68 64.6207Z" fill="#36B236"/>
<path d="M147.182 58.5592L141.119 62.0596L144.619 68.1205L150.681 64.6201L147.182 58.5592Z" fill="#36B236"/>
<path d="M143.682 52.4986L137.619 55.999L141.119 62.0599L147.181 58.5595L143.682 52.4986Z" fill="#36B236"/>
<path d="M140.182 46.4351L134.119 49.9355L137.62 55.9984L143.683 52.498L140.182 46.4351Z" fill="#60C660"/>
<path d="M136.682 40.3726L130.619 43.873L134.12 49.9359L140.183 46.4355L136.682 40.3726Z" fill="#60C660"/>
<path d="M186.618 140.868L180.555 144.368L184.055 150.431L190.118 146.931L186.618 140.868Z" fill="#60C660"/>
<path d="M183.118 134.804L177.055 138.305L180.555 144.368L186.618 140.867L183.118 134.804Z" fill="#60C660"/>
<path d="M179.618 128.744L173.555 132.244L177.054 138.305L183.117 134.805L179.618 128.744Z" fill="#36B236"/>
<path d="M176.118 122.68L170.055 126.181L173.555 132.244L179.618 128.743L176.118 122.68Z" fill="#36B236"/>
<path d="M172.618 116.62L166.555 120.12L170.054 126.181L176.117 122.681L172.618 116.62Z" fill="#36B236"/>
<path d="M169.118 110.557L163.055 114.058L166.555 120.12L172.618 116.62L169.118 110.557Z" fill="#36B236"/>
<path d="M165.618 104.494L159.555 107.994L163.055 114.057L169.118 110.557L165.618 104.494Z" fill="#36B236"/>
<path d="M162.118 98.4332L156.055 101.934L159.554 107.995L165.617 104.494L162.118 98.4332Z" fill="#36B236"/>
<path d="M158.618 92.3697L152.555 95.8701L156.055 101.933L162.118 98.4326L158.618 92.3697Z" fill="#36B236"/>
<path d="M155.118 86.3072L149.055 89.8076L152.555 95.8705L158.618 92.3701L155.118 86.3072Z" fill="#36B236"/>
<path d="M151.618 80.2457L145.555 83.7461L149.054 89.807L155.117 86.3066L151.618 80.2457Z" fill="#36B236"/>
<path d="M148.118 74.1832L142.055 77.6836L145.555 83.7465L151.618 80.2461L148.118 74.1832Z" fill="#36B236"/>
<path d="M144.618 68.1207L138.555 71.6211L142.055 77.684L148.118 74.1836L144.618 68.1207Z" fill="#36B236"/>
<path d="M141.12 62.0602L135.057 65.5605L138.556 71.6215L144.619 68.1211L141.12 62.0602Z" fill="#36B236"/>
<path d="M137.62 55.9986L131.557 59.499L135.056 65.5599L141.119 62.0595L137.62 55.9986Z" fill="#36B236"/>
<path d="M134.12 49.9361L128.057 53.4365L131.557 59.4994L137.62 55.999L134.12 49.9361Z" fill="#36B236"/>
<path d="M130.618 43.8727L124.555 47.373L128.055 53.4359L134.118 49.9355L130.618 43.8727Z" fill="#36B236"/>
<path d="M127.118 37.8121L121.055 41.3125L124.554 47.3734L130.617 43.873L127.118 37.8121Z" fill="#60C660"/>
<path d="M123.618 31.7496L117.555 35.25L121.055 41.3129L127.118 37.8125L123.618 31.7496Z" fill="#60C660"/>
<path d="M120.12 25.6861L114.057 29.1865L117.557 35.2494L123.62 31.749L120.12 25.6861Z" fill="#60C660"/>
<path d="M116.62 19.6256L110.557 23.126L114.056 29.1869L120.119 25.6865L116.62 19.6256Z" fill="#60C660"/>
<path d="M113.12 13.5621L107.057 17.0625L110.557 23.1254L116.62 19.625L113.12 13.5621Z" fill="#60C660"/>
<path d="M184.057 150.43L177.996 153.93L181.495 159.991L187.556 156.491L184.057 150.43Z" fill="#60C660"/>
<path d="M180.555 144.368L174.494 147.867L177.995 153.93L184.056 150.431L180.555 144.368Z" fill="#36B236"/>
<path d="M177.055 138.305L170.994 141.805L174.495 147.868L180.556 144.368L177.055 138.305Z" fill="#36B236"/>
<path d="M173.557 132.244L167.496 135.743L170.995 141.804L177.056 138.305L173.557 132.244Z" fill="#36B236"/>
<path d="M170.055 126.18L163.994 129.68L167.495 135.743L173.556 132.243L170.055 126.18Z" fill="#349134"/>
<path d="M166.557 120.12L160.496 123.619L163.995 129.68L170.056 126.181L166.557 120.12Z" fill="#349134"/>
<path d="M163.055 114.057L156.994 117.557L160.495 123.62L166.556 120.12L163.055 114.057Z" fill="#349134"/>
<path d="M159.555 107.994L153.494 111.493L156.995 117.556L163.056 114.057L159.555 107.994Z" fill="#36B236"/>
<path d="M156.055 101.933L149.994 105.433L153.494 111.494L159.554 107.994L156.055 101.933Z" fill="#36B236"/>
<path d="M152.555 95.8708L146.494 99.3701L149.995 105.433L156.056 101.934L152.555 95.8708Z" fill="#36B236"/>
<path d="M149.055 89.8074L142.994 93.3066L146.495 99.3695L152.556 95.8702L149.055 89.8074Z" fill="#349134"/>
<path d="M145.555 83.7458L139.494 87.2451L142.994 93.306L149.054 89.8068L145.555 83.7458Z" fill="#349134"/>
<path d="M142.055 77.6843L135.994 81.1836L139.495 87.2465L145.556 83.7472L142.055 77.6843Z" fill="#349134"/>
<path d="M138.555 71.6218L132.494 75.1211L135.995 81.184L142.056 77.6847L138.555 71.6218Z" fill="#349134"/>
<path d="M135.057 65.5603L128.996 69.0596L132.495 75.1205L138.556 71.6212L135.057 65.5603Z" fill="#349134"/>
<path d="M131.555 59.4988L125.494 62.998L128.994 69.059L135.054 65.5597L131.555 59.4988Z" fill="#349134"/>
<path d="M128.055 53.4363L121.994 56.9355L125.495 62.9984L131.556 59.4992L128.055 53.4363Z" fill="#36B236"/>
<path d="M124.555 47.3738L118.494 50.873L121.995 56.9359L128.056 53.4367L124.555 47.3738Z" fill="#36B236"/>
<path d="M121.057 41.3123L114.996 44.8115L118.495 50.8724L124.556 47.3732L121.057 41.3123Z" fill="#36B236"/>
<path d="M117.555 35.2498L111.494 38.749L114.995 44.8119L121.056 41.3126L117.555 35.2498Z" fill="#36B236"/>
<path d="M114.055 29.1863L107.994 32.6855L111.495 38.7484L117.556 35.2492L114.055 29.1863Z" fill="#36B236"/>
<path d="M110.557 23.1257L104.496 26.625L107.995 32.6859L114.056 29.1866L110.557 23.1257Z" fill="#36B236"/>
<path d="M107.057 17.0623L100.996 20.5615L104.497 26.6244L110.558 23.1251L107.057 17.0623Z" fill="#36B236"/>
<path d="M103.555 11.0007L97.4943 14.5L100.995 20.5629L107.056 17.0636L103.555 11.0007Z" fill="#60C660"/>
<path d="M181.495 159.991L175.432 163.491L178.932 169.554L184.995 166.054L181.495 159.991Z" fill="#60C660"/>
<path d="M177.995 153.93L171.932 157.431L175.431 163.492L181.494 159.991L177.995 153.93Z" fill="#36B236"/>
<path d="M174.495 147.867L168.432 151.367L171.932 157.43L177.995 153.93L174.495 147.867Z" fill="#36B236"/>
<path d="M170.995 141.804L164.932 145.305L168.432 151.368L174.495 147.867L170.995 141.804Z" fill="#349134"/>
<path d="M167.495 135.744L161.432 139.244L164.931 145.305L170.994 141.805L167.495 135.744Z" fill="#349134"/>
<path d="M163.993 129.68L157.93 133.181L161.43 139.244L167.493 135.743L163.993 129.68Z" fill="#349134"/>
<path d="M160.495 123.619L154.432 127.119L157.931 133.18L163.994 129.68L160.495 123.619Z" fill="#349134"/>
<path d="M156.995 117.556L150.932 121.057L154.432 127.12L160.495 123.619L156.995 117.556Z" fill="#349134"/>
<path d="M153.495 111.494L147.432 114.994L150.932 121.057L156.995 117.557L153.495 111.494Z" fill="#349134"/>
<path d="M149.995 105.432L143.932 108.933L147.431 114.994L153.494 111.493L149.995 105.432Z" fill="#349134"/>
<path d="M146.495 99.3697L140.432 102.87L143.932 108.933L149.995 105.433L146.495 99.3697Z" fill="#349134"/>
<path d="M142.995 93.3072L136.932 96.8076L140.432 102.87L146.495 99.3701L142.995 93.3072Z" fill="#349134"/>
<path d="M139.495 87.2457L133.432 90.7461L136.931 96.807L142.994 93.3066L139.495 87.2457Z" fill="#349134"/>
<path d="M135.995 81.1832L129.932 84.6836L133.432 90.7465L139.495 87.2461L135.995 81.1832Z" fill="#349134"/>
<path d="M132.495 75.1207L126.432 78.6211L129.932 84.684L135.995 81.1836L132.495 75.1207Z" fill="#349134"/>
<path d="M128.995 69.0592L122.932 72.5596L126.431 78.6205L132.494 75.1201L128.995 69.0592Z" fill="#349134"/>
<path d="M125.495 62.9986L119.432 66.499L122.931 72.5599L128.994 69.0595L125.495 62.9986Z" fill="#349134"/>
<path d="M121.995 56.9351L115.932 60.4355L119.432 66.4984L125.495 62.998L121.995 56.9351Z" fill="#36B236"/>
<path d="M118.495 50.8726L112.432 54.373L115.932 60.4359L121.995 56.9355L118.495 50.8726Z" fill="#36B236"/>
<path d="M114.995 44.8111L108.932 48.3115L112.431 54.3724L118.494 50.872L114.995 44.8111Z" fill="#36B236"/>
<path d="M111.495 38.7496L105.432 42.25L108.932 48.3129L114.995 44.8125L111.495 38.7496Z" fill="#36B236"/>
<path d="M107.995 32.6861L101.932 36.1865L105.432 42.2494L111.495 38.749L107.995 32.6861Z" fill="#36B236"/>
<path d="M104.495 26.6256L98.4318 30.126L101.931 36.1869L107.994 32.6865L104.495 26.6256Z" fill="#36B236"/>
<path d="M100.995 20.5621L94.9318 24.0625L98.4322 30.1254L104.495 26.625L100.995 20.5621Z" fill="#36B236"/>
<path d="M97.4946 14.4986L91.4318 17.999L94.9322 24.0619L100.995 20.5615L97.4946 14.4986Z" fill="#225622"/>
<path d="M178.93 169.554L172.867 173.055L176.368 179.118L182.431 175.617L178.93 169.554Z" fill="#60C660"/>
<path d="M175.43 163.492L169.367 166.992L172.868 173.055L178.931 169.555L175.43 163.492Z" fill="#36B236"/>
<path d="M171.932 157.43L165.869 160.931L169.369 166.992L175.431 163.491L171.932 157.43Z" fill="#36B236"/>
<path d="M168.432 151.368L162.369 154.868L165.87 160.931L171.933 157.431L168.432 151.368Z" fill="#349134"/>
<path d="M164.93 145.305L158.867 148.806L162.368 154.869L168.431 151.368L164.93 145.305Z" fill="#349134"/>
<path d="M161.432 139.244L155.369 142.744L158.869 148.805L164.931 145.305L161.432 139.244Z" fill="#349134"/>
<path d="M157.932 133.18L161.433 139.243L155.37 142.744L151.871 136.68L157.932 133.18Z" fill="#349134"/>
<path d="M154.432 127.12L148.371 130.619L151.87 136.68L157.931 133.181L154.432 127.12Z" fill="#349134"/>
<path d="M150.93 121.056L144.869 124.556L148.37 130.619L154.431 127.119L150.93 121.056Z" fill="#349134"/>
<path d="M147.432 114.994L141.371 118.493L144.872 124.556L150.933 121.057L147.432 114.994Z" fill="#225622"/>
<path d="M143.932 108.933L137.871 112.433L141.37 118.494L147.431 114.994L143.932 108.933Z" fill="#225622"/>
<path d="M140.432 102.87L134.371 106.369L137.872 112.432L143.933 108.933L140.432 102.87Z" fill="#225622"/>
<path d="M136.93 96.8074L130.869 100.307L134.37 106.37L140.431 102.87L136.93 96.8074Z" fill="#225622"/>
<path d="M133.43 90.7458L127.369 94.2451L130.869 100.306L136.929 96.8068L133.43 90.7458Z" fill="#225622"/>
<path d="M129.932 84.6833L123.871 88.1826L127.372 94.2455L133.433 90.7462L129.932 84.6833Z" fill="#225622"/>
<path d="M126.43 78.6208L120.369 82.1201L123.87 88.183L129.931 84.6837L126.43 78.6208Z" fill="#349134"/>
<path d="M122.932 72.5593L116.871 76.0586L120.37 82.1195L126.431 78.6202L122.932 72.5593Z" fill="#349134"/>
<path d="M119.432 66.4988L113.371 69.998L116.87 76.059L122.931 72.5597L119.432 66.4988Z" fill="#349134"/>
<path d="M115.932 60.4363L109.871 63.9355L113.372 69.9984L119.433 66.4992L115.932 60.4363Z" fill="#349134"/>
<path d="M112.432 54.3738L106.371 57.873L109.872 63.9359L115.933 60.4367L112.432 54.3738Z" fill="#349134"/>
<path d="M108.932 48.3123L102.871 51.8115L106.37 57.8724L112.431 54.3732L108.932 48.3123Z" fill="#349134"/>
<path d="M105.432 42.2498L99.3712 45.749L102.872 51.8119L108.933 48.3126L105.432 42.2498Z" fill="#349134"/>
<path d="M101.932 36.1873L95.8712 39.6865L99.3716 45.7494L105.433 42.2501L101.932 36.1873Z" fill="#349134"/>
<path d="M98.4321 30.1257L92.3712 33.625L95.8705 39.6859L101.931 36.1866L98.4321 30.1257Z" fill="#36B236"/>
<path d="M94.9321 24.0623L88.8712 27.5615L92.3716 33.6244L98.4325 30.1251L94.9321 24.0623Z" fill="#225622"/>
<path d="M148.37 130.619L142.307 134.119L145.806 140.18L151.869 136.68L148.37 130.619Z" fill="#225622"/>
<path d="M144.872 124.556L138.809 128.057L142.309 134.12L148.372 130.619L144.872 124.556Z" fill="#225622"/>
<path d="M141.37 118.493L135.307 121.993L138.807 128.056L144.87 124.556L141.37 118.493Z" fill="#EDCD15"/>
<path d="M137.872 112.432L131.809 115.933L135.308 121.994L141.371 118.493L137.872 112.432Z" fill="#EDCD15"/>
<path d="M134.372 106.37L128.309 109.87L131.809 115.933L137.872 112.433L134.372 106.37Z" fill="#E5EF14"/>
<path d="M130.872 100.306L124.809 103.807L128.309 109.87L134.372 106.369L130.872 100.306Z" fill="#EA9E18"/>
<path d="M127.372 94.2457L121.309 97.7461L124.808 103.807L130.871 100.307L127.372 94.2457Z" fill="#EDCD15"/>
<path d="M123.872 88.1832L117.809 91.6836L121.309 97.7465L127.372 94.2461L123.872 88.1832Z" fill="#EDCD15"/>
<path d="M120.37 82.1197L114.307 85.6201L117.807 91.683L123.87 88.1826L120.37 82.1197Z" fill="#225622"/>
<path d="M116.87 76.0592L110.807 79.5596L114.306 85.6205L120.369 82.1201L116.87 76.0592Z" fill="#225622"/>
<path d="M113.372 69.9986L107.309 73.499L110.808 79.5599L116.871 76.0595L113.372 69.9986Z" fill="#225622"/>
<path d="M109.871 63.9352L113.371 69.998L107.308 73.4984L103.807 67.4336L109.871 63.9352Z" fill="#225622"/>
<path d="M106.372 57.8717L109.872 63.9345L103.808 67.433L100.309 61.3721L106.372 57.8717Z" fill="#225622"/>
<path d="M102.872 51.8111L96.8087 55.3115L100.308 61.3724L106.371 57.872L102.872 51.8111Z" fill="#225622"/>
<path d="M99.3716 45.7486L93.3087 49.249L96.8091 55.3119L102.872 51.8115L99.3716 45.7486Z" fill="#225622"/>
<path d="M95.8716 39.6861L89.8087 43.1865L93.3091 49.2494L99.372 45.749L95.8716 39.6861Z" fill="#225622"/>
<path d="M92.3716 33.6246L86.3087 37.125L89.808 43.1859L95.8709 39.6855L92.3716 33.6246Z" fill="#225622"/>
<path d="M88.8696 27.5621L82.8068 31.0625L86.3072 37.1254L92.3701 33.625L88.8696 27.5621Z" fill="#E5EF14"/>
<path d="M151.87 136.68L155.368 142.744L149.307 146.244L145.807 140.181L151.87 136.68Z" fill="#225622"/>
<path d="M176.368 179.117L170.307 182.616L173.806 188.677L179.867 185.178L176.368 179.117Z" fill="#225622"/>
<path d="M172.87 173.054L166.809 176.554L170.309 182.617L176.37 179.117L172.87 173.054Z" fill="#225622"/>
<path d="M169.368 166.992L163.307 170.491L166.807 176.554L172.868 173.055L169.368 166.992Z" fill="#225622"/>
<path d="M165.87 160.93L159.809 164.43L163.308 170.491L169.369 166.991L165.87 160.93Z" fill="#225622"/>
<path d="M162.37 154.868L156.309 158.367L159.809 164.43L165.87 160.931L162.37 154.868Z" fill="#349134"/>
<path d="M158.868 148.805L152.807 152.305L156.307 158.368L162.368 154.868L158.868 148.805Z" fill="#225622"/>
<path d="M155.37 142.744L149.309 146.243L152.808 152.304L158.869 148.805L155.37 142.744Z" fill="#225622"/>
<path d="M173.807 188.677L167.744 192.178L171.245 198.241L177.308 194.74L173.807 188.677Z" fill="#225622"/>
<path d="M170.307 182.617L164.244 186.117L167.744 192.178L173.806 188.678L170.307 182.617Z" fill="#60C660"/>
<path d="M166.807 176.554L160.744 180.055L164.245 186.118L170.308 182.617L166.807 176.554Z" fill="#60C660"/>
<path d="M163.307 170.491L157.244 173.991L160.745 180.054L166.808 176.554L163.307 170.491Z" fill="#60C660"/>
<path d="M159.807 164.43L153.744 167.931L157.244 173.992L163.306 170.491L159.807 164.43Z" fill="#60C660"/>
<path d="M156.307 158.367L150.244 161.867L153.745 167.93L159.808 164.43L156.307 158.367Z" fill="#225622"/>
<path d="M152.807 152.304L146.744 155.805L150.245 161.868L156.308 158.367L152.807 152.304Z" fill="#E5EF14"/>
<path d="M149.307 146.244L143.244 149.744L146.744 155.805L152.806 152.305L149.307 146.244Z" fill="#E5EF14"/>
<path d="M145.807 140.18L139.744 143.681L143.245 149.744L149.308 146.243L145.807 140.18Z" fill="#EDCD15"/>
<path d="M142.309 134.12L136.246 137.62L139.745 143.681L145.808 140.181L142.309 134.12Z" fill="#EDCD15"/>
<path d="M138.807 128.056L132.744 131.557L136.245 137.62L142.308 134.119L138.807 128.056Z" fill="#EDCD15"/>
<path d="M135.307 121.994L129.244 125.494L132.745 131.557L138.808 128.057L135.307 121.994Z" fill="#EA9E18"/>
<path d="M131.809 115.933L125.746 119.434L129.245 125.495L135.308 121.994L131.809 115.933Z" fill="#EA9E18"/>
<path d="M128.307 109.87L122.244 113.37L125.745 119.433L131.808 115.933L128.307 109.87Z" fill="#EA9E18"/>
<path d="M124.807 103.807L118.744 107.308L122.245 113.37L128.308 109.87L124.807 103.807Z" fill="#E5EF14"/>
<path d="M121.307 97.7457L115.244 101.246L118.744 107.307L124.806 103.807L121.307 97.7457Z" fill="#EA9E18"/>
<path d="M117.807 91.6832L111.744 95.1836L115.245 101.246L121.308 97.7461L117.807 91.6832Z" fill="#EA9E18"/>
<path d="M114.307 85.6207L108.244 89.1211L111.745 95.184L117.808 91.6836L114.307 85.6207Z" fill="#EA9E18"/>
<path d="M110.809 79.5592L104.746 83.0596L108.245 89.1205L114.308 85.6201L110.809 79.5592Z" fill="#E5EF14"/>
<path d="M107.309 73.4986L101.246 76.999L104.745 83.0599L110.808 79.5595L107.309 73.4986Z" fill="#EA9E18"/>
<path d="M103.807 67.4342L97.7443 70.9346L101.246 76.9994L107.309 73.499L103.807 67.4342Z" fill="#EA9E18"/>
<path d="M100.307 61.3726L94.2443 64.873L97.7435 70.934L103.806 67.4336L100.307 61.3726Z" fill="#EA9E18"/>
<path d="M96.8091 55.3121L90.7462 58.8125L94.2455 64.8734L100.308 61.373L96.8091 55.3121Z" fill="#E5EF14"/>
<path d="M93.3071 49.2486L87.2443 52.749L90.7447 58.8119L96.8075 55.3115L93.3071 49.2486Z" fill="#EA9E18"/>
<path d="M89.8071 43.1861L83.7443 46.6865L87.2447 52.7494L93.3076 49.249L89.8071 43.1861Z" fill="#EA9E18"/>
<path d="M86.3091 37.1256L80.2462 40.626L83.7455 46.6869L89.8084 43.1865L86.3091 37.1256Z" fill="#EA9E18"/>
<path d="M82.8071 31.0621L76.7443 34.5625L80.2447 40.6254L86.3076 37.125L82.8071 31.0621Z" fill="#EA9E18"/>
<path d="M164.245 186.117L158.184 189.616L161.683 195.677L167.744 192.178L164.245 186.117Z" fill="#349134"/>
<path d="M160.745 180.054L154.684 183.554L158.184 189.617L164.245 186.117L160.745 180.054Z" fill="#349134"/>
<path d="M157.245 173.991L151.184 177.49L154.684 183.553L160.745 180.054L157.245 173.991Z" fill="#349134"/>
<path d="M153.747 167.93L147.686 171.43L151.185 177.491L157.246 173.991L153.747 167.93Z" fill="#349134"/>
<path d="M150.245 161.868L144.184 165.367L147.684 171.43L153.745 167.931L150.245 161.868Z" fill="#60C660"/>
<path d="M146.745 155.804L140.684 159.304L144.184 165.367L150.245 161.867L146.745 155.804Z" fill="#225622"/>
<path d="M143.245 149.744L137.184 153.243L140.683 159.304L146.744 155.805L143.245 149.744Z" fill="#225622"/>
<path d="M139.745 143.68L133.684 147.18L137.184 153.243L143.245 149.743L139.745 143.68Z" fill="#EDCD15"/>
<path d="M136.247 137.62L130.186 141.119L133.685 147.18L139.746 143.681L136.247 137.62Z" fill="#EA9E18"/>
<path d="M132.745 131.557L126.684 135.057L130.184 141.12L136.245 137.62L132.745 131.557Z" fill="#EA9E18"/>
<path d="M129.245 125.494L123.184 128.993L126.684 135.056L132.745 131.557L129.245 125.494Z" fill="#EDCD15"/>
<path d="M125.747 119.433L119.686 122.933L123.185 128.994L129.246 125.494L125.747 119.433Z" fill="#EDCD15"/>
<path d="M122.245 113.37L116.184 116.869L119.684 122.932L125.745 119.433L122.245 113.37Z" fill="#E5EF14"/>
<path d="M118.745 107.307L112.684 110.807L116.184 116.87L122.245 113.37L118.745 107.307Z" fill="#EA9E18"/>
<path d="M115.245 101.246L109.184 104.745L112.683 110.806L118.744 107.307L115.245 101.246Z" fill="#EDCD15"/>
<path d="M111.745 95.1833L105.684 98.6826L109.184 104.745L115.245 101.246L111.745 95.1833Z" fill="#EDCD15"/>
<path d="M108.245 89.1208L102.184 92.6201L105.684 98.683L111.745 95.1837L108.245 89.1208Z" fill="#E5EF14"/>
<path d="M104.747 83.0593L98.6857 86.5586L102.185 92.6195L108.246 89.1202L104.747 83.0593Z" fill="#EA9E18"/>
<path d="M101.247 76.9988L95.1857 80.498L98.6849 86.559L104.746 83.0597L101.247 76.9988Z" fill="#EDCD15"/>
<path d="M97.7446 70.9343L91.6837 74.4336L95.1853 80.4984L101.246 76.9992L97.7446 70.9343Z" fill="#EDCD15"/>
<path d="M94.2446 64.8738L88.1837 68.373L91.683 74.434L97.7439 70.9347L94.2446 64.8738Z" fill="#E5EF14"/>
<path d="M90.7466 58.8123L84.6857 62.3115L88.1849 68.3724L94.2459 64.8732L90.7466 58.8123Z" fill="#EA9E18"/>
<path d="M87.2446 52.7498L81.1837 56.249L84.6841 62.3119L90.745 58.8126L87.2446 52.7498Z" fill="#EDCD15"/>
<path d="M83.7446 46.6863L77.6837 50.1855L81.1841 56.2484L87.245 52.7492L83.7446 46.6863Z" fill="#EDCD15"/>
<path d="M80.2466 40.6257L74.1857 44.125L77.6849 50.1859L83.7459 46.6866L80.2466 40.6257Z" fill="#E5EF14"/>
<path d="M76.7466 34.5623L70.6857 38.0615L74.1861 44.1244L80.247 40.6251L76.7466 34.5623Z" fill="#E5EF14"/>
<path d="M158.184 189.617L152.121 193.117L155.62 199.178L161.683 195.678L158.184 189.617Z" fill="#36B236"/>
<path d="M154.682 183.553L148.619 187.054L152.12 193.117L158.183 189.616L154.682 183.553Z" fill="#36B236"/>
<path d="M151.184 177.491L145.121 180.991L148.622 187.054L154.684 183.554L151.184 177.491Z" fill="#349134"/>
<path d="M147.684 171.43L141.621 174.931L145.12 180.992L151.183 177.491L147.684 171.43Z" fill="#349134"/>
<path d="M144.184 165.367L138.121 168.867L141.622 174.93L147.685 171.43L144.184 165.367Z" fill="#349134"/>
<path d="M140.684 159.304L134.621 162.805L138.122 168.868L144.185 165.367L140.684 159.304Z" fill="#60C660"/>
<path d="M137.184 153.243L131.121 156.743L134.62 162.804L140.683 159.304L137.184 153.243Z" fill="#119907"/>
<path d="M133.684 147.18L127.621 150.681L131.122 156.744L137.185 153.243L133.684 147.18Z" fill="#225622"/>
<path d="M130.184 141.12L124.121 144.62L127.62 150.681L133.683 147.181L130.184 141.12Z" fill="#EDCD15"/>
<path d="M126.684 135.056L120.621 138.557L124.122 144.62L130.185 141.119L126.684 135.056Z" fill="#E5EF14"/>
<path d="M123.184 128.994L117.121 132.494L120.622 138.557L126.685 135.057L123.184 128.994Z" fill="#EA9E18"/>
<path d="M119.684 122.932L113.621 126.433L117.12 132.494L123.183 128.993L119.684 122.932Z" fill="#EDCD15"/>
<path d="M116.184 116.87L110.121 120.37L113.622 126.433L119.685 122.933L116.184 116.87Z" fill="#E5EF14"/>
<path d="M112.684 110.806L106.621 114.307L110.122 120.37L116.184 116.869L112.684 110.806Z" fill="#EA9E18"/>
<path d="M109.184 104.746L103.121 108.246L106.62 114.307L112.683 110.807L109.184 104.746Z" fill="#EDCD15"/>
<path d="M105.684 98.6832L99.6212 102.184L103.122 108.246L109.185 104.746L105.684 98.6832Z" fill="#E5EF14"/>
<path d="M102.182 92.6207L96.1193 96.1211L99.6197 102.184L105.683 98.6836L102.182 92.6207Z" fill="#E5EF14"/>
<path d="M98.6841 86.5592L92.6212 90.0596L96.1205 96.1205L102.183 92.6201L98.6841 86.5592Z" fill="#EA9E18"/>
<path d="M95.1841 80.4986L89.1212 83.999L92.6205 90.0599L98.6834 86.5595L95.1841 80.4986Z" fill="#EDCD15"/>
<path d="M91.6841 74.4332L85.6212 77.9336L89.1228 83.9984L95.1856 80.498L91.6841 74.4332Z" fill="#E5EF14"/>
<path d="M88.1841 68.3726L82.1212 71.873L85.6205 77.934L91.6834 74.4336L88.1841 68.3726Z" fill="#E5EF14"/>
<path d="M84.6861 62.3111L78.6232 65.8115L82.1224 71.8724L88.1853 68.372L84.6861 62.3111Z" fill="#EA9E18"/>
<path d="M81.1841 56.2486L75.1212 59.749L78.6216 65.8119L84.6845 62.3115L81.1841 56.2486Z" fill="#EDCD15"/>
<path d="M77.6841 50.1861L71.6212 53.6865L75.1216 59.7494L81.1845 56.249L77.6841 50.1861Z" fill="#E5EF14"/>
<path d="M74.1841 44.1246L68.1212 47.625L71.6205 53.6859L77.6834 50.1855L74.1841 44.1246Z" fill="#E5EF14"/>
<path d="M70.6841 38.0621L64.6212 41.5625L68.1216 47.6254L74.1845 44.125L70.6841 38.0621Z" fill="#E5EF14"/>
<path d="M148.62 187.053L142.559 190.553L146.059 196.616L152.12 193.116L148.62 187.053Z" fill="#36B236"/>
<path d="M145.122 180.991L139.061 184.49L142.561 190.553L148.622 187.054L145.122 180.991Z" fill="#36B236"/>
<path d="M141.622 174.929L135.561 178.429L139.06 184.49L145.121 180.99L141.622 174.929Z" fill="#349134"/>
<path d="M138.12 168.867L132.059 172.366L135.559 178.429L141.62 174.93L138.12 168.867Z" fill="#349134"/>
<path d="M134.622 162.804L128.561 166.304L132.061 172.367L138.122 168.867L134.622 162.804Z" fill="#349134"/>
<path d="M131.122 156.744L125.061 160.243L128.56 166.304L134.621 162.805L131.122 156.744Z" fill="#119907"/>
<path d="M127.622 150.68L121.561 154.18L125.061 160.243L131.122 156.743L127.622 150.68Z" fill="#225622"/>
<path d="M124.122 144.619L118.061 148.118L121.56 154.179L127.621 150.68L124.122 144.619Z" fill="#225622"/>
<path d="M120.62 138.556L114.559 142.056L118.059 148.119L124.12 144.619L120.62 138.556Z" fill="#225622"/>
<path d="M117.122 132.494L111.061 135.993L114.561 142.056L120.622 138.557L117.122 132.494Z" fill="#E5EF14"/>
<path d="M113.622 126.432L107.561 129.932L111.06 135.993L117.121 132.493L113.622 126.432Z" fill="#EA9E18"/>
<path d="M110.122 120.37L104.061 123.869L107.561 129.932L113.622 126.433L110.122 120.37Z" fill="#EA9E18"/>
<path d="M106.62 114.307L100.559 117.807L104.059 123.87L110.12 120.37L106.62 114.307Z" fill="#E5EF14"/>
<path d="M103.122 108.246L97.0607 111.745L100.56 117.806L106.621 114.307L103.122 108.246Z" fill="#EA9E18"/>
<path d="M99.6216 102.183L93.5607 105.683L97.0611 111.745L103.122 108.246L99.6216 102.183Z" fill="#EA9E18"/>
<path d="M96.1216 96.1208L90.0607 99.6201L93.5611 105.683L99.622 102.184L96.1216 96.1208Z" fill="#EA9E18"/>
<path d="M92.6216 90.0593L86.5607 93.5586L90.0599 99.6195L96.1209 96.1202L92.6216 90.0593Z" fill="#E5EF14"/>
<path d="M89.1235 83.9988L83.0626 87.498L86.5619 93.559L92.6228 90.0597L89.1235 83.9988Z" fill="#EA9E18"/>
<path d="M85.6216 77.9333L79.5607 81.4326L83.0622 87.4975L89.1231 83.9982L85.6216 77.9333Z" fill="#EA9E18"/>
<path d="M82.1216 71.8728L76.0607 75.3721L79.5599 81.433L85.6209 77.9337L82.1216 71.8728Z" fill="#EA9E18"/>
<path d="M78.6216 65.8113L72.5607 69.3105L76.0599 75.3715L82.1209 71.8722L78.6216 65.8113Z" fill="#E5EF14"/>
<path d="M75.1216 59.7488L69.0607 63.248L72.5611 69.3109L78.622 65.8116L75.1216 59.7488Z" fill="#EA9E18"/>
<path d="M71.6216 53.6863L65.5607 57.1855L69.0611 63.2484L75.122 59.7492L71.6216 53.6863Z" fill="#EA9E18"/>
<path d="M68.1216 47.6248L62.0607 51.124L65.5599 57.1849L71.6209 53.6857L68.1216 47.6248Z" fill="#EA9E18"/>
<path d="M139.059 184.491L132.996 187.991L136.497 194.054L142.559 190.554L139.059 184.491Z" fill="#36B236"/>
<path d="M135.559 178.429L129.496 181.93L132.995 187.991L139.058 184.49L135.559 178.429Z" fill="#36B236"/>
<path d="M132.061 172.367L125.998 175.867L129.499 181.93L135.561 178.43L132.061 172.367Z" fill="#349134"/>
<path d="M128.559 166.304L122.496 169.805L125.997 175.868L132.059 172.367L128.559 166.304Z" fill="#349134"/>
<path d="M125.061 160.243L118.998 163.743L122.497 169.804L128.56 166.304L125.061 160.243Z" fill="#119907"/>
<path d="M121.559 154.179L115.496 157.68L118.997 163.743L125.059 160.242L121.559 154.179Z" fill="#225622"/>
<path d="M118.059 148.119L111.996 151.619L115.495 157.68L121.558 154.18L118.059 148.119Z" fill="#49D335"/>
<path d="M114.561 142.056L108.498 145.557L111.999 151.62L118.061 148.119L114.561 142.056Z" fill="#49D335"/>
<path d="M111.059 135.994L104.996 139.494L108.497 145.557L114.559 142.057L111.059 135.994Z" fill="#225622"/>
<path d="M107.561 129.932L101.498 133.433L104.997 139.494L111.06 135.993L107.561 129.932Z" fill="#EDCD15"/>
<path d="M104.061 123.87L97.9982 127.37L101.499 133.433L107.561 129.933L104.061 123.87Z" fill="#EDCD15"/>
<path d="M100.559 117.806L94.4962 121.307L97.9966 127.37L104.059 123.869L100.559 117.806Z" fill="#EA9E18"/>
<path d="M97.061 111.746L90.9982 115.246L94.4974 121.307L100.56 117.807L97.061 111.746Z" fill="#E5EF14"/>
<path d="M93.561 105.683L87.4982 109.184L90.9986 115.246L97.0614 111.746L93.561 105.683Z" fill="#E5EF14"/>
<path d="M90.0591 99.6197L83.9962 103.12L87.4966 109.183L93.5595 105.683L90.0591 99.6197Z" fill="#EDCD15"/>
<path d="M86.5591 93.5592L80.4962 97.0596L83.9955 103.12L90.0584 99.6201L86.5591 93.5592Z" fill="#EA9E18"/>
<path d="M83.061 87.4976L76.9982 90.998L80.4974 97.059L86.5603 93.5586L83.061 87.4976Z" fill="#E5EF14"/>
<path d="M79.5591 81.4332L73.4962 84.9336L76.9978 90.9984L83.0606 87.498L79.5591 81.4332Z" fill="#E5EF14"/>
<path d="M76.061 75.3726L69.9982 78.873L73.4974 84.934L79.5603 81.4336L76.061 75.3726Z" fill="#EDCD15"/>
<path d="M72.561 69.3111L66.4982 72.8115L69.9974 78.8724L76.0603 75.372L72.561 69.3111Z" fill="#EA9E18"/>
<path d="M69.061 63.2486L62.9982 66.749L66.4986 72.8119L72.5614 69.3115L69.061 63.2486Z" fill="#E5EF14"/>
<path d="M65.5591 57.1851L59.4962 60.6855L62.9966 66.7484L69.0595 63.248L65.5591 57.1851Z" fill="#EDCD15"/>
<path d="M129.497 181.93L123.434 185.431L126.933 191.492L132.996 187.991L129.497 181.93Z" fill="#36B236"/>
<path d="M125.997 175.867L119.934 179.367L123.434 185.43L129.497 181.93L125.997 175.867Z" fill="#349134"/>
<path d="M122.497 169.804L116.434 173.305L119.934 179.368L125.997 175.867L122.497 169.804Z" fill="#119907"/>
<path d="M118.997 163.743L112.934 167.243L116.433 173.304L122.496 169.804L118.997 163.743Z" fill="#225622"/>
<path d="M115.497 157.68L109.434 161.181L112.934 167.244L118.997 163.743L115.497 157.68Z" fill="#49D335"/>
<path d="M111.999 151.619L105.936 155.119L109.435 161.18L115.498 157.68L111.999 151.619Z" fill="#72DD66"/>
<path d="M108.497 145.556L102.434 149.057L105.934 155.12L111.997 151.619L108.497 145.556Z" fill="#49D335"/>
<path d="M104.997 139.494L98.9337 142.994L102.434 149.057L108.497 145.557L104.997 139.494Z" fill="#49D335"/>
<path d="M101.497 133.432L95.4337 136.933L98.933 142.994L104.996 139.493L101.497 133.432Z" fill="#225622"/>
<path d="M97.9966 127.37L91.9337 130.87L95.4341 136.933L101.497 133.433L97.9966 127.37Z" fill="#EDCD15"/>
<path d="M94.4966 121.306L88.4337 124.807L91.9341 130.87L97.997 127.369L94.4966 121.306Z" fill="#EA9E18"/>
<path d="M90.9966 115.246L84.9337 118.746L88.433 124.807L94.4959 121.307L90.9966 115.246Z" fill="#E5EF14"/>
<path d="M87.4966 109.183L81.4337 112.684L84.9341 118.746L90.997 115.246L87.4966 109.183Z" fill="#EDCD15"/>
<path d="M83.9966 103.121L77.9337 106.621L81.4341 112.684L87.497 109.184L83.9966 103.121Z" fill="#EA9E18"/>
<path d="M80.4986 97.0592L74.4357 100.56L77.9349 106.62L83.9978 103.12L80.4986 97.0592Z" fill="#E5EF14"/>
<path d="M76.9986 90.9976L70.9357 94.498L74.4349 100.559L80.4978 97.0586L76.9986 90.9976Z" fill="#E5EF14"/>
<path d="M73.4966 84.9342L67.4337 88.4346L70.9353 94.4994L76.9981 90.999L73.4966 84.9342Z" fill="#EDCD15"/>
<path d="M69.9966 78.8726L63.9337 82.373L67.433 88.434L73.4959 84.9336L69.9966 78.8726Z" fill="#EDCD15"/>
<path d="M116.434 173.304L110.373 176.804L113.874 182.867L119.934 179.367L116.434 173.304Z" fill="#225622"/>
<path d="M112.934 167.244L106.873 170.743L110.372 176.804L116.433 173.305L112.934 167.244Z" fill="#225622"/>
<path d="M109.434 161.18L103.373 164.68L106.874 170.743L112.934 167.243L109.434 161.18Z" fill="#49D335"/>
<path d="M105.934 155.12L99.8732 158.619L103.372 164.68L109.433 161.181L105.934 155.12Z" fill="#72DD66"/>
<path d="M102.434 149.056L96.3732 152.556L99.8736 158.619L105.934 155.119L102.434 149.056Z" fill="#72DD66"/>
<path d="M98.9341 142.994L92.8732 146.493L96.3736 152.556L102.434 149.057L98.9341 142.994Z" fill="#49D335"/>
<path d="M95.4341 136.933L89.3732 140.433L92.8724 146.494L98.9334 142.994L95.4341 136.933Z" fill="#225622"/>
<path d="M91.936 130.87L85.8751 134.369L89.3755 140.432L95.4364 136.933L91.936 130.87Z" fill="#EA9E18"/>
<path d="M88.4341 124.807L82.3732 128.307L85.8736 134.37L91.9345 130.87L88.4341 124.807Z" fill="#E5EF14"/>
<path d="M84.9341 118.746L78.8732 122.245L82.3724 128.306L88.4334 124.807L84.9341 118.746Z" fill="#EDCD15"/>
<path d="M81.436 112.683L75.3751 116.183L78.8755 122.245L84.9364 118.746L81.436 112.683Z" fill="#EDCD15"/>
<path d="M106.874 170.743L100.811 174.243L104.31 180.304L110.373 176.804L106.874 170.743Z" fill="#225622"/>
<path d="M103.372 164.679L97.3087 168.18L100.809 174.243L106.872 170.742L103.372 164.679Z" fill="#72DD66"/>
<path d="M99.8736 158.619L93.8107 162.119L97.3099 168.18L103.373 164.68L99.8736 158.619Z" fill="#72DD66"/>
<path d="M96.3736 152.556L90.3107 156.057L93.8111 162.12L99.874 158.619L96.3736 152.556Z" fill="#72DD66"/>
<path d="M92.8736 146.493L86.8107 149.993L90.3111 156.056L96.374 152.556L92.8736 146.493Z" fill="#49D335"/>
<path d="M89.3736 140.432L83.3107 143.933L86.8099 149.994L92.8728 146.493L89.3736 140.432Z" fill="#49D335"/>
<path d="M85.8736 134.37L79.8107 137.87L83.3111 143.933L89.374 140.433L85.8736 134.37Z" fill="#225622"/>
<path d="M100.811 174.244L94.7482 177.744L98.2474 183.805L104.31 180.305L100.811 174.244Z" fill="#225622"/>
<path d="M97.3091 168.18L91.2462 171.681L94.7466 177.744L100.81 174.243L97.3091 168.18Z" fill="#60C660"/>
<path d="M93.8111 162.119L87.7482 165.619L91.2474 171.68L97.3103 168.18L93.8111 162.119Z" fill="#72DD66"/>
<path d="M90.3111 156.056L84.2482 159.557L87.7486 165.62L93.8115 162.119L90.3111 156.056Z" fill="#72DD66"/>
<path d="M86.8111 149.994L80.7482 153.494L84.2486 159.557L90.3115 156.057L86.8111 149.994Z" fill="#72DD66"/>
<path d="M83.3111 143.932L77.2482 147.433L80.7474 153.494L86.8103 149.993L83.3111 143.932Z" fill="#49D335"/>
<path d="M91.2466 171.68L85.1857 175.18L88.6861 181.243L94.747 177.743L91.2466 171.68Z" fill="#60C660"/>
<path d="M87.7485 165.62L81.6876 169.119L85.1869 175.18L91.2478 171.681L87.7485 165.62Z" fill="#72DD66"/>
<path d="M84.2485 159.556L78.1876 163.056L81.688 169.119L87.7489 165.619L84.2485 159.556Z" fill="#72DD66"/>
<path d="M80.7466 153.494L74.6857 156.993L78.1861 163.056L84.247 159.557L80.7466 153.494Z" fill="#72DD66"/>
<path d="M77.2485 147.433L71.1876 150.933L74.6869 156.994L80.7478 153.494L77.2485 147.433Z" fill="#49D335"/>
<path d="M81.688 169.119L75.6251 172.619L79.1244 178.68L85.1873 175.18L81.688 169.119Z" fill="#60C660"/>
<path d="M78.188 163.056L72.1251 166.557L75.6255 172.62L81.6884 169.119L78.188 163.056Z" fill="#72DD66"/>
<path d="M74.686 156.993L68.6232 160.493L72.1236 166.556L78.1864 163.056L74.686 156.993Z" fill="#72DD66"/>
<path d="M71.188 150.932L65.1251 154.433L68.6244 160.494L74.6873 156.993L71.188 150.932Z" fill="#49D335"/>
<path d="M75.6236 172.619L69.5607 176.119L73.0599 182.18L79.1228 178.68L75.6236 172.619Z" fill="#60C660"/>
<path d="M72.1236 166.556L66.0607 170.057L69.5611 176.12L75.624 172.619L72.1236 166.556Z" fill="#72DD66"/>
<path d="M68.6236 160.494L62.5607 163.994L66.0611 170.057L72.124 166.557L68.6236 160.494Z" fill="#72DD66"/>
<path d="M65.1236 154.432L59.0607 157.933L62.5599 163.994L68.6228 160.493L65.1236 154.432Z" fill="#49D335"/>
<path d="M66.061 170.056L60.0001 173.556L63.5005 179.619L69.5614 176.119L66.061 170.056Z" fill="#60C660"/>
<path d="M62.561 163.994L56.5001 167.493L60.0005 173.556L66.0614 170.057L62.561 163.994Z" fill="#72DD66"/>
</svg>
