<svg width="153" height="25" viewBox="0 0 153 25" fill="none" xmlns="http://www.w3.org/2000/svg">
<path d="M17.5993 10.6V11.4001H16.7994V10.6H17.5993Z" fill="#211D1D"/>
<path d="M17.5993 9.80053V10.6006H16.7994V9.80053H17.5993Z" fill="#211D1D"/>
<path d="M17.5993 8.99994V9.7998H16.7994V8.99994H17.5993Z" fill="#211D1D"/>
<path d="M17.5993 8.20031V9.00037H16.7994V8.20031H17.5993Z" fill="#211D1D"/>
<path d="M16.8001 17.8005V18.6006H16V17.8005H16.8001Z" fill="#211D1D"/>
<path d="M16.8001 16.9999V17.7998H16V16.9999H16.8001Z" fill="#211D1D"/>
<path d="M16.8001 16.2002V17.0003H16V16.2002H16.8001Z" fill="#211D1D"/>
<path d="M16.8001 15.3995V16.1995H16V15.3995H16.8001Z" fill="#211D1D"/>
<path d="M16.8001 14.6002V15.4001H16V14.6002H16.8001Z" fill="#211D1D"/>
<path d="M16.8001 13.8005V14.6006H16V13.8005H16.8001Z" fill="#211D1D"/>
<path d="M16.8001 12.9997V13.7998H16V12.9997H16.8001Z" fill="#211D1D"/>
<path d="M16.8001 12.2002V13.0003H16V12.2002H16.8001Z" fill="#211D1D"/>
<path d="M16.8001 11.4003V12.2002H16V11.4003H16.8001Z" fill="#211D1D"/>
<path d="M16.8001 10.6V11.4001H16V10.6H16.8001Z" fill="#B1E197"/>
<path d="M16.8001 9.80053V10.6006H16V9.80053H16.8001Z" fill="#B1E197"/>
<path d="M16.8001 8.99994V9.7998H16V8.99994H16.8001Z" fill="#B1E197"/>
<path d="M16.8001 8.20031V9.00037H16V8.20031H16.8001Z" fill="#B1E197"/>
<path d="M16.8001 7.40014V8.2002H16V7.40014H16.8001Z" fill="#211D1D"/>
<path d="M16.8001 6.60022V7.40009H16V6.60022H16.8001Z" fill="#211D1D"/>
<path d="M15.9999 19.4003V20.2002H15.1998V19.4003H15.9999Z" fill="#211D1D"/>
<path d="M15.9999 18.6V19.4001H15.1998V18.6H15.9999Z" fill="#211D1D"/>
<path d="M15.9999 17.8005V18.6006H15.1998V17.8005H15.9999Z" fill="#B1E197"/>
<path d="M15.9999 17.0006V17.8005H15.1998V17.0006H15.9999Z" fill="#B1E197"/>
<path d="M15.9999 16.2002V17.0003H15.1998V16.2002H15.9999Z" fill="#B1E197"/>
<path d="M15.9999 15.4001V16.2002H15.1998V15.4001H15.9999Z" fill="#B1E197"/>
<path d="M15.9999 14.6002V15.4001H15.1998V14.6002H15.9999Z" fill="#B1E197"/>
<path d="M15.9999 13.8005V14.6006H15.1998V13.8005H15.9999Z" fill="#B1E197"/>
<path d="M15.9999 12.9997V13.7998H15.1998V12.9997H15.9999Z" fill="#B1E197"/>
<path d="M15.9999 12.2002V13.0003H15.1998V12.2002H15.9999Z" fill="#B1E197"/>
<path d="M15.9999 11.4003V12.2002H15.1998V11.4003H15.9999Z" fill="#B1E197"/>
<path d="M15.9999 10.6V11.4001H15.1998V10.6H15.9999Z" fill="#45BB3A"/>
<path d="M15.9999 9.80053V10.6006H15.1998V9.80053H15.9999Z" fill="#45BB3A"/>
<path d="M15.9999 8.99994V9.7998H15.1998V8.99994H15.9999Z" fill="#45BB3A"/>
<path d="M15.9999 8.20031V9.00037H15.1998V8.20031H15.9999Z" fill="#B1E197"/>
<path d="M15.9999 7.40014V8.2002H15.1998V7.40014H15.9999Z" fill="#B1E197"/>
<path d="M15.9999 6.60022V7.40009H15.1998V6.60022H15.9999Z" fill="#B1E197"/>
<path d="M15.9999 5.80053V6.60059H15.1998V5.80053H15.9999Z" fill="#211D1D"/>
<path d="M15.9999 5.00042V5.80048H15.1998V5.00042H15.9999Z" fill="#211D1D"/>
<path d="M15.9999 4.20031V5.00037H15.1998V4.20031H15.9999Z" fill="#211D1D"/>
<path d="M15.9999 3.40033V4.2002H15.1998V3.40033H15.9999Z" fill="#211D1D"/>
<path d="M15.9999 2.60003V3.40009H15.1998V2.60003H15.9999Z" fill="#211D1D"/>
<path d="M15.2003 20.2002V21.0003H14.4004V20.2002H15.2003Z" fill="#211D1D"/>
<path d="M15.2003 19.4003V20.2002H14.4004V19.4003H15.2003Z" fill="#B1E197"/>
<path d="M15.2003 18.6V19.4001H14.4004V18.6H15.2003Z" fill="#B1E197"/>
<path d="M15.2003 17.8005V18.6006H14.4004V17.8005H15.2003Z" fill="#45BB3A"/>
<path d="M15.2003 16.9999V17.7998H14.4004V16.9999H15.2003Z" fill="#45BB3A"/>
<path d="M15.2003 16.2002V17.0003H14.4004V16.2002H15.2003Z" fill="#45BB3A"/>
<path d="M15.2003 15.3995V16.1995H14.4004V15.3995H15.2003Z" fill="#45BB3A"/>
<path d="M15.2003 14.6002V15.4001H14.4004V14.6002H15.2003Z" fill="#45BB3A"/>
<path d="M15.2003 13.8005V14.6006H14.4004V13.8005H15.2003Z" fill="#45BB3A"/>
<path d="M15.2003 12.9997V13.7998H14.4004V12.9997H15.2003Z" fill="#45BB3A"/>
<path d="M15.2003 12.2002V13.0003H14.4004V12.2002H15.2003Z" fill="#45BB3A"/>
<path d="M15.2003 11.4003V12.2002H14.4004V11.4003H15.2003Z" fill="#45BB3A"/>
<path d="M15.2003 10.6V11.4001H14.4004V10.6H15.2003Z" fill="#45BB3A"/>
<path d="M15.2003 9.80053V10.6006H14.4004V9.80053H15.2003Z" fill="#45BB3A"/>
<path d="M15.2003 8.99994V9.7998H14.4004V8.99994H15.2003Z" fill="#45BB3A"/>
<path d="M15.2003 8.20031V9.00037H14.4004V8.20031H15.2003Z" fill="#45BB3A"/>
<path d="M15.2003 7.40014V8.2002H14.4004V7.40014H15.2003Z" fill="#45BB3A"/>
<path d="M15.2003 6.60022V7.40009H14.4004V6.60022H15.2003Z" fill="#B1E197"/>
<path d="M15.2003 5.80053V6.60059H14.4004V5.80053H15.2003Z" fill="#B1E197"/>
<path d="M15.2003 4.99975V5.7998H14.4004V4.99975H15.2003Z" fill="#B1E197"/>
<path d="M15.2003 4.20031V5.00037H14.4004V4.20031H15.2003Z" fill="#B1E197"/>
<path d="M15.2003 3.39972V4.19958H14.4004V3.39972H15.2003Z" fill="#B1E197"/>
<path d="M15.2003 2.60003V3.40009H14.4004V2.60003H15.2003Z" fill="#B1E197"/>
<path d="M15.2003 1.80059V2.60065H14.4004V1.80059H15.2003Z" fill="#211D1D"/>
<path d="M14.3997 20.9997V21.7998H13.5996V20.9997H14.3997Z" fill="#211D1D"/>
<path d="M14.3997 20.2002V21.0003H13.5996V20.2002H14.3997Z" fill="#B1E197"/>
<path d="M14.3997 19.4003V20.2002H13.5996V19.4003H14.3997Z" fill="#45BB3A"/>
<path d="M14.3997 18.6V19.4001H13.5996V18.6H14.3997Z" fill="#45BB3A"/>
<path d="M14.3997 17.8005V18.6006H13.5996V17.8005H14.3997Z" fill="#45BB3A"/>
<path d="M14.3997 17.0006V17.8005H13.5996V17.0006H14.3997Z" fill="#36B63F"/>
<path d="M14.3997 16.2002V17.0003H13.5996V16.2002H14.3997Z" fill="#36B63F"/>
<path d="M14.3997 15.4001V16.2002H13.5996V15.4001H14.3997Z" fill="#36B63F"/>
<path d="M14.3997 14.6002V15.4001H13.5996V14.6002H14.3997Z" fill="#45BB3A"/>
<path d="M14.3997 13.8005V14.6006H13.5996V13.8005H14.3997Z" fill="#45BB3A"/>
<path d="M14.3997 12.9997V13.7998H13.5996V12.9997H14.3997Z" fill="#45BB3A"/>
<path d="M14.3997 12.2002V13.0003H13.5996V12.2002H14.3997Z" fill="#36B63F"/>
<path d="M14.3997 11.4003V12.2002H13.5996V11.4003H14.3997Z" fill="#36B63F"/>
<path d="M14.3997 10.6V11.4001H13.5996V10.6H14.3997Z" fill="#36B63F"/>
<path d="M14.3997 9.80053V10.6006H13.5996V9.80053H14.3997Z" fill="#36B63F"/>
<path d="M14.3997 8.99994V9.7998H13.5996V8.99994H14.3997Z" fill="#36B63F"/>
<path d="M14.3997 8.20031V9.00037H13.5996V8.20031H14.3997Z" fill="#36B63F"/>
<path d="M14.3997 7.40014V8.2002H13.5996V7.40014H14.3997Z" fill="#45BB3A"/>
<path d="M14.3997 6.60022V7.40009H13.5996V6.60022H14.3997Z" fill="#45BB3A"/>
<path d="M14.3997 5.80053V6.60059H13.5996V5.80053H14.3997Z" fill="#45BB3A"/>
<path d="M14.3997 5.00042V5.80048H13.5996V5.00042H14.3997Z" fill="#45BB3A"/>
<path d="M14.3997 4.20031V5.00037H13.5996V4.20031H14.3997Z" fill="#45BB3A"/>
<path d="M14.3997 3.40033V4.2002H13.5996V3.40033H14.3997Z" fill="#45BB3A"/>
<path d="M14.3997 2.60003V3.40009H13.5996V2.60003H14.3997Z" fill="#B1E197"/>
<path d="M14.3997 1.80059V2.60065H13.5996V1.80059H14.3997Z" fill="#B1E197"/>
<path d="M14.3997 1V1.79987H13.5996V1H14.3997Z" fill="#211D1D"/>
<path d="M13.5995 21.8005V22.6006L12.7994 22.6004V21.8005H13.5995Z" fill="#211D1D"/>
<path d="M13.5995 20.9997V21.7998H12.7994V20.9997H13.5995Z" fill="#B1E197"/>
<path d="M13.5995 20.2002V21.0003H12.7994V20.2002H13.5995Z" fill="#45BB3A"/>
<path d="M13.5995 19.4003V20.2002H12.7994V19.4003H13.5995Z" fill="#45BB3A"/>
<path d="M13.5995 18.6V19.4001H12.7994V18.6H13.5995Z" fill="#36B63F"/>
<path d="M13.5995 17.8005V18.6006H12.7994V17.8005H13.5995Z" fill="#36B63F"/>
<path d="M13.5995 16.9999V17.7998H12.7994V16.9999H13.5995Z" fill="#36B63F"/>
<path d="M13.5995 16.2002V17.0003H12.7994V16.2002H13.5995Z" fill="#36B63F"/>
<path d="M13.5995 15.3995V16.1995H12.7994V15.3995H13.5995Z" fill="#36B63F"/>
<path d="M13.5995 14.6002V15.4001H12.7994V14.6002H13.5995Z" fill="#36B63F"/>
<path d="M13.5995 13.8005V14.6006H12.7994V13.8005H13.5995Z" fill="#36B63F"/>
<path d="M13.5995 12.9997V13.7998H12.7994V12.9997H13.5995Z" fill="#36B63F"/>
<path d="M13.5995 12.2002V13.0003H12.7994V12.2002H13.5995Z" fill="#36B63F"/>
<path d="M13.5995 11.4003V12.2002H12.7994V11.4003H13.5995Z" fill="#36B63F"/>
<path d="M13.5995 10.6V11.4001H12.7994V10.6H13.5995Z" fill="#36B63F"/>
<path d="M13.5995 9.80053V10.6006H12.7994V9.80053H13.5995Z" fill="#36B63F"/>
<path d="M13.5995 8.99994V9.7998H12.7994V8.99994H13.5995Z" fill="#36B63F"/>
<path d="M13.5995 8.20031V9.00037H12.7994V8.20031H13.5995Z" fill="#36B63F"/>
<path d="M13.5995 7.40014V8.2002H12.7994V7.40014H13.5995Z" fill="#45BB3A"/>
<path d="M13.5995 6.60022V7.40009H12.7994V6.60022H13.5995Z" fill="#45BB3A"/>
<path d="M13.5995 5.80053V6.60059H12.7994V5.80053H13.5995Z" fill="#45BB3A"/>
<path d="M13.5995 4.99975V5.7998H12.7994V4.99975H13.5995Z" fill="#45BB3A"/>
<path d="M13.5995 4.20031V5.00037H12.7994V4.20031H13.5995Z" fill="#45BB3A"/>
<path d="M13.5995 3.39972V4.19958H12.7994V3.39972H13.5995Z" fill="#45BB3A"/>
<path d="M13.5995 2.60003V3.40009H12.7994V2.60003H13.5995Z" fill="#45BB3A"/>
<path d="M13.5995 1.80059V2.60065H12.7994V1.80059H13.5995Z" fill="#267736"/>
<path d="M13.5995 1V1.79987H12.7994V1H13.5995Z" fill="#211D1D"/>
<path d="M12.7999 22.6V23.4H12V22.6H12.7999Z" fill="#211D1D"/>
<path d="M12.7999 21.8001V22.5999H12V21.8001H12.7999Z" fill="#B1E197"/>
<path d="M12.7999 20.9997V21.7998H12V20.9997H12.7999Z" fill="#45BB3A"/>
<path d="M12.7999 20.2002V21.0003H12V20.2002H12.7999Z" fill="#45BB3A"/>
<path d="M12.7999 19.4003V20.2002H12V19.4003H12.7999Z" fill="#36B63F"/>
<path d="M12.7999 18.6V19.4001H12V18.6H12.7999Z" fill="#36B63F"/>
<path d="M12.7999 17.8005V18.6006H12V17.8005H12.7999Z" fill="#36B63F"/>
<path d="M12.7999 17.0006V17.8005H12V17.0006H12.7999Z" fill="#36B63F"/>
<path d="M12.7999 16.2002V17.0003H12V16.2002H12.7999Z" fill="#36B63F"/>
<path d="M12.7999 15.4001V16.2002H12V15.4001H12.7999Z" fill="#36B63F"/>
<path d="M12.7999 14.6002V15.4001H12V14.6002H12.7999Z" fill="#267736"/>
<path d="M12.7999 13.8005V14.6006H12V13.8005H12.7999Z" fill="#267736"/>
<path d="M12.7999 12.9997V13.7998H12V12.9997H12.7999Z" fill="#267736"/>
<path d="M12.7999 12.2002V13.0003H12V12.2002H12.7999Z" fill="#267736"/>
<path d="M12.7999 11.4003V12.2002H12V11.4003H12.7999Z" fill="#267736"/>
<path d="M12.7999 10.6V11.4001H12V10.6H12.7999Z" fill="#267736"/>
<path d="M12.7999 9.80053V10.6006H12V9.80053H12.7999Z" fill="#36B63F"/>
<path d="M12.7999 8.99994V9.7998H12V8.99994H12.7999Z" fill="#36B63F"/>
<path d="M12.7999 8.20031V9.00037H12V8.20031H12.7999Z" fill="#36B63F"/>
<path d="M12.7999 7.40014V8.2002H12V7.40014H12.7999Z" fill="#36B63F"/>
<path d="M12.7999 6.60022V7.40009H12V6.60022H12.7999Z" fill="#36B63F"/>
<path d="M12.7999 5.80053V6.60059H12V5.80053H12.7999Z" fill="#36B63F"/>
<path d="M12.7999 5.00042V5.80048H12V5.00042H12.7999Z" fill="#36B63F"/>
<path d="M12.7999 4.20031V5.00037H12V4.20031H12.7999Z" fill="#36B63F"/>
<path d="M12.7999 3.40033V4.2002H12V3.40033H12.7999Z" fill="#45BB3A"/>
<path d="M12.7999 2.60003V3.40009H12V2.60003H12.7999Z" fill="#267736"/>
<path d="M12.7999 1.80059V2.60065H12V1.80059H12.7999Z" fill="#211D1D"/>
<path d="M12.0005 23.4001V24.2002H11.2004V23.4001H12.0005Z" fill="#211D1D"/>
<path d="M12.0005 22.6V23.4H11.2004V22.6H12.0005Z" fill="#267736"/>
<path d="M12.0005 21.8001V22.5999H11.2004V21.8001H12.0005Z" fill="#267736"/>
<path d="M12.0005 20.9997V21.7998H11.2004V20.9997H12.0005Z" fill="#267736"/>
<path d="M12.0005 20.2002V21.0003H11.2004V20.2002H12.0005Z" fill="#267736"/>
<path d="M12.0005 19.4003V20.2002H11.2004V19.4003H12.0005Z" fill="#36B63F"/>
<path d="M12.0005 18.6V19.4001H11.2004V18.6H12.0005Z" fill="#267736"/>
<path d="M12.0005 17.8005V18.6006H11.2004V17.8005H12.0005Z" fill="#267736"/>
<path d="M12.0005 16.9999V17.7998H11.2004V16.9999H12.0005Z" fill="#267736"/>
<path d="M12.0005 16.2002V17.0003H11.2004V16.2002H12.0005Z" fill="#267736"/>
<path d="M12.0005 15.3995V16.1995H11.2004V15.3995H12.0005Z" fill="#267736"/>
<path d="M12.0005 14.6002V15.4001H11.2004V14.6002H12.0005Z" fill="#F9D409"/>
<path d="M12.0005 13.8005V14.6006H11.2004V13.8005H12.0005Z" fill="#F9D409"/>
<path d="M12.0005 12.9997V13.7998H11.2004V12.9997H12.0005Z" fill="#D9E70C"/>
<path d="M12.0005 12.2002V13.0003H11.2004V12.2002H12.0005Z" fill="#F9AA0C"/>
<path d="M12.0005 11.4003V12.2002H11.2004V11.4003H12.0005Z" fill="#F9D409"/>
<path d="M12.0005 10.6V11.4001H11.2004V10.6H12.0005Z" fill="#F9D409"/>
<path d="M12.0005 9.80053V10.6006H11.2004V9.80053H12.0005Z" fill="#267736"/>
<path d="M12.0005 8.99994V9.7998H11.2004V8.99994H12.0005Z" fill="#267736"/>
<path d="M12.0005 8.20031V9.00037H11.2004V8.20031H12.0005Z" fill="#267736"/>
<path d="M12.0005 7.40014V8.2002H11.2004V7.40014H12.0005Z" fill="#267736"/>
<path d="M12.0005 6.60022V7.40009H11.2004V6.60022H12.0005Z" fill="#267736"/>
<path d="M12.0005 5.80053V6.60059H11.2004V5.80053H12.0005Z" fill="#267736"/>
<path d="M12.0005 4.99975V5.7998H11.2004V4.99975H12.0005Z" fill="#267736"/>
<path d="M12.0005 4.20031V5.00037H11.2004V4.20031H12.0005Z" fill="#267736"/>
<path d="M12.0005 3.39972V4.19958H11.2004V3.39972H12.0005Z" fill="#267736"/>
<path d="M12.0005 2.60003V3.40009H11.2004V2.60003H12.0005Z" fill="#D9E70C"/>
<path d="M12.0005 1.80059V2.60065H11.2004V1.80059H12.0005Z" fill="#211D1D"/>
<path d="M11.1997 24.2002V25.0003H10.3997V24.2002H11.1997Z" fill="#211D1D"/>
<path d="M11.1997 23.4001V24.2002H10.3997V23.4001H11.1997Z" fill="#267736"/>
<path d="M11.1997 22.6V23.4H10.3997V22.6H11.1997Z" fill="#B1E197"/>
<path d="M11.1997 21.8001V22.5999H10.3997V21.8001H11.1997Z" fill="#B1E197"/>
<path d="M11.1997 20.9997V21.7998H10.3997V20.9997H11.1997Z" fill="#B1E197"/>
<path d="M11.1997 20.2002V21.0003H10.3997V20.2002H11.1997Z" fill="#B1E197"/>
<path d="M11.1997 19.4003V20.2002H10.3997V19.4003H11.1997Z" fill="#267736"/>
<path d="M11.1997 18.6V19.4001H10.3997V18.6H11.1997Z" fill="#D9E70C"/>
<path d="M11.1997 17.8005V18.6006H10.3997V17.8005H11.1997Z" fill="#D9E70C"/>
<path d="M11.1997 17.0006V17.8005H10.3997V17.0006H11.1997Z" fill="#F9D409"/>
<path d="M11.1997 16.2002V17.0003H10.3997V16.2002H11.1997Z" fill="#F9D409"/>
<path d="M11.1997 15.4001V16.2002H10.3997V15.4001H11.1997Z" fill="#F9D409"/>
<path d="M11.1997 14.6002V15.4001H10.3997V14.6002H11.1997Z" fill="#F9AA0C"/>
<path d="M11.1997 13.8005V14.6006H10.3997V13.8005H11.1997Z" fill="#F9AA0C"/>
<path d="M11.1997 12.9997V13.7998H10.3997V12.9997H11.1997Z" fill="#F9AA0C"/>
<path d="M11.1997 12.2002V13.0003H10.3997V12.2002H11.1997Z" fill="#D9E70C"/>
<path d="M11.1997 11.4003V12.2002H10.3997V11.4003H11.1997Z" fill="#F9AA0C"/>
<path d="M11.1997 10.6V11.4001H10.3997V10.6H11.1997Z" fill="#F9AA0C"/>
<path d="M11.1997 9.80053V10.6006H10.3997V9.80053H11.1997Z" fill="#F9AA0C"/>
<path d="M11.1997 8.99994V9.7998H10.3997V8.99994H11.1997Z" fill="#D9E70C"/>
<path d="M11.1997 8.20031V9.00037H10.3997V8.20031H11.1997Z" fill="#F9AA0C"/>
<path d="M11.1997 7.40014V8.2002H10.3997V7.40014H11.1997Z" fill="#F9AA0C"/>
<path d="M11.1997 6.60022V7.40009H10.3997V6.60022H11.1997Z" fill="#F9AA0C"/>
<path d="M11.1997 5.80053V6.60059H10.3997V5.80053H11.1997Z" fill="#D9E70C"/>
<path d="M11.1997 5.00042V5.80048H10.3997V5.00042H11.1997Z" fill="#F9AA0C"/>
<path d="M11.1997 4.20031V5.00037H10.3997V4.20031H11.1997Z" fill="#F9AA0C"/>
<path d="M11.1997 3.40033V4.2002H10.3997V3.40033H11.1997Z" fill="#F9AA0C"/>
<path d="M11.1997 2.60003V3.40009H10.3997V2.60003H11.1997Z" fill="#F9AA0C"/>
<path d="M11.1997 1.80059V2.60065H10.3997V1.80059H11.1997Z" fill="#211D1D"/>
<path d="M10.3996 23.4001V24.2002H9.59961V23.4001H10.3996Z" fill="#211D1D"/>
<path d="M10.3996 22.6V23.4H9.59961V22.6H10.3996Z" fill="#36B63F"/>
<path d="M10.3996 21.8001V22.5999H9.59961V21.8001H10.3996Z" fill="#36B63F"/>
<path d="M10.3996 20.9997V21.7998H9.59961V20.9997H10.3996Z" fill="#36B63F"/>
<path d="M10.3996 20.2002V21.0003H9.59961V20.2002H10.3996Z" fill="#36B63F"/>
<path d="M10.3996 19.4003V20.2002H9.59961V19.4003H10.3996Z" fill="#B1E197"/>
<path d="M10.3996 18.6V19.4001H9.59961V18.6H10.3996Z" fill="#267736"/>
<path d="M10.3996 17.8005V18.6006H9.59961V17.8005H10.3996Z" fill="#267736"/>
<path d="M10.3996 16.9999V17.7998H9.59961V16.9999H10.3996Z" fill="#F9D409"/>
<path d="M10.3996 16.2002V17.0003H9.59961V16.2002H10.3996Z" fill="#F9AA0C"/>
<path d="M10.3996 15.3995V16.1995H9.59961V15.3995H10.3996Z" fill="#F9AA0C"/>
<path d="M10.3996 14.6002V15.4001H9.59961V14.6002H10.3996Z" fill="#F9D409"/>
<path d="M10.3996 13.8005V14.6006H9.59961V13.8005H10.3996Z" fill="#F9D409"/>
<path d="M10.3996 12.9997V13.7998H9.59961V12.9997H10.3996Z" fill="#D9E70C"/>
<path d="M10.3996 12.2002V13.0003H9.59961V12.2002H10.3996Z" fill="#F9AA0C"/>
<path d="M10.3996 11.4003V12.2002H9.59961V11.4003H10.3996Z" fill="#F9D409"/>
<path d="M10.3996 10.6V11.4001H9.59961V10.6H10.3996Z" fill="#F9D409"/>
<path d="M10.3996 9.80053V10.6006H9.59961V9.80053H10.3996Z" fill="#D9E70C"/>
<path d="M10.3996 8.99994V9.7998H9.59961V8.99994H10.3996Z" fill="#F9AA0C"/>
<path d="M10.3996 8.20031V9.00037H9.59961V8.20031H10.3996Z" fill="#F9D409"/>
<path d="M10.3996 7.40014V8.2002H9.59961V7.40014H10.3996Z" fill="#F9D409"/>
<path d="M10.3996 6.60022V7.40009H9.59961V6.60022H10.3996Z" fill="#D9E70C"/>
<path d="M10.3996 5.80053V6.60059H9.59961V5.80053H10.3996Z" fill="#F9AA0C"/>
<path d="M10.3996 4.99975V5.7998H9.59961L9.59963 4.99975H10.3996Z" fill="#F9D409"/>
<path d="M10.3996 4.20031V5.00037H9.59961V4.20031H10.3996Z" fill="#F9D409"/>
<path d="M10.3996 3.39972V4.19958H9.59961V3.39972H10.3996Z" fill="#D9E70C"/>
<path d="M10.3996 2.60003V3.40009H9.59961V2.60003H10.3996Z" fill="#D9E70C"/>
<path d="M10.3996 1.80059V2.60065H9.59961V1.80059H10.3996Z" fill="#211D1D"/>
<path d="M9.59999 23.4001V24.2002H8.80005V23.4001H9.59999Z" fill="#211D1D"/>
<path d="M9.59999 22.6V23.4H8.80005V22.6H9.59999Z" fill="#45BB3A"/>
<path d="M9.59999 21.8001V22.5999H8.80005V21.8001H9.59999Z" fill="#45BB3A"/>
<path d="M9.59999 20.9997V21.7998H8.80005V20.9997H9.59999Z" fill="#36B63F"/>
<path d="M9.59999 20.2002V21.0003H8.80005V20.2002H9.59999Z" fill="#36B63F"/>
<path d="M9.59999 19.4003V20.2002H8.80005V19.4003H9.59999Z" fill="#36B63F"/>
<path d="M9.59999 18.6V19.4001H8.80005V18.6H9.59999Z" fill="#B1E197"/>
<path d="M9.59999 17.8005V18.6006H8.80005V17.8005H9.59999Z" fill="#2E9E3F"/>
<path d="M9.59999 17.0006V17.8005H8.80005V17.0006H9.59999Z" fill="#267736"/>
<path d="M9.59999 16.2002V17.0003H8.80005V16.2002H9.59999Z" fill="#F9D409"/>
<path d="M9.59999 15.4001V16.2002H8.80005V15.4001H9.59999Z" fill="#D9E70C"/>
<path d="M9.59999 14.6002V15.4001H8.80005V14.6002H9.59999Z" fill="#F9AA0C"/>
<path d="M9.59999 13.8005V14.6006H8.80005V13.8005H9.59999Z" fill="#F9D409"/>
<path d="M9.59999 12.9997V13.7998H8.80005V12.9997H9.59999Z" fill="#D9E70C"/>
<path d="M9.59999 12.2002V13.0003H8.80005V12.2002H9.59999Z" fill="#F9AA0C"/>
<path d="M9.59999 11.4003V12.2002H8.80005V11.4003H9.59999Z" fill="#F9D409"/>
<path d="M9.59999 10.6V11.4001H8.80005V10.6H9.59999Z" fill="#D9E70C"/>
<path d="M9.59999 9.80053V10.6006H8.80005V9.80053H9.59999Z" fill="#D9E70C"/>
<path d="M9.59999 8.99994V9.7998H8.80005V8.99994H9.59999Z" fill="#F9AA0C"/>
<path d="M9.59999 8.20031V9.00037H8.80005V8.20031H9.59999Z" fill="#F9D409"/>
<path d="M9.59999 7.40014V8.2002H8.80005V7.40014H9.59999Z" fill="#D9E70C"/>
<path d="M9.59999 6.60022V7.40009H8.80005V6.60022H9.59999Z" fill="#D9E70C"/>
<path d="M9.59999 5.80053V6.60059H8.80005V5.80053H9.59999Z" fill="#F9AA0C"/>
<path d="M9.60001 5.00042L9.59999 5.80048H8.80005V5.00042H9.60001Z" fill="#F9D409"/>
<path d="M9.60001 4.20031V5.00037H8.80005V4.20031H9.60001Z" fill="#D9E70C"/>
<path d="M9.60001 3.40033V4.2002H8.80005V3.40033H9.60001Z" fill="#D9E70C"/>
<path d="M9.60001 2.60003V3.40009H8.80005L8.80007 2.60003H9.60001Z" fill="#D9E70C"/>
<path d="M9.59999 1.80059V2.60065H8.80005V1.80059H9.59999Z" fill="#211D1D"/>
<path d="M8.79996 22.6V23.4H8V22.6H8.79996Z" fill="#211D1D"/>
<path d="M8.79996 21.8001V22.5999H8V21.8001H8.79996Z" fill="#45BB3A"/>
<path d="M8.79996 20.9997V21.7998H8V20.9997H8.79996Z" fill="#45BB3A"/>
<path d="M8.79996 20.2002V21.0003H8V20.2002H8.79996Z" fill="#36B63F"/>
<path d="M8.79996 19.4003V20.2002H8V19.4003H8.79996Z" fill="#36B63F"/>
<path d="M8.79996 18.6V19.4001H8V18.6H8.79996Z" fill="#36B63F"/>
<path d="M8.79996 17.8005V18.6006H8V17.8005H8.79996Z" fill="#2E9E3F"/>
<path d="M8.79996 16.9999V17.7998H8V16.9999H8.79996Z" fill="#267736"/>
<path d="M8.79996 16.2002V17.0003H8L8.00002 16.2002H8.79996Z" fill="#267736"/>
<path d="M8.79994 15.3995V16.1995H8V15.3995H8.79994Z" fill="#267736"/>
<path d="M8.79994 14.6002V15.4001H8V14.6002H8.79994Z" fill="#D9E70C"/>
<path d="M8.79994 13.8005V14.6006H8V13.8005H8.79994Z" fill="#F9AA0C"/>
<path d="M8.79994 12.9997V13.7998H8V12.9997H8.79994Z" fill="#F9AA0C"/>
<path d="M8.79994 12.2002V13.0003H8V12.2002H8.79994Z" fill="#D9E70C"/>
<path d="M8.79994 11.4003V12.2002H8V11.4003H8.79994Z" fill="#F9AA0C"/>
<path d="M8.79994 10.6V11.4001H8V10.6H8.79994Z" fill="#F9AA0C"/>
<path d="M8.79994 9.80053V10.6006H8V9.80053H8.79994Z" fill="#F9AA0C"/>
<path d="M8.79994 8.99994V9.7998H8V8.99994H8.79994Z" fill="#D9E70C"/>
<path d="M8.79994 8.20031V9.00037H8V8.20031H8.79994Z" fill="#F9AA0C"/>
<path d="M8.79994 7.40014V8.2002H8V7.40014H8.79994Z" fill="#F9AA0C"/>
<path d="M8.79994 6.60022V7.40009H8V6.60022H8.79994Z" fill="#F9AA0C"/>
<path d="M8.79994 5.80053V6.60059H8V5.80053H8.79994Z" fill="#D9E70C"/>
<path d="M8.79994 4.99975V5.7998H8V4.99975H8.79994Z" fill="#F9AA0C"/>
<path d="M8.79994 4.20031V5.00037H8V4.20031H8.79994Z" fill="#F9AA0C"/>
<path d="M8.79994 3.39972V4.19958H8V3.39972H8.79994Z" fill="#F9AA0C"/>
<path d="M8.79996 2.60003L8.79994 3.40009H8V2.60003H8.79996Z" fill="#211D1D"/>
<path d="M8.00067 21.8001V22.5999H7.20056V21.8001H8.00067Z" fill="#211D1D"/>
<path d="M8.00067 20.9997V21.7998H7.20056V20.9997H8.00067Z" fill="#45BB3A"/>
<path d="M8.00067 20.2002V21.0003H7.20056V20.2002H8.00067Z" fill="#45BB3A"/>
<path d="M8.00067 19.4003V20.2002H7.20056V19.4003H8.00067Z" fill="#36B63F"/>
<path d="M8.00067 18.6V19.4001H7.20056L7.20058 18.6H8.00067Z" fill="#36B63F"/>
<path d="M8.00066 17.8005V18.6006H7.20056V17.8005H8.00066Z" fill="#2E9E3F"/>
<path d="M8.00066 17.0006V17.8005H7.20056V17.0006H8.00066Z" fill="#267736"/>
<path d="M8.00068 16.2002L8.00066 17.0003H7.20056V16.2002H8.00068Z" fill="#5AC134"/>
<path d="M8.00068 15.4001V16.2002H7.20056V15.4001H8.00068Z" fill="#5AC134"/>
<path d="M8.00068 14.6002V15.4001H7.20056V14.6002H8.00068Z" fill="#267736"/>
<path d="M8.00068 13.8005V14.6006H7.20056V13.8005H8.00068Z" fill="#F9D409"/>
<path d="M8.00068 12.9997V13.7998H7.20056V12.9997H8.00068Z" fill="#F9D409"/>
<path d="M8.00068 12.2002V13.0003H7.20056V12.2002H8.00068Z" fill="#F9AA0C"/>
<path d="M8.00068 11.4003V12.2002H7.20056V11.4003H8.00068Z" fill="#D9E70C"/>
<path d="M8.00068 10.6V11.4001H7.20056V10.6H8.00068Z" fill="#D9E70C"/>
<path d="M8.00068 9.80053V10.6006H7.20056V9.80053H8.00068Z" fill="#F9D409"/>
<path d="M8.00068 8.99994V9.7998H7.20056V8.99994H8.00068Z" fill="#F9AA0C"/>
<path d="M8.00068 8.20031V9.00037H7.20056V8.20031H8.00068Z" fill="#D9E70C"/>
<path d="M8.00068 7.40014V8.2002H7.20056V7.40014H8.00068Z" fill="#D9E70C"/>
<path d="M8.00068 6.60022V7.40009H7.20056V6.60022H8.00068Z" fill="#F9D409"/>
<path d="M8.00068 5.80053V6.60059H7.20056V5.80053H8.00068Z" fill="#F9AA0C"/>
<path d="M8.00068 5.00042V5.80048H7.20056V5.00042H8.00068Z" fill="#D9E70C"/>
<path d="M8.00068 4.20031V5.00037H7.20056V4.20031H8.00068Z" fill="#F9D409"/>
<path d="M8.00068 3.40033V4.2002H7.20056V3.40033H8.00068Z" fill="#211D1D"/>
<path d="M7.20033 20.9997V21.7998H6.40039V20.9997H7.20033Z" fill="#211D1D"/>
<path d="M7.20033 20.2002V21.0003H6.40039V20.2002H7.20033Z" fill="#45BB3A"/>
<path d="M7.20033 19.4003V20.2002H6.40039V19.4003H7.20033Z" fill="#36B63F"/>
<path d="M7.20035 18.6L7.20033 19.4001H6.40039V18.6H7.20035Z" fill="#2E9E3F"/>
<path d="M7.20035 17.8005V18.6006H6.40039V17.8005H7.20035Z" fill="#267736"/>
<path d="M7.20035 16.9999V17.7998H6.40039L6.40041 16.9999H7.20035Z" fill="#5AC134"/>
<path d="M7.20033 16.2002V17.0003H6.40039V16.2002H7.20033Z" fill="#76CB51"/>
<path d="M7.20033 15.3995V16.1995H6.40039V15.3995H7.20033Z" fill="#5AC134"/>
<path d="M7.20033 14.6002V15.4001H6.40039V14.6002H7.20033Z" fill="#5AC134"/>
<path d="M7.20033 13.8005V14.6006H6.40039V13.8005H7.20033Z" fill="#267736"/>
<path d="M7.20033 12.9997V13.7998H6.40039V12.9997H7.20033Z" fill="#F9D409"/>
<path d="M7.20033 12.2002V13.0003H6.40039V12.2002H7.20033Z" fill="#F9AA0C"/>
<path d="M7.20033 11.4003V12.2002H6.40039V11.4003H7.20033Z" fill="#D9E70C"/>
<path d="M7.20033 10.6V11.4001H6.40039V10.6H7.20033Z" fill="#F9D409"/>
<path d="M7.20033 9.80053V10.6006H6.40039V9.80053H7.20033Z" fill="#F9AA0C"/>
<path d="M7.20033 8.99994V9.7998H6.40039V8.99994H7.20033Z" fill="#D9E70C"/>
<path d="M7.20033 8.20031V9.00037H6.40039V8.20031H7.20033Z" fill="#D9E70C"/>
<path d="M7.20033 7.40014V8.2002H6.40039V7.40014H7.20033Z" fill="#F9D409"/>
<path d="M7.20033 6.60022V7.40009H6.40039V6.60022H7.20033Z" fill="#F9D409"/>
<path d="M7.20033 5.80053V6.60059H6.40039V5.80053H7.20033Z" fill="#211D1D"/>
<path d="M7.20033 4.99975V5.7998H6.40039V4.99975H7.20033Z" fill="#211D1D"/>
<path d="M7.20033 4.20031V5.00037H6.40039V4.20031H7.20033Z" fill="#211D1D"/>
<path d="M6.39955 20.2002V21.0003H5.59961V20.2002H6.39955Z" fill="#211D1D"/>
<path d="M6.39955 19.4003V20.2002H5.59961V19.4003H6.39955Z" fill="#211D1D"/>
<path d="M6.39955 18.6V19.4001H5.59961V18.6H6.39955Z" fill="#267736"/>
<path d="M6.39955 17.8005V18.6006H5.59961V17.8005H6.39955Z" fill="#267736"/>
<path d="M6.39957 16.9999L6.39955 17.7998H5.59961V16.9999H6.39957Z" fill="#5AC134"/>
<path d="M6.39957 16.2002V17.0003H5.59961V16.2002H6.39957Z" fill="#76CB51"/>
<path d="M6.39957 15.3995V16.1995H5.59961V15.3995H6.39957Z" fill="#76CB51"/>
<path d="M6.39957 14.6002V15.4001H5.59961V14.6002H6.39957Z" fill="#5AC134"/>
<path d="M6.39957 13.8005V14.6006H5.59961V13.8005H6.39957Z" fill="#267736"/>
<path d="M6.39957 12.9997V13.7998H5.59961V12.9997H6.39957Z" fill="#F9AA0C"/>
<path d="M6.39957 12.2002V13.0003H5.59961V12.2002H6.39957Z" fill="#D9E70C"/>
<path d="M6.39957 11.4003V12.2002H5.59961V11.4003H6.39957Z" fill="#F9D409"/>
<path d="M6.39957 10.6V11.4001H5.59961V10.6H6.39957Z" fill="#F9D409"/>
<path d="M6.39957 9.80053V10.6006H5.59961V9.80053H6.39957Z" fill="#211D1D"/>
<path d="M6.39957 8.99994V9.7998H5.59961V8.99994H6.39957Z" fill="#211D1D"/>
<path d="M6.39957 8.20031V9.00037H5.59961V8.20031H6.39957Z" fill="#211D1D"/>
<path d="M6.39957 7.40014V8.2002H5.59961V7.40014H6.39957Z" fill="#211D1D"/>
<path d="M6.39957 6.60022V7.40009H5.59961V6.60022H6.39957Z" fill="#211D1D"/>
<path d="M5.59955 18.6V19.4001H4.79944V18.6H5.59955Z" fill="#211D1D"/>
<path d="M5.59955 17.8005V18.6006H4.79944V17.8005H5.59955Z" fill="#267736"/>
<path d="M5.59955 17.0006V17.8005H4.79944V17.0006H5.59955Z" fill="#76CB51"/>
<path d="M5.59955 16.2002V17.0003H4.79944V16.2002H5.59955Z" fill="#76CB51"/>
<path d="M5.59955 15.4001V16.2002H4.79944V15.4001H5.59955Z" fill="#76CB51"/>
<path d="M5.59955 14.6002V15.4001H4.79944V14.6002H5.59955Z" fill="#5AC134"/>
<path d="M5.59955 13.8005V14.6006H4.79944V13.8005H5.59955Z" fill="#5AC134"/>
<path d="M5.59955 12.9997V13.7998H4.79944V12.9997H5.59955Z" fill="#267736"/>
<path d="M5.59955 12.2002V13.0003H4.79944V12.2002H5.59955Z" fill="#211D1D"/>
<path d="M5.59955 11.4003V12.2002H4.79944V11.4003H5.59955Z" fill="#211D1D"/>
<path d="M5.59955 10.6V11.4001H4.79944V10.6H5.59955Z" fill="#211D1D"/>
<path d="M4.79994 18.6V19.4001H4V18.6H4.79994Z" fill="#211D1D"/>
<path d="M4.79994 17.8005V18.6006H4V17.8005H4.79994Z" fill="#267736"/>
<path d="M4.79994 16.9999V17.7998H4V16.9999H4.79994Z" fill="#B1E197"/>
<path d="M4.79994 16.2002V17.0003H4V16.2002H4.79994Z" fill="#76CB51"/>
<path d="M4.79994 15.3995V16.1995H4V15.3995H4.79994Z" fill="#76CB51"/>
<path d="M4.79994 14.6002V15.4001H4V14.6002H4.79994Z" fill="#76CB51"/>
<path d="M4.79994 13.8005V14.6006H4V13.8005H4.79994Z" fill="#5AC134"/>
<path d="M4.79994 12.9997V13.7998H4V12.9997H4.79994Z" fill="#211D1D"/>
<path d="M3.99979 17.8005V18.6006H3.19983V17.8005H3.99979Z" fill="#211D1D"/>
<path d="M3.99979 17.0006V17.8005H3.19983V17.0006H3.99979Z" fill="#B1E197"/>
<path d="M3.99979 16.2002V17.0003H3.19983V16.2002H3.99979Z" fill="#76CB51"/>
<path d="M3.99979 15.4001V16.2002H3.19983V15.4001H3.99979Z" fill="#76CB51"/>
<path d="M3.99979 14.6002V15.4001H3.19983V14.6002H3.99979Z" fill="#76CB51"/>
<path d="M3.99979 13.8005V14.6006H3.19983V13.8005H3.99979Z" fill="#5AC134"/>
<path d="M3.99979 12.9997V13.7998H3.19983L3.19985 12.9997H3.99979Z" fill="#211D1D"/>
<path d="M3.19916 16.9999V17.7998H2.39905V16.9999H3.19916Z" fill="#211D1D"/>
<path d="M3.19916 16.2002V17.0003H2.39905V16.2002H3.19916Z" fill="#B1E197"/>
<path d="M3.19916 15.3995V16.1995H2.39905L2.39907 15.3995H3.19916Z" fill="#76CB51"/>
<path d="M3.19914 14.6002V15.4001H2.39905V14.6002H3.19914Z" fill="#76CB51"/>
<path d="M3.19914 13.8005V14.6006H2.39905V13.8005H3.19914Z" fill="#5AC134"/>
<path d="M3.19916 12.9997L3.19914 13.7998H2.39905V12.9997H3.19916Z" fill="#211D1D"/>
<path d="M2.39955 17.0006V17.8005H1.59961V17.0006H2.39955Z" fill="#211D1D"/>
<path d="M2.39955 16.2002V17.0003H1.59961V16.2002H2.39955Z" fill="#B1E197"/>
<path d="M2.39957 15.4001L2.39955 16.2002H1.59961V15.4001H2.39957Z" fill="#76CB51"/>
<path d="M2.39957 14.6002V15.4001H1.59961V14.6002H2.39957Z" fill="#76CB51"/>
<path d="M2.39957 13.8005V14.6006H1.59961V13.8005H2.39957Z" fill="#5AC134"/>
<path d="M2.39957 12.9997V13.7998H1.59961V12.9997H2.39957Z" fill="#211D1D"/>
<path d="M1.59938 16.2002V17.0003H0.799438V16.2002H1.59938Z" fill="#211D1D"/>
<path d="M1.59938 15.3995V16.1995H0.799438V15.3995H1.59938Z" fill="#B1E197"/>
<path d="M1.59938 14.6002V15.4001H0.799438V14.6002H1.59938Z" fill="#76CB51"/>
<path d="M1.59938 13.8005V14.6006H0.799438V13.8005H1.59938Z" fill="#211D1D"/>
<path d="M0.799959 15.4001V16.2002H0V15.4001H0.799959Z" fill="#211D1D"/>
<path d="M0.799959 14.6002V15.4001H0V14.6002H0.799959Z" fill="#211D1D"/>
<path d="M24.6774 23.0002V2.37518H30.2672C31.7672 2.37518 32.8571 2.74237 33.5367 3.47675C34.2242 4.20331 34.568 5.40643 34.568 7.08612V7.98846C34.568 8.95721 34.3922 9.74237 34.0406 10.3439C33.6969 10.9455 33.1696 11.34 32.4586 11.5275C33.3883 11.7619 34.0094 12.3127 34.3219 13.1799C34.6422 14.0392 34.8024 15.09 34.8024 16.3322C34.8024 17.6682 34.6774 18.8361 34.4274 19.8361C34.1774 20.8361 33.7242 21.6135 33.068 22.1682C32.4117 22.7228 31.4781 23.0002 30.2672 23.0002H24.6774ZM28.7086 10.1447H29.5524C29.9352 10.1447 30.1813 9.99628 30.2906 9.6994C30.4 9.40253 30.4547 9.04706 30.4547 8.633V6.55878C30.4547 5.89471 30.1617 5.56268 29.5758 5.56268H28.7086V10.1447ZM29.1188 19.3674C30.1891 19.3674 30.7242 18.8596 30.7242 17.8439V15.2658C30.7242 14.6799 30.6344 14.2189 30.4547 13.883C30.2828 13.5392 29.9547 13.3674 29.4703 13.3674H28.7086V19.3439C28.8805 19.3596 29.0172 19.3674 29.1188 19.3674ZM36.068 4.34393V0.851746H40.2633V4.34393H36.068ZM36.068 23.0002V5.42206H40.2633V23.0002H36.068ZM45.5367 23.1877C44.4039 23.1877 43.6383 22.9494 43.2399 22.4728C42.8492 21.9885 42.6539 21.2502 42.6539 20.258V9.30096H41.4703V6.10175H42.6539V2.37518H46.7321V6.10175H47.9156V9.30096H46.7321V19.2736C46.7321 19.5627 46.7789 19.7658 46.8727 19.883C46.9664 20.0002 47.1461 20.0588 47.4117 20.0588C47.5992 20.0588 47.7672 20.0432 47.9156 20.0119V22.8713C47.8219 22.9025 47.5289 22.9611 47.0367 23.0471C46.5446 23.1408 46.0446 23.1877 45.5367 23.1877ZM54.5485 23.1877C52.5797 23.1877 51.1813 22.6838 50.3531 21.676C49.5328 20.6682 49.1227 19.1877 49.1227 17.2346V11.8205C49.1227 10.3517 49.2789 9.12909 49.5914 8.15253C49.9039 7.17596 50.4508 6.4455 51.2321 5.96112C52.0133 5.47675 53.0992 5.23456 54.4899 5.23456C55.4586 5.23456 56.3258 5.40643 57.0914 5.75018C57.8649 6.09393 58.4742 6.59784 58.9196 7.2619C59.3649 7.92596 59.5875 8.73846 59.5875 9.6994V12.383H55.3102V9.92206C55.3102 9.51581 55.2516 9.17596 55.1344 8.90253C55.0172 8.62128 54.7633 8.48065 54.3727 8.48065C53.6852 8.48065 53.3414 8.96893 53.3414 9.9455V18.465C53.3414 18.8244 53.4196 19.1564 53.5758 19.4611C53.7321 19.758 53.9899 19.9064 54.3492 19.9064C54.7164 19.9064 54.9703 19.7619 55.111 19.4728C55.2594 19.176 55.3336 18.8322 55.3336 18.4416V15.4885H59.5875V18.5588C59.5875 19.5275 59.3688 20.3596 58.9313 21.0549C58.5016 21.7424 57.9078 22.2697 57.15 22.6369C56.3922 23.0041 55.525 23.1877 54.5485 23.1877ZM66.1617 23.1877C62.6617 23.1877 60.9117 21.3713 60.9117 17.7385V10.6838C60.9117 9.02753 61.3766 7.70721 62.3063 6.72284C63.236 5.73065 64.5211 5.23456 66.1617 5.23456C67.8102 5.23456 69.0992 5.73065 70.0289 6.72284C70.9586 7.70721 71.4235 9.02753 71.4235 10.6838V17.7385C71.4235 21.3713 69.6696 23.1877 66.1617 23.1877ZM66.1617 19.9533C66.5133 19.9533 66.7633 19.8283 66.9117 19.5783C67.068 19.3205 67.1461 18.9963 67.1461 18.6057V10.0158C67.1461 8.99237 66.818 8.48065 66.1617 8.48065C65.5055 8.48065 65.1774 8.99237 65.1774 10.0158V18.6057C65.1774 18.9963 65.2516 19.3205 65.4 19.5783C65.5563 19.8283 65.8102 19.9533 66.1617 19.9533ZM72.9821 23.0002V5.42206H77.2477V7.37909C77.4508 6.6994 77.8102 6.16815 78.3258 5.78534C78.8414 5.40253 79.4899 5.21112 80.2711 5.21112V8.71503C79.9274 8.71503 79.5172 8.75409 79.0406 8.83221C78.5641 8.90253 78.1461 9.00409 77.7867 9.1369C77.4274 9.2619 77.2477 9.40253 77.2477 9.55878V23.0002H72.9821ZM81.3024 23.0002V5.42206H85.4977V7.66034C85.6539 6.98846 85.943 6.41815 86.3649 5.9494C86.7946 5.47284 87.3883 5.23456 88.1461 5.23456C89.3649 5.23456 90.2477 5.60956 90.7946 6.35956C91.3492 7.10956 91.6266 8.1369 91.6266 9.44159V23.0002H87.4899V9.87518C87.4899 9.53143 87.4196 9.21503 87.2789 8.92596C87.1383 8.62909 86.8961 8.48065 86.5524 8.48065C86.2321 8.48065 85.9938 8.59393 85.8375 8.8205C85.6891 9.03925 85.5953 9.31659 85.5563 9.65253C85.5172 9.98065 85.4977 10.3088 85.4977 10.6369V23.0002H81.3024Z" fill="#7A2714"/>
</svg>
