<svg width="37" height="36" viewBox="0 0 37 36" fill="none" xmlns="http://www.w3.org/2000/svg">
<rect x="0.502441" y="-0.00494385" width="35.995" height="36.0099" rx="17.9975" fill="white"/>
<path d="M24.4224 17.6191C24.3748 17.4964 24.3035 17.3843 24.2124 17.2891L19.2124 12.2891C19.1192 12.1959 19.0085 12.1219 18.8867 12.0715C18.7649 12.021 18.6343 11.9951 18.5024 11.9951C18.2361 11.9951 17.9807 12.1008 17.7924 12.2891C17.6992 12.3824 17.6252 12.4931 17.5748 12.6149C17.5243 12.7367 17.4984 12.8673 17.4984 12.9991C17.4984 13.2654 17.6041 13.5208 17.7924 13.7091L21.0924 16.9991H13.5024C13.2372 16.9991 12.9829 17.1045 12.7953 17.292C12.6078 17.4796 12.5024 17.7339 12.5024 17.9991C12.5024 18.2644 12.6078 18.5187 12.7953 18.7063C12.9829 18.8938 13.2372 18.9991 13.5024 18.9991H21.0924L17.7924 22.2891C17.6987 22.3821 17.6243 22.4927 17.5736 22.6146C17.5228 22.7364 17.4966 22.8671 17.4966 22.9991C17.4966 23.1312 17.5228 23.2619 17.5736 23.3837C17.6243 23.5056 17.6987 23.6162 17.7924 23.7091C17.8854 23.8029 17.996 23.8773 18.1179 23.928C18.2397 23.9788 18.3704 24.0049 18.5024 24.0049C18.6345 24.0049 18.7652 23.9788 18.887 23.928C19.0089 23.8773 19.1195 23.8029 19.2124 23.7091L24.2124 18.7091C24.3035 18.614 24.3748 18.5019 24.4224 18.3791C24.5225 18.1357 24.5225 17.8626 24.4224 17.6191Z" fill="#7A2714"/>
</svg>
