<svg width="170" height="89" viewBox="0 0 170 89" fill="none" xmlns="http://www.w3.org/2000/svg">
<path opacity="0.7" d="M141.437 23.2263C136.32 9.66518 123.258 0 107.907 0C93.7219 0 81.4972 8.25312 75.6751 20.198C69.4767 21.0392 63.889 23.7613 59.4845 27.782C55.4827 24.8766 50.5717 23.1431 45.2466 23.1431C31.8235 23.1431 20.9466 34.0219 20.9466 47.4413C20.9466 47.515 20.9561 47.5868 20.9579 47.6606C20.0789 47.532 19.1867 47.4413 18.2718 47.4413C8.18129 47.4413 0 55.6226 0 65.715C0 72.2933 3.48952 78.0436 8.70491 81.2628C11.2739 84.2495 16.9599 86.3308 23.5798 86.3308C28.7366 86.3308 33.3282 85.0662 36.3243 83.0965C41.018 86.6578 48.8174 88.9942 57.6603 88.9942C66.4465 88.9942 74.1987 86.6843 78.8999 83.1588C81.898 85.0945 86.4537 86.3308 91.5594 86.3308C96.5971 86.3308 101.1 85.1248 104.098 83.2326C109.729 86.7164 118.929 88.9942 129.351 88.9942C133.065 88.9942 136.611 88.6899 139.914 88.1625H139.917C156.531 88.1625 170 73.6089 170 55.6528C170.002 38.2524 157.342 24.0883 141.437 23.2263Z" fill="white"/>
</svg>
