<svg width="115" height="70" viewBox="0 0 115 70" fill="none" xmlns="http://www.w3.org/2000/svg">
<path opacity="0.7" d="M92.6539 18.1712C88.6505 7.56158 78.4314 0 66.4213 0C55.3236 0 45.7596 6.45685 41.2046 15.802C36.3553 16.4601 31.9837 18.5897 28.5379 21.7353C25.4071 19.4623 21.5649 18.1061 17.3988 18.1061C6.8972 18.1061 -1.61237 26.6172 -1.61237 37.1158C-1.61237 37.1735 -1.60497 37.2297 -1.60349 37.2874C-2.29118 37.1868 -2.98921 37.1158 -3.705 37.1158C-11.5993 37.1158 -18 43.5165 -18 51.4123C-18 56.5589 -15.27 61.0577 -11.1897 63.5762C-9.17987 65.9129 -4.73135 67.5412 0.447739 67.5412C4.48216 67.5412 8.0744 66.5518 10.4185 65.0108C14.0905 67.797 20.1925 69.6249 27.1107 69.6249C33.9846 69.6249 40.0496 67.8177 43.7276 65.0596C46.0731 66.574 49.6373 67.5412 53.6318 67.5412C57.573 67.5412 61.0958 66.5976 63.4413 65.1172C67.8469 67.8428 75.0447 69.6249 83.1979 69.6249C86.1039 69.6249 88.8783 69.3868 91.4619 68.9742H91.4649C104.463 68.9742 115 57.5882 115 43.5402C115.001 29.9269 105.097 18.8456 92.6539 18.1712Z" fill="white"/>
</svg>
