<svg width="184" height="73" viewBox="0 0 184 73" fill="none" xmlns="http://www.w3.org/2000/svg">
<path d="M30.3157 26.1048C29.7705 26.5623 28.9575 26.4907 28.5002 25.9458L27.5682 24.835C27.1107 24.2898 27.1815 23.477 27.7268 23.0195L28.0972 22.7086C28.6422 22.2514 29.4555 22.3223 29.913 22.8675L30.845 23.9783C31.3023 24.5232 31.2311 25.3367 30.6862 25.794L30.3157 26.1048Z" fill="#7A2714"/>
<path d="M33.2636 29.6167C32.7183 30.0742 31.9056 30.0028 31.4481 29.4576L30.516 28.3468C30.0583 27.8013 30.1294 26.9888 30.6746 26.5313L31.0451 26.2205C31.59 25.7632 32.4031 25.8338 32.8608 26.3793L33.7929 27.4901C34.2504 28.0354 34.179 28.8485 33.634 29.3058L33.2636 29.6167Z" fill="#7A2714"/>
<path d="M36.2162 33.1366C35.671 33.5941 34.8583 33.5228 34.4008 32.9776L33.469 31.8671C33.0114 31.3218 33.0821 30.5088 33.6273 30.0513L33.9978 29.7404C34.5427 29.2831 35.3562 29.3543 35.8137 29.8996L36.7455 31.0101C37.2031 31.5553 37.1316 32.3685 36.5867 32.8258L36.2162 33.1366Z" fill="#7A2714"/>
<path d="M39.1401 36.6214C38.5948 37.0789 37.7823 37.0078 37.3248 36.4626L36.3928 35.3518C35.9353 34.8066 36.0059 33.9935 36.5511 33.536L36.9216 33.2252C37.4666 32.7679 38.28 32.8391 38.7376 33.3843L39.6696 34.4951C40.1271 35.0403 40.0555 35.8532 39.5105 36.3105L39.1401 36.6214Z" fill="#7A2714"/>
<path d="M30.5479 31.8973C30.0026 32.3549 29.1897 32.2837 28.7321 31.7385L27.8001 30.6277C27.3423 30.0822 27.4137 29.2695 27.9589 28.812L28.3291 28.5014C28.8743 28.0439 29.6874 28.1145 30.1451 28.66L31.0772 29.7708C31.5347 30.316 31.4633 31.1292 30.918 31.5867L30.5479 31.8973Z" fill="#7A2714"/>
<path d="M33.5027 35.4135C32.9575 35.871 32.1445 35.7999 31.687 35.2546L30.7552 34.1441C30.2977 33.5989 30.3686 32.7856 30.9138 32.3281L31.284 32.0175C31.8292 31.56 32.6427 31.6312 33.1002 32.1764L34.032 33.2869C34.4896 33.8321 34.4181 34.6453 33.8729 35.1029L33.5027 35.4135Z" fill="#7A2714"/>
<path d="M27.772 34.2294C27.2265 34.6872 26.4135 34.6161 25.956 34.0708L25.0239 32.96C24.5662 32.4145 24.6375 31.6018 25.1831 31.1441L25.553 30.8337C26.0985 30.376 26.9112 30.4468 27.369 30.9923L28.301 32.1031C28.7585 32.6483 28.6874 33.4613 28.1419 33.919L27.772 34.2294Z" fill="#7A2714"/>
<path d="M41.28 17.5379C40.789 17.95 40.0573 17.886 39.6457 17.3955L38.8071 16.3961C38.395 15.905 38.4588 15.1731 38.9499 14.761L39.2828 14.4817C39.7737 14.0698 40.5055 14.1341 40.9176 14.6252L41.7562 15.6246C42.1678 16.1152 42.1038 16.8467 41.6129 17.2586L41.28 17.5379Z" fill="#7A2714"/>
<path d="M43.9332 20.6978C43.4421 21.1098 42.7105 21.0458 42.2989 20.5553L41.4601 19.5556C41.048 19.0645 41.112 18.3329 41.6031 17.9208L41.936 17.6414C42.4269 17.2296 43.1584 17.2936 43.5705 17.7847L44.4094 18.7844C44.821 19.2749 44.757 20.0065 44.2662 20.4184L43.9332 20.6978Z" fill="#7A2714"/>
<path d="M46.591 23.8675C46.0999 24.2795 45.368 24.2153 44.9567 23.725L44.1178 22.7253C43.706 22.2345 43.77 21.5029 44.2611 21.0908L44.5941 20.8114C45.0849 20.3996 45.8165 20.4636 46.2283 20.9544L47.0672 21.9541C47.4785 22.4444 47.4147 23.1762 46.9239 23.5881L46.591 23.8675Z" fill="#7A2714"/>
<path d="M49.224 27.0043C48.733 27.4164 48.0016 27.3527 47.5895 26.8616L46.7509 25.8622C46.339 25.3714 46.403 24.6398 46.8942 24.2277L47.2271 23.9483C47.7179 23.5365 48.4495 23.6005 48.8614 24.0913L49.7 25.0907C50.112 25.5818 50.0478 26.3131 49.557 26.725L49.224 27.0043Z" fill="#7A2714"/>
<path d="M43.8539 15.6578C43.3876 16.0491 42.6926 15.9886 42.3011 15.522L41.5046 14.5728C41.1133 14.1065 41.1739 13.4109 41.6402 13.0196L41.9565 12.7542C42.4231 12.3627 43.1181 12.4243 43.5093 12.8906L44.3058 13.8398C44.6973 14.3064 44.6368 15.0009 44.1702 15.3925L43.8539 15.6578Z" fill="#7A2714"/>
<path d="M46.3756 18.6621C45.9092 19.0534 45.2145 18.9931 44.8232 18.5268L44.0262 17.577C43.6349 17.1107 43.6957 16.4155 44.162 16.0242L44.4784 15.7587C44.9449 15.3672 45.6397 15.4285 46.031 15.8949L46.8279 16.8447C47.2192 17.3109 47.1585 18.0052 46.6919 18.3967L46.3756 18.6621Z" fill="#7A2714"/>
<path d="M48.9031 21.6752C48.4368 22.0665 47.7415 22.0056 47.3505 21.5396L46.5535 20.5898C46.1623 20.1235 46.2231 19.4283 46.6894 19.037L47.0057 18.7716C47.4723 18.3801 48.167 18.4414 48.5583 18.9077L49.3553 19.8574C49.7463 20.3235 49.6861 21.0183 49.2195 21.4098L48.9031 21.6752Z" fill="#7A2714"/>
<path d="M51.4014 24.6516C50.9351 25.0429 50.2398 24.982 49.8485 24.5157L49.0518 23.5662C48.6603 23.0996 48.7216 22.4049 49.1879 22.0136L49.5042 21.7482C49.9708 21.3567 50.6651 21.4174 51.0566 21.884L51.8533 22.8335C52.2445 23.2998 52.1843 23.9946 51.7177 24.3861L51.4014 24.6516Z" fill="#7A2714"/>
<path d="M46.3398 13.8396C45.8966 14.2115 45.2368 14.154 44.8652 13.7112L44.1077 12.8084C43.7365 12.3661 43.7938 11.7055 44.237 11.3336L44.5376 11.0814C44.9804 10.7098 45.6412 10.7678 46.0124 11.2101L46.7699 12.1129C47.1415 12.5558 47.0833 13.2157 46.6403 13.5874L46.3398 13.8396Z" fill="#7A2714"/>
<path d="M48.7376 16.6984C48.2944 17.0703 47.6343 17.0125 47.2627 16.5697L46.5057 15.6676C46.1341 15.2246 46.1916 14.5643 46.6348 14.1924L46.9353 13.9403C47.3782 13.5686 48.0388 13.6264 48.4104 14.0694L49.1674 14.9715C49.539 15.4144 49.481 16.0746 49.0381 16.4463L48.7376 16.6984Z" fill="#7A2714"/>
<path d="M51.1365 19.5583C50.6933 19.9302 50.033 19.8722 49.6616 19.4296L48.9046 18.5274C48.533 18.0845 48.5905 17.4242 49.0337 17.0523L49.3343 16.8001C49.7772 16.4285 50.4377 16.4863 50.8093 16.9292L51.5663 17.8313C51.9377 18.274 51.8799 18.9345 51.4371 19.3061L51.1365 19.5583Z" fill="#7A2714"/>
<path d="M53.5112 22.3883C53.068 22.7602 52.4075 22.7019 52.0358 22.259L51.2793 21.3574C50.9072 20.914 50.9652 20.2542 51.4084 19.8823L51.709 19.6301C52.1518 19.2585 52.8119 19.3157 53.184 19.7592L53.9405 20.6608C54.3122 21.1036 54.2546 21.7645 53.8117 22.1361L53.5112 22.3883Z" fill="#7A2714"/>
<path d="M48.7855 12.294C48.3858 12.6294 47.7905 12.5779 47.4548 12.1778L46.7714 11.3633C46.4362 10.9639 46.4881 10.3679 46.8878 10.0324L47.1593 9.8046C47.5591 9.46916 48.1551 9.52154 48.4903 9.92101L49.1737 10.7355C49.5094 11.1355 49.4568 11.7307 49.057 12.0662L48.7855 12.294Z" fill="#7A2714"/>
<path d="M50.9452 14.8776C50.5454 15.2131 49.9494 15.1606 49.6142 14.7611L48.931 13.9469C48.5956 13.5472 48.6475 12.9512 49.0472 12.6157L49.3187 12.3879C49.7185 12.0525 50.3145 12.1049 50.6499 12.5046L51.3331 13.3188C51.6684 13.7183 51.6164 14.3144 51.2167 14.6498L50.9452 14.8776Z" fill="#7A2714"/>
<path d="M53.1112 17.4504C52.7115 17.7858 52.1155 17.7335 51.7808 17.3346L51.0973 16.5201C50.7619 16.1203 50.8137 15.5242 51.2135 15.1888L51.485 14.961C51.8847 14.6256 52.4807 14.6779 52.8162 15.0777L53.4997 15.8922C53.8344 16.2911 53.7825 16.8871 53.3827 17.2226L53.1112 17.4504Z" fill="#7A2714"/>
<path d="M55.2521 20.0073C54.8524 20.3427 54.2567 20.2906 53.921 19.8906L53.238 19.0767C52.9024 18.6766 52.9549 18.0815 53.3547 17.746L53.6262 17.5182C54.0259 17.1828 54.6213 17.2343 54.9569 17.6343L55.6399 18.4482C55.9755 18.8483 55.9234 19.444 55.5236 19.7795L55.2521 20.0073Z" fill="#7A2714"/>
<path d="M51.0137 10.8763C50.6528 11.1791 50.1153 11.1323 49.8126 10.7714L49.1959 10.0365C48.8933 9.67592 48.9403 9.13824 49.3012 8.83542L49.5462 8.62984C49.9068 8.32726 50.4444 8.3743 50.747 8.73489L51.3637 9.46986C51.6665 9.83071 51.6193 10.3681 51.2587 10.6707L51.0137 10.8763Z" fill="#7A2714"/>
<path d="M52.9681 13.2065C52.6072 13.5093 52.0696 13.4623 51.767 13.1017L51.1503 12.3667C50.8475 12.0059 50.8943 11.4679 51.2551 11.1651L51.5001 10.9595C51.8607 10.657 52.3986 10.7043 52.7014 11.0652L53.3181 11.8001C53.6207 12.1607 53.5736 12.6984 53.213 13.0009L52.9681 13.2065Z" fill="#7A2714"/>
<path d="M54.9167 15.5256C54.5559 15.8284 54.018 15.781 53.7156 15.4208L53.0989 14.6858C52.7964 14.3252 52.8434 13.7876 53.2043 13.4848L53.4493 13.2792C53.8099 12.9766 54.3475 13.0237 54.6501 13.3842L55.2668 14.1192C55.5691 14.4795 55.5223 15.0174 55.1617 15.32L54.9167 15.5256Z" fill="#7A2714"/>
<path d="M56.8538 17.8351C56.493 18.1378 55.9553 18.0908 55.6527 17.7303L55.036 16.9953C54.7332 16.6344 54.7805 16.097 55.1413 15.7942L55.3863 15.5887C55.7469 15.2861 56.2844 15.3329 56.5872 15.6937L57.2039 16.4287C57.5065 16.7893 57.4594 17.3269 57.0988 17.6295L56.8538 17.8351Z" fill="#7A2714"/>
<path d="M53.0637 9.57911C52.7389 9.85164 52.2559 9.80962 51.9829 9.48428L51.428 8.82289C51.1557 8.49836 51.1977 8.0149 51.5225 7.74238L51.743 7.55738C52.0675 7.28511 52.5515 7.32718 52.8238 7.65171L53.3787 8.3131C53.6517 8.63844 53.6087 9.12184 53.2842 9.39412L53.0637 9.57911Z" fill="#7A2714"/>
<path d="M54.8187 11.6674C54.4939 11.94 54.0101 11.8969 53.7378 11.5724L53.183 10.9113C52.9103 10.5862 52.9523 10.1027 53.2771 9.8302L53.4975 9.64521C53.822 9.37293 54.306 9.415 54.5788 9.74008L55.1335 10.4012C55.4058 10.7257 55.3637 11.2102 55.0392 11.4825L54.8187 11.6674Z" fill="#7A2714"/>
<path d="M56.5775 13.7656C56.2527 14.0381 55.7688 13.9949 55.4962 13.6702L54.9415 13.0091C54.6692 12.6846 54.711 12.2009 55.0358 11.9283L55.2563 11.7433C55.5808 11.4711 56.065 11.5134 56.3373 11.8379L56.892 12.499C57.1645 12.8238 57.1224 13.3083 56.7979 13.5806L56.5775 13.7656Z" fill="#7A2714"/>
<path d="M55.4994 8.92872C55.1746 9.20125 54.6911 9.15969 54.4184 8.83469L53.8631 8.173C53.5911 7.84877 53.6334 7.36451 53.9582 7.09199L54.1784 6.90724C54.5032 6.63472 54.9874 6.67708 55.2595 7.00132L55.8147 7.66301C56.0875 7.98805 56.0444 8.47145 55.7196 8.74398L55.4994 8.92872Z" fill="#7A2714"/>
<path d="M57.2585 11.0273C56.9337 11.2998 56.4495 11.2574 56.1774 10.9332L55.6224 10.2718C55.3496 9.9467 55.3923 9.46275 55.7171 9.19022L55.9372 9.00548C56.262 8.73295 56.746 8.77506 57.0188 9.1001L57.5738 9.7615C57.8458 10.0857 57.8035 10.57 57.4787 10.8425L57.2585 11.0273Z" fill="#7A2714"/>
<path d="M59.0175 13.1205C58.6927 13.393 58.2085 13.3507 57.9361 13.0261L57.3809 12.3644C57.1089 12.0402 57.1513 11.556 57.4761 11.2835L57.6962 11.0987C58.021 10.8262 58.5053 10.8686 58.7773 11.1927L59.3325 11.8544C59.6048 12.179 59.5625 12.6632 59.2377 12.9357L59.0175 13.1205Z" fill="#7A2714"/>
<path d="M58.2209 8.69032C57.9124 8.94915 57.4526 8.90891 57.194 8.60076L56.6665 7.97207C56.4074 7.66336 56.4482 7.20406 56.7566 6.94524L56.9658 6.7697C57.2742 6.51091 57.7339 6.55034 57.9929 6.85901L58.5204 7.4877C58.779 7.79586 58.7385 8.256 58.4301 8.51475L58.2209 8.69032Z" fill="#7A2714"/>
<path d="M59.8873 10.6753C59.5789 10.9341 59.119 10.8939 58.8605 10.5857L58.3332 9.95736C58.0746 9.6492 58.1146 9.18905 58.423 8.93023L58.6322 8.75469C58.9406 8.4959 59.401 8.53618 59.6596 8.84434L60.1869 9.47273C60.4455 9.78089 60.4049 10.241 60.0965 10.4998L59.8873 10.6753Z" fill="#7A2714"/>
<path d="M58.3192 15.8412C57.9944 16.1137 57.5105 16.0705 57.2385 15.7463L56.6835 15.0849C56.4108 14.7599 56.4533 14.277 56.778 14.0044L56.9985 13.8194C57.323 13.5472 57.8065 13.5887 58.0793 13.9137L58.6343 14.5751C58.9063 14.8993 58.8642 15.3839 58.5397 15.6561L58.3192 15.8412Z" fill="#7A2714"/>
<path d="M38.586 19.4777C38.0678 19.9125 37.2958 19.8449 36.8612 19.327L35.9756 18.2715C35.5412 17.7539 35.6083 16.9813 36.1265 16.5465L36.4781 16.2515C36.996 15.817 37.769 15.8846 38.2033 16.4022L39.089 17.4577C39.5236 17.9756 39.4555 18.7481 38.9376 19.1827L38.586 19.4777Z" fill="#7A2714"/>
<path d="M41.3857 22.8229C40.8675 23.2577 40.095 23.1896 39.6604 22.6717L38.7752 21.6167C38.3406 21.0988 38.408 20.3265 38.9261 19.8917L39.2777 19.5967C39.7956 19.1622 40.5684 19.2295 41.003 19.7474L41.8882 20.8023C42.3227 21.3202 42.2552 22.0933 41.7372 22.5278L41.3857 22.8229Z" fill="#7A2714"/>
<path d="M44.1918 26.1595C43.6736 26.5943 42.9016 26.5268 42.4668 26.0086L41.5814 24.9534C41.1468 24.4355 41.2141 23.6632 41.7323 23.2284L42.0839 22.9334C42.6018 22.4988 43.3746 22.5662 43.8091 23.084L44.6946 24.1393C45.1294 24.6575 45.0613 25.43 44.5434 25.8645L44.1918 26.1595Z" fill="#7A2714"/>
<path d="M46.9699 29.4758C46.4517 29.9106 45.6797 29.843 45.2449 29.3248L44.3595 28.2696C43.9249 27.7517 43.9922 26.9794 44.5104 26.5446L44.8619 26.2496C45.3798 25.815 46.1526 25.8824 46.5872 26.4003L47.4727 27.4555C47.9075 27.9737 47.8394 28.7462 47.3215 29.1807L46.9699 29.4758Z" fill="#7A2714"/>
<path d="M35.8131 21.6181C35.2786 22.0666 34.4817 21.9969 34.0334 21.4626L33.1201 20.3741C32.6718 19.8399 32.7415 19.043 33.276 18.5945L33.6386 18.2902C34.173 17.8417 34.9697 17.9117 35.418 18.446L36.3313 19.5345C36.7796 20.0687 36.7102 20.8654 36.1757 21.3139L35.8131 21.6181Z" fill="#7A2714"/>
<path d="M38.7005 25.0668C38.1659 25.5153 37.3688 25.4453 36.9208 24.9113L36.0071 23.8225C35.5589 23.2883 35.6288 22.4917 36.1633 22.0431L36.5259 21.7389C37.0604 21.2904 37.8568 21.3601 38.3051 21.8943L39.2187 22.9831C39.6667 23.5171 39.5975 24.3141 39.063 24.7626L38.7005 25.0668Z" fill="#7A2714"/>
<path d="M41.5935 28.5101C41.059 28.9586 40.2616 28.8883 39.8136 28.3544L38.9 27.2656C38.4517 26.7313 38.5216 25.9347 39.0562 25.4862L39.4187 25.182C39.9532 24.7335 40.7496 24.8032 41.1979 25.3374L42.1115 26.4262C42.5595 26.9602 42.4906 27.7574 41.9561 28.2059L41.5935 28.5101Z" fill="#7A2714"/>
<path d="M44.4652 31.9292C43.9306 32.3777 43.1335 32.3077 42.6852 31.7734L41.7721 30.6852C41.3234 30.1504 41.3935 29.3541 41.928 28.9056L42.2906 28.6013C42.8251 28.1528 43.6213 28.2223 44.07 28.7571L44.9831 29.8453C45.4314 30.3795 45.3622 31.1765 44.8277 31.625L44.4652 31.9292Z" fill="#7A2714"/>
<path d="M33.0296 23.8241C32.4843 24.2816 31.6714 24.2099 31.2141 23.665L30.2821 22.5542C29.8246 22.009 29.8954 21.1962 30.4406 20.7387L30.8108 20.4281C31.3563 19.9704 32.1693 20.0415 32.6269 20.5868L33.5589 21.6975C34.0161 22.2424 33.9452 23.0557 33.3997 23.5135L33.0296 23.8241Z" fill="#7A2714"/>
<path d="M35.983 27.3394C35.4378 27.797 34.6251 27.7256 34.1676 27.1804L33.2355 26.0696C32.7778 25.5241 32.8489 24.7116 33.3941 24.2541L33.7643 23.9435C34.3098 23.4857 35.1226 23.5566 35.5803 24.1021L36.5123 25.2129C36.9699 25.7581 36.8987 26.5711 36.3532 27.0288L35.983 27.3394Z" fill="#7A2714"/>
<path d="M38.9296 30.8598C38.3843 31.3173 37.5717 31.246 37.1141 30.7008L36.1823 29.5903C35.7248 29.045 35.7954 28.232 36.3407 27.7745L36.7108 27.4639C37.2564 27.0061 38.0696 27.0775 38.5271 27.6228L39.4589 28.7333C39.9164 29.2785 39.8453 30.0915 39.2998 30.5492L38.9296 30.8598Z" fill="#7A2714"/>
<path d="M41.8556 34.3447C41.3104 34.8023 40.4979 34.7312 40.0404 34.1859L39.1084 33.0752C38.6508 32.5299 38.7215 31.7169 39.2667 31.2594L39.6369 30.9488C40.1824 30.4911 40.9956 30.5624 41.4531 31.1077L42.3851 32.2184C42.8426 32.7637 42.7713 33.5764 42.2258 34.0341L41.8556 34.3447Z" fill="#7A2714"/>
<path d="M33.6793 37.6289L34.3239 38.3971C35.0021 38.5017 35.8121 38.5622 36.8065 38.5787C37.3426 38.1197 37.411 37.3138 36.9564 36.7719L36.0243 35.6611C35.5668 35.1159 34.7533 35.0447 34.2081 35.5022L33.8379 35.8128C33.2926 36.2704 33.2218 37.0836 33.6793 37.6289Z" fill="#7A2714"/>
<path d="M33.4348 38.2161L33.2463 37.9914C32.9111 37.5919 32.3852 37.448 31.9133 37.579C32.3383 37.8447 32.8242 38.0565 33.4348 38.2161Z" fill="#7A2714"/>
<path d="M30.4261 36.2845C30.734 36.6122 31.0255 36.9038 31.3352 37.1603C31.6459 36.696 31.6288 36.0652 31.2517 35.6159L30.3199 34.5054C29.8623 33.9601 29.0491 33.8888 28.5036 34.3465L28.1337 34.6569C27.9345 34.824 27.7994 35.0387 27.7294 35.2702C29.1543 35.4372 30.0164 35.8485 30.4261 36.2845Z" fill="#7A2714"/>
<path d="M22.3113 35.2379L23.1452 36.2316C23.9137 35.6524 24.5679 35.2776 25.0033 35.2456C25.313 35.2228 25.608 35.2086 25.8897 35.2015C25.888 34.9116 25.7891 34.6206 25.5882 34.3812L24.6562 33.2704C24.1984 32.7249 23.3859 32.6538 22.8404 33.1115L22.47 33.4224C21.9249 33.8796 21.8536 34.6924 22.3113 35.2379Z" fill="#7A2714"/>
<path d="M19.4909 37.5979L20.3769 38.6538C21.1618 37.8972 21.9446 37.185 22.6558 36.6084L21.8353 35.6306C21.3776 35.0851 20.5651 35.0141 20.0196 35.4718L19.6497 35.7822C19.1042 36.2399 19.0331 37.0524 19.4909 37.5979Z" fill="#7A2714"/>
<path d="M16.7845 39.8864L17.7077 40.9866C17.7639 41.0536 17.8257 41.1134 17.8916 41.166C18.5577 40.4655 19.2895 39.7149 20.0292 38.9908L19.1206 37.908C18.8163 37.5454 18.3552 37.394 17.92 37.4667C17.5427 38.2202 17.1634 39.0248 16.7845 39.8864Z" fill="#7A2714"/>
<path d="M15.3306 43.5001C15.4177 43.5597 15.511 43.6071 15.6082 43.6421C16.0429 43.1575 16.7021 42.4318 17.4795 41.6053C17.4391 41.5283 17.3904 41.4543 17.3322 41.385L16.5443 40.4459C16.1376 41.3971 15.7321 42.4141 15.3306 43.5001Z" fill="#7A2714"/>
<path d="M18.9316 35.5619C19.058 35.5122 19.179 35.4426 19.2889 35.3504L19.6588 35.04C20.0683 34.6964 20.2102 34.1525 20.062 33.6721C19.6913 34.252 19.3135 34.8818 18.9316 35.5619Z" fill="#7A2714"/>
<path d="M20.4943 33.0195C20.9633 33.3823 21.6374 33.384 22.1101 32.9874L22.4806 32.6766C23.0261 32.2189 23.0967 31.4059 22.6394 30.8609L22.3623 30.5307C21.7752 31.2244 21.1476 32.0473 20.4943 33.0195Z" fill="#7A2714"/>
<path d="M22.6765 30.164L23.0035 30.5536C23.4608 31.0986 24.274 31.17 24.8195 30.7122L25.1894 30.4019C25.7349 29.9441 25.8058 29.1308 25.3486 28.5859L24.886 28.0346C24.2778 28.5165 23.5249 29.2034 22.6765 30.164Z" fill="#7A2714"/>
<path d="M26.4957 27.0004C26.4957 27.0004 26.0663 27.17 25.3369 27.6931L25.7809 28.2223C26.2382 28.7673 27.0514 28.8387 27.5967 28.3812L27.9668 28.0706C28.5121 27.6131 28.5832 26.7996 28.126 26.2546L27.1939 25.1439C26.7364 24.5986 25.9231 24.5277 25.3779 24.9852L25.0077 25.2958C24.9929 25.3083 24.9798 25.322 24.9656 25.335C25.3949 25.8253 25.91 26.3928 26.4957 27.0004Z" fill="#7A2714"/>
<path d="M38.9446 50.8444C37.9634 43.9565 38.6709 44.391 38.8001 42.9114C38.9295 41.4322 38.4 38.9633 34.1985 39.0615C34.0896 39.064 33.9863 39.0622 33.8841 39.0595C33.8837 39.0619 33.8833 39.0641 33.8829 39.0664C33.0296 38.9171 32.3664 38.7174 31.8544 38.5032C30.1779 37.4697 29.8225 35.397 25.8176 35.8124C25.8176 35.8124 28.6266 36.7106 28.9426 40.5579C29.2587 44.406 30.3751 46.5541 31.8293 49.1036C33.2833 51.6534 35.5647 55.3942 33.5767 58.9475C33.5767 58.9475 39.9261 57.7321 38.9446 50.8444Z" fill="#7A2714"/>
<path d="M28.1721 40.6366C27.9448 37.9145 25.9482 35.3604 23.3822 36.9995C20.8165 38.6388 18.4427 42.3444 13.2978 46.8325C8.15294 51.3206 5.0993 47.8858 5.0993 47.8858C8.68514 64.4128 29.6708 46.8198 29.6708 46.8198C29.6708 46.8198 28.3995 43.3586 28.1721 40.6366Z" fill="#7A2714"/>
<path d="M13.9006 45.2984C13.9006 45.2984 15.4829 41.0574 18.1035 35.6027C20.7235 30.1484 25.4014 26.7372 25.4014 26.7372C25.4014 26.7372 21.7605 23.6228 21.3963 20.33C21.3963 20.33 21.3052 18.1787 13.6395 22.7263C5.97361 27.2736 3.03987 24.5943 3.03987 24.5943C3.03987 24.5943 3.86552 30.071 8.43727 30.0052C13.0085 29.9394 16.0774 27.8778 18.2445 27.6016C18.2445 27.6016 2.68611 39.2855 4.65727 45.5142C4.65727 45.5142 6.86479 52.2302 13.9006 45.2984Z" fill="#7A2714"/>
<path d="M4.5314 49.5009C4.5314 49.5009 5.30703 53.4122 9.22156 55.3972L6.95912 57.2957L2.08621 51.4884L4.5314 49.5009Z" fill="#7A2714"/>
<path d="M25.8762 24.119L26.7147 23.4749C26.8466 23.1459 27.0584 22.8438 27.3484 22.6005L27.7186 22.2898C28.0718 21.9934 28.4908 21.8265 28.9182 21.7821L29.3438 21.4552C29.4576 21.0269 29.6989 20.6282 30.0634 20.3223L30.4337 20.0116C30.8602 19.6537 31.3825 19.4838 31.8998 19.4917L32.1958 19.2642C32.3117 18.8534 32.5456 18.4715 32.8966 18.1771L33.2592 17.8727C33.6721 17.5264 34.1757 17.358 34.6766 17.3586L35.1169 17.0203C35.2438 16.6861 35.4544 16.3786 35.7472 16.1329L36.0989 15.8378C36.3533 15.6244 36.6428 15.4798 36.9446 15.4015C36.6931 12.8744 38.2135 11.7848 39.2642 9.50048C40.3417 7.15699 39.7489 3.95082 39.7489 3.95082C39.7489 3.95082 38.5229 6.68073 32.7807 12.836C28.0849 17.87 25.9276 23.1401 25.5055 24.2508C25.626 24.1955 25.75 24.1515 25.8762 24.119Z" fill="#7A2714"/>
<path d="M45.907 31.3351C45.7905 31.6601 45.5912 31.9599 45.3083 32.1973L44.9457 32.5015C44.6729 32.7304 44.3569 32.874 44.0298 32.9359L43.3789 33.5349C43.2789 33.9407 43.0545 34.3195 42.7105 34.6081L42.3403 34.9187C42.0589 35.1549 41.7318 35.3012 41.3938 35.3621L40.5557 36.1334C40.434 36.416 40.247 36.6753 39.9956 36.8862L39.6252 37.197C39.4393 37.3531 39.2334 37.4699 39.0177 37.5491L37.9829 38.5016C48.946 31.5181 52.9874 31.6666 52.9874 31.6666C49.8232 29.4883 47.0082 30.6889 45.907 31.3351Z" fill="#7A2714"/>
<path d="M91.9053 31.4932C91.3601 31.9507 90.5471 31.8791 90.0898 31.3341L89.1578 30.2234C88.7003 29.6781 88.7711 28.8654 89.3164 28.4078L89.6868 28.097C90.2318 27.6397 91.0451 27.7106 91.5026 28.2559L92.4346 29.3666C92.8919 29.9116 92.8207 30.7251 92.2758 31.1823L91.9053 31.4932Z" fill="#7A2714"/>
<path d="M94.8532 35.005C94.3079 35.4626 93.4952 35.3912 93.0377 34.846L92.1056 33.7352C91.6479 33.1897 91.719 32.3772 92.2642 31.9197L92.6347 31.6088C93.1796 31.1516 93.9927 31.2222 94.4504 31.7677L95.3825 32.8785C95.84 33.4237 95.7686 34.2369 95.2236 34.6942L94.8532 35.005Z" fill="#7A2714"/>
<path d="M97.8058 38.525C97.2606 38.9825 96.4479 38.9112 95.9904 38.3659L95.0586 37.2554C94.601 36.7102 94.6717 35.8972 95.2169 35.4396L95.5874 35.1288C96.1323 34.6715 96.9458 34.7427 97.4033 35.2879L98.3351 36.3984C98.7927 36.9437 98.7212 37.7569 98.1763 38.2141L97.8058 38.525Z" fill="#7A2714"/>
<path d="M100.73 42.0097C100.184 42.4673 99.3719 42.3962 98.9144 41.8509L97.9824 40.7402C97.5249 40.1949 97.5955 39.3819 98.1407 38.9244L98.5112 38.6135C99.0562 38.1563 99.8696 38.2274 100.327 38.7727L101.259 39.8834C101.717 40.4287 101.645 41.2416 101.1 41.6989L100.73 42.0097Z" fill="#7A2714"/>
<path d="M92.1375 37.2857C91.5922 37.7432 90.7793 37.6721 90.3217 37.1269L89.3897 36.0161C88.9319 35.4706 89.0033 34.6579 89.5485 34.2004L89.9187 33.8898C90.4639 33.4322 91.277 33.5029 91.7347 34.0484L92.6668 35.1591C93.1243 35.7044 93.0529 36.5176 92.5076 36.9751L92.1375 37.2857Z" fill="#7A2714"/>
<path d="M95.0923 40.8018C94.5471 41.2593 93.7341 41.1882 93.2766 40.643L92.3448 39.5325C91.8873 38.9872 91.9582 38.174 92.5034 37.7165L92.8736 37.4059C93.4188 36.9483 94.2323 37.0195 94.6898 37.5648L95.6216 38.6753C96.0792 39.2205 96.0077 40.0337 95.4625 40.4912L95.0923 40.8018Z" fill="#7A2714"/>
<path d="M89.3616 39.6178C88.8161 40.0755 88.0031 40.0044 87.5456 39.4592L86.6135 38.3484C86.1558 37.8029 86.2271 36.9902 86.7727 36.5324L87.1426 36.2221C87.6881 35.7643 88.5008 35.8352 88.9586 36.3807L89.8906 37.4914C90.3481 38.0367 90.277 38.8497 89.7315 39.3074L89.3616 39.6178Z" fill="#7A2714"/>
<path d="M102.87 22.9263C102.379 23.3384 101.647 23.2744 101.235 22.7839L100.397 21.7845C99.9846 21.2934 100.048 20.5615 100.539 20.1494L100.872 19.87C101.363 19.4582 102.095 19.5225 102.507 20.0136L103.346 21.013C103.757 21.5035 103.693 22.2351 103.203 22.6469L102.87 22.9263Z" fill="#7A2714"/>
<path d="M105.523 26.0861C105.032 26.4982 104.3 26.4342 103.889 25.9437L103.05 24.944C102.638 24.4528 102.702 23.7212 103.193 23.3092L103.526 23.0298C104.016 22.6179 104.748 22.6819 105.16 23.173L105.999 24.1727C106.411 24.6633 106.347 25.3949 105.856 25.8067L105.523 26.0861Z" fill="#7A2714"/>
<path d="M108.181 29.2558C107.69 29.6679 106.958 29.6036 106.546 29.1134L105.707 28.1137C105.296 27.6229 105.36 26.8913 105.851 26.4792L106.184 26.1998C106.674 25.7879 107.406 25.8519 107.818 26.3428L108.657 27.3425C109.068 27.8328 109.004 28.5646 108.514 28.9765L108.181 29.2558Z" fill="#7A2714"/>
<path d="M110.814 32.3927C110.323 32.8048 109.591 32.7411 109.179 32.25L108.34 31.2506C107.929 30.7598 107.993 30.0282 108.484 29.6161L108.817 29.3367C109.308 28.9248 110.039 28.9889 110.451 29.4797L111.29 30.4791C111.702 30.9702 111.637 31.7015 111.147 32.1133L110.814 32.3927Z" fill="#7A2714"/>
<path d="M105.444 21.0462C104.977 21.4375 104.282 21.3769 103.891 20.9104L103.094 19.9611C102.703 19.4949 102.763 18.7993 103.23 18.408L103.546 18.1426C104.013 17.7511 104.708 17.8127 105.099 18.279L105.895 19.2282C106.287 19.6948 106.226 20.3893 105.76 20.7808L105.444 21.0462Z" fill="#7A2714"/>
<path d="M107.965 24.0505C107.499 24.4417 106.804 24.3815 106.413 23.9152L105.616 22.9654C105.225 22.4991 105.285 21.8038 105.752 21.4125L106.068 21.1471C106.535 20.7556 107.229 20.8169 107.621 21.2832L108.418 22.233C108.809 22.6993 108.748 23.3936 108.281 23.7851L107.965 24.0505Z" fill="#7A2714"/>
<path d="M110.493 27.0636C110.026 27.4549 109.331 27.394 108.94 26.928L108.143 25.9782C107.752 25.5119 107.813 24.8166 108.279 24.4254L108.595 24.1599C109.062 23.7684 109.757 23.8297 110.148 24.296L110.945 25.2458C111.336 25.7118 111.276 26.4066 110.809 26.7981L110.493 27.0636Z" fill="#7A2714"/>
<path d="M112.991 30.0399C112.525 30.4312 111.829 30.3704 111.438 29.9041L110.641 28.9546C110.25 28.488 110.311 27.7933 110.778 27.402L111.094 27.1366C111.56 26.7451 112.255 26.8058 112.646 27.2724L113.443 28.2219C113.834 28.6882 113.774 29.383 113.307 29.7745L112.991 30.0399Z" fill="#7A2714"/>
<path d="M107.929 19.228C107.486 19.5999 106.826 19.5424 106.455 19.0995L105.697 18.1968C105.326 17.7544 105.383 17.0939 105.827 16.7219L106.127 16.4698C106.57 16.0981 107.231 16.1562 107.602 16.5985L108.359 17.5013C108.731 17.9441 108.673 18.6041 108.23 18.9758L107.929 19.228Z" fill="#7A2714"/>
<path d="M110.327 22.0868C109.884 22.4587 109.224 22.4009 108.852 21.9581L108.095 21.0559C107.724 20.613 107.781 19.9527 108.224 19.5808L108.525 19.3286C108.968 18.957 109.628 19.0148 110 19.4577L110.757 20.3599C111.129 20.8028 111.071 21.463 110.628 21.8347L110.327 22.0868Z" fill="#7A2714"/>
<path d="M112.726 24.9467C112.283 25.3186 111.623 25.2606 111.251 24.8179L110.494 23.9158C110.123 23.4729 110.18 22.8126 110.623 22.4407L110.924 22.1885C111.367 21.8169 112.027 21.8747 112.399 22.3176L113.156 23.2197C113.527 23.6623 113.47 24.3229 113.027 24.6945L112.726 24.9467Z" fill="#7A2714"/>
<path d="M115.101 27.7767C114.658 28.1485 113.997 28.0902 113.625 27.6474L112.869 26.7458C112.497 26.3023 112.555 25.6425 112.998 25.2707L113.299 25.0185C113.741 24.6469 114.402 24.7041 114.774 25.1475L115.53 26.0491C115.902 26.492 115.844 27.1529 115.401 27.5245L115.101 27.7767Z" fill="#7A2714"/>
<path d="M110.375 17.6824C109.975 18.0178 109.38 17.9662 109.044 17.5662L108.361 16.7517C108.026 16.3522 108.078 15.7562 108.477 15.4208L108.749 15.193C109.149 14.8575 109.745 14.9099 110.08 15.3094L110.763 16.1239C111.099 16.5239 111.046 17.1191 110.647 17.4546L110.375 17.6824Z" fill="#7A2714"/>
<path d="M112.535 20.266C112.135 20.6014 111.539 20.549 111.204 20.1495L110.521 19.3353C110.185 18.9356 110.237 18.3395 110.637 18.0041L110.908 17.7763C111.308 17.4409 111.904 17.4933 112.24 17.893L112.923 18.7072C113.258 19.1067 113.206 19.7027 112.806 20.0382L112.535 20.266Z" fill="#7A2714"/>
<path d="M114.701 22.8388C114.301 23.1742 113.705 23.1218 113.37 22.7229L112.687 21.9084C112.351 21.5087 112.403 20.9126 112.803 20.5772L113.075 20.3494C113.474 20.0139 114.07 20.0663 114.406 20.4661L115.089 21.2806C115.424 21.6795 115.372 22.2755 114.972 22.611L114.701 22.8388Z" fill="#7A2714"/>
<path d="M116.842 25.3957C116.442 25.7311 115.846 25.679 115.511 25.2789L114.828 24.465C114.492 24.065 114.545 23.4698 114.944 23.1344L115.216 22.9066C115.616 22.5711 116.211 22.6227 116.547 23.0227L117.229 23.8366C117.565 24.2367 117.513 24.8324 117.113 25.1679L116.842 25.3957Z" fill="#7A2714"/>
<path d="M112.603 16.2647C112.242 16.5674 111.705 16.5207 111.402 16.1598L110.785 15.4248C110.483 15.0643 110.53 14.5266 110.891 14.2238L111.136 14.0182C111.496 13.7156 112.034 13.7627 112.337 14.1233L112.953 14.8582C113.256 15.2191 113.209 15.7565 112.848 16.059L112.603 16.2647Z" fill="#7A2714"/>
<path d="M114.558 18.5949C114.197 18.8977 113.659 18.8506 113.357 18.4901L112.74 17.7551C112.437 17.3943 112.484 16.8563 112.845 16.5535L113.09 16.3479C113.45 16.0453 113.988 16.0927 114.291 16.4535L114.908 17.1885C115.21 17.5491 115.163 18.0867 114.803 18.3893L114.558 18.5949Z" fill="#7A2714"/>
<path d="M116.506 20.914C116.145 21.2168 115.608 21.1694 115.305 20.8092L114.689 20.0742C114.386 19.7136 114.433 19.176 114.794 18.8731L115.039 18.6676C115.399 18.365 115.937 18.412 116.24 18.7726L116.856 19.5076C117.159 19.8679 117.112 20.4058 116.751 20.7084L116.506 20.914Z" fill="#7A2714"/>
<path d="M118.443 23.2234C118.083 23.5262 117.545 23.4792 117.242 23.1186L116.626 22.3837C116.323 22.0228 116.37 21.4854 116.731 21.1826L116.976 20.977C117.337 20.6745 117.874 20.7212 118.177 21.0821L118.793 21.8171C119.096 22.1776 119.049 22.7153 118.688 23.0179L118.443 23.2234Z" fill="#7A2714"/>
<path d="M114.653 14.9675C114.328 15.24 113.845 15.198 113.573 14.8726L113.018 14.2113C112.745 13.8867 112.787 13.4033 113.112 13.1307L113.333 12.9458C113.657 12.6735 114.141 12.7155 114.413 13.0401L114.968 13.7015C115.241 14.0268 115.198 14.5102 114.874 14.7825L114.653 14.9675Z" fill="#7A2714"/>
<path d="M116.408 17.0558C116.084 17.3283 115.6 17.2852 115.327 16.9607L114.773 16.2996C114.5 15.9745 114.542 15.4911 114.867 15.2186L115.087 15.0336C115.412 14.7613 115.896 14.8034 116.168 15.1284L116.723 15.7895C116.995 16.1141 116.953 16.5986 116.629 16.8709L116.408 17.0558Z" fill="#7A2714"/>
<path d="M118.167 19.1539C117.842 19.4265 117.358 19.3833 117.086 19.0586L116.531 18.3975C116.259 18.073 116.301 17.5892 116.625 17.3167L116.846 17.1317C117.17 16.8594 117.655 16.9018 117.927 17.2263L118.482 17.8874C118.754 18.2122 118.712 18.6967 118.388 18.969L118.167 19.1539Z" fill="#7A2714"/>
<path d="M117.089 14.3171C116.764 14.5896 116.281 14.5481 116.008 14.2231L115.453 13.5614C115.181 13.2371 115.223 12.7529 115.548 12.4804L115.768 12.2956C116.093 12.0231 116.577 12.0655 116.849 12.3897L117.404 13.0514C117.677 13.3764 117.634 13.8598 117.309 14.1323L117.089 14.3171Z" fill="#7A2714"/>
<path d="M118.848 16.4156C118.523 16.6881 118.039 16.6458 117.767 16.3215L117.212 15.6602C116.939 15.3351 116.982 14.8511 117.307 14.5786L117.527 14.3938C117.852 14.1213 118.336 14.1634 118.608 14.4885L119.163 15.1499C119.435 15.4741 119.393 15.9583 119.068 16.2309L118.848 16.4156Z" fill="#7A2714"/>
<path d="M120.607 18.5089C120.282 18.7814 119.798 18.739 119.526 18.4145L118.971 17.7528C118.698 17.4286 118.741 16.9444 119.066 16.6718L119.286 16.4871C119.611 16.2146 120.095 16.2569 120.367 16.5811L120.922 17.2428C121.194 17.5673 121.152 18.0516 120.827 18.3241L120.607 18.5089Z" fill="#7A2714"/>
<path d="M119.81 14.0787C119.502 14.3375 119.042 14.2973 118.784 13.9891L118.256 13.3604C117.997 13.0517 118.038 12.5924 118.346 12.3336L118.555 12.1581C118.864 11.8993 119.323 11.9387 119.583 12.2474L120.11 12.8761C120.369 13.1842 120.328 13.6444 120.02 13.9031L119.81 14.0787Z" fill="#7A2714"/>
<path d="M121.477 16.0637C121.169 16.3225 120.709 16.2822 120.45 15.9741L119.923 15.3457C119.664 15.0376 119.704 14.5774 120.013 14.3186L120.222 14.1431C120.53 13.8843 120.991 13.9246 121.249 14.2327L121.777 14.8611C122.035 15.1693 121.995 15.6294 121.686 15.8881L121.477 16.0637Z" fill="#7A2714"/>
<path d="M119.909 21.2295C119.584 21.5021 119.1 21.4589 118.828 21.1347L118.273 20.4733C118 20.1483 118.043 19.6653 118.368 19.3928L118.588 19.2078C118.913 18.9355 119.396 18.977 119.669 19.3021L120.224 19.9635C120.496 20.2877 120.454 20.7722 120.129 21.0445L119.909 21.2295Z" fill="#7A2714"/>
<path d="M100.176 24.866C99.6574 25.3008 98.8854 25.2333 98.4508 24.7154L97.5652 23.6599C97.1308 23.1423 97.1979 22.3697 97.7161 21.9349L98.0677 21.6399C98.5856 21.2053 99.3586 21.2729 99.7929 21.7906L100.679 22.8461C101.113 23.364 101.045 24.1364 100.527 24.571L100.176 24.866Z" fill="#7A2714"/>
<path d="M102.975 28.2112C102.457 28.646 101.685 28.5779 101.25 28.06L100.365 27.0051C99.9302 26.4872 99.9976 25.7149 100.516 25.2801L100.867 24.9851C101.385 24.5505 102.158 24.6179 102.593 25.1358L103.478 26.1907C103.912 26.7086 103.845 27.4816 103.327 27.9162L102.975 28.2112Z" fill="#7A2714"/>
<path d="M105.781 31.5479C105.263 31.9827 104.491 31.9151 104.056 31.397L103.171 30.3417C102.736 29.8239 102.804 29.0515 103.322 28.6168L103.673 28.3217C104.191 27.8872 104.964 27.9546 105.399 28.4724L106.284 29.5277C106.719 30.0458 106.651 30.8183 106.133 31.2529L105.781 31.5479Z" fill="#7A2714"/>
<path d="M108.56 34.8642C108.041 35.299 107.269 35.2314 106.834 34.7132L105.949 33.658C105.514 33.1401 105.582 32.3678 106.1 31.933L106.452 31.638C106.969 31.2034 107.742 31.2708 108.177 31.7887L109.062 32.8439C109.497 33.3621 109.429 34.1345 108.911 34.5691L108.56 34.8642Z" fill="#7A2714"/>
<path d="M97.4027 27.0065C96.8682 27.455 96.0713 27.3852 95.623 26.851L94.7097 25.7625C94.2614 25.2283 94.3311 24.4313 94.8656 23.9828L95.2282 23.6786C95.7626 23.2301 96.5593 23.3 97.0076 23.8343L97.9209 24.9228C98.3692 25.4571 98.2998 26.2538 97.7653 26.7022L97.4027 27.0065Z" fill="#7A2714"/>
<path d="M100.29 30.4551C99.7555 30.9037 98.9584 30.8337 98.5104 30.2997L97.5967 29.2109C97.1485 28.6766 97.2184 27.88 97.7529 27.4315L98.1155 27.1273C98.65 26.6788 99.4464 26.7485 99.8947 27.2827L100.808 28.3715C101.256 28.9054 101.187 29.7024 100.653 30.1509L100.29 30.4551Z" fill="#7A2714"/>
<path d="M103.183 33.8985C102.649 34.347 101.851 34.2767 101.403 33.7427L100.49 32.6539C100.041 32.1197 100.111 31.3231 100.646 30.8746L101.008 30.5703C101.543 30.1218 102.339 30.1915 102.787 30.7258L103.701 31.8146C104.149 32.3485 104.08 33.1457 103.546 33.5942L103.183 33.8985Z" fill="#7A2714"/>
<path d="M106.055 37.3176C105.52 37.7661 104.723 37.6961 104.275 37.1618L103.362 36.0736C102.913 35.5388 102.983 34.7424 103.518 34.2939L103.88 33.9897C104.415 33.5412 105.211 33.6106 105.66 34.1454L106.573 35.2336C107.021 35.7679 106.952 36.5649 106.417 37.0134L106.055 37.3176Z" fill="#7A2714"/>
<path d="M94.6192 29.2124C94.0739 29.6699 93.261 29.5983 92.8037 29.0534L91.8717 27.9426C91.4142 27.3974 91.485 26.5846 92.0302 26.1271L92.4004 25.8165C92.9459 25.3587 93.7589 25.4299 94.2165 25.9751L95.1485 27.0859C95.6057 27.6308 95.5348 28.4441 94.9893 28.9018L94.6192 29.2124Z" fill="#7A2714"/>
<path d="M97.5726 32.7278C97.0274 33.1853 96.2147 33.114 95.7572 32.5687L94.8251 31.458C94.3674 30.9124 94.4385 30.1 94.9837 29.6425L95.3539 29.3318C95.8994 28.8741 96.7122 28.945 97.1699 29.4905L98.1019 30.6012C98.5595 31.1465 98.4883 31.9595 97.9428 32.4172L97.5726 32.7278Z" fill="#7A2714"/>
<path d="M100.519 36.2482C99.9739 36.7057 99.1613 36.6344 98.7037 36.0891L97.7719 34.9786C97.3144 34.4334 97.385 33.6204 97.9303 33.1628L98.3004 32.8522C98.8459 32.3945 99.6592 32.4659 100.117 33.0111L101.049 34.1216C101.506 34.6669 101.435 35.4799 100.889 35.9376L100.519 36.2482Z" fill="#7A2714"/>
<path d="M103.445 39.7331C102.9 40.1906 102.088 40.1195 101.63 39.5743L100.698 38.4636C100.24 37.9183 100.311 37.1053 100.856 36.6478L101.226 36.3372C101.772 35.8794 102.585 35.9508 103.043 36.4961L103.975 37.6068C104.432 38.152 104.361 38.9648 103.815 39.4225L103.445 39.7331Z" fill="#7A2714"/>
<path d="M95.2689 43.0172L95.9135 43.7854C96.5917 43.8901 97.4017 43.9505 98.3961 43.9671C98.9322 43.5081 99.0006 42.7021 98.546 42.1603L97.6139 41.0495C97.1564 40.5043 96.3429 40.4331 95.7977 40.8906L95.4275 41.2012C94.8822 41.6587 94.8114 42.472 95.2689 43.0172Z" fill="#7A2714"/>
<path d="M95.0244 43.6045L94.8359 43.3798C94.5007 42.9803 93.9748 42.8364 93.5029 42.9674C93.9279 43.233 94.4138 43.4449 95.0244 43.6045Z" fill="#7A2714"/>
<path d="M92.0157 41.6728C92.3236 42.0006 92.6151 42.2921 92.9248 42.5487C93.2355 42.0844 93.2184 41.4536 92.8413 41.0042L91.9095 39.8938C91.4519 39.3485 90.6387 39.2771 90.0932 39.7349L89.7233 40.0452C89.5241 40.2124 89.389 40.4271 89.319 40.6586C90.7439 40.8255 91.606 41.2368 92.0157 41.6728Z" fill="#7A2714"/>
<path d="M83.9009 40.6262L84.7348 41.62C85.5033 41.0408 86.1575 40.666 86.5929 40.6339C86.9026 40.6112 87.1976 40.5969 87.4793 40.5898C87.4776 40.3 87.3787 40.009 87.1778 39.7695L86.2458 38.6587C85.788 38.1132 84.9755 38.0422 84.43 38.4999L84.0596 38.8107C83.5145 39.268 83.4432 40.0807 83.9009 40.6262Z" fill="#7A2714"/>
<path d="M81.0805 42.9863L81.9665 44.0421C82.7514 43.2856 83.5342 42.5733 84.2454 41.9968L83.4249 41.019C82.9672 40.4735 82.1547 40.4024 81.6092 40.8602L81.2393 41.1705C80.6938 41.6283 80.6227 42.4408 81.0805 42.9863Z" fill="#7A2714"/>
<path d="M78.3741 45.2748L79.2973 46.3749C79.3535 46.442 79.4153 46.5017 79.4812 46.5544C80.1473 45.8538 80.8791 45.1032 81.6188 44.3792L80.7102 43.2964C80.4059 42.9338 79.9448 42.7824 79.5096 42.8551C79.1323 43.6085 78.753 44.4132 78.3741 45.2748Z" fill="#7A2714"/>
<path d="M76.9202 48.8885C77.0073 48.9481 77.1006 48.9954 77.1978 49.0305C77.6325 48.5459 78.2917 47.8202 79.0691 46.9937C79.0287 46.9167 78.98 46.8427 78.9218 46.7734L78.1339 45.8343C77.7272 46.7855 77.3217 47.8025 76.9202 48.8885Z" fill="#7A2714"/>
<path d="M80.5212 40.9503C80.6476 40.9006 80.7686 40.8309 80.8785 40.7388L81.2484 40.4284C81.6579 40.0847 81.7998 39.5408 81.6516 39.0605C81.2809 39.6404 80.9031 40.2702 80.5212 40.9503Z" fill="#7A2714"/>
<path d="M82.0839 38.4079C82.5529 38.7707 83.227 38.7724 83.6997 38.3758L84.0701 38.065C84.6157 37.6072 84.6863 36.7942 84.229 36.2493L83.9519 35.919C83.3648 36.6128 82.7372 37.4357 82.0839 38.4079Z" fill="#7A2714"/>
<path d="M84.2661 35.5523L84.5931 35.942C85.0504 36.487 85.8636 36.5583 86.4091 36.1006L86.779 35.7902C87.3245 35.3325 87.3954 34.5192 86.9382 33.9743L86.4756 33.423C85.8674 33.9049 85.1145 34.5918 84.2661 35.5523Z" fill="#7A2714"/>
<path d="M88.0853 32.3888C88.0853 32.3888 87.6559 32.5584 86.9265 33.0815L87.3705 33.6107C87.8278 34.1556 88.641 34.2271 89.1863 33.7695L89.5564 33.4589C90.1017 33.0014 90.1728 32.1879 89.7156 31.643L88.7835 30.5322C88.326 29.987 87.5127 29.9161 86.9675 30.3736L86.5973 30.6842C86.5825 30.6966 86.5694 30.7104 86.5552 30.7233C86.9845 31.2136 87.4996 31.7812 88.0853 32.3888Z" fill="#7A2714"/>
<path d="M100.534 56.2328C99.553 49.3449 100.261 49.7793 100.39 48.2998C100.519 46.8205 99.9896 44.3516 95.7881 44.4498C95.6792 44.4523 95.5759 44.4506 95.4737 44.4479C95.4733 44.4502 95.4729 44.4524 95.4725 44.4548C94.6192 44.3055 93.956 44.1058 93.444 43.8916C91.7675 42.8581 91.4121 40.7854 87.4072 41.2007C87.4072 41.2007 90.2162 42.099 90.5322 45.9463C90.8483 49.7944 91.9647 51.9424 93.4189 54.492C94.8729 57.0418 97.1542 60.7825 95.1663 64.3358C95.1663 64.3358 101.516 63.1205 100.534 56.2328Z" fill="#7A2714"/>
<path d="M89.7617 46.0249C89.5344 43.3029 87.5378 40.7488 84.9718 42.3879C82.4061 44.0272 80.0323 47.7327 74.8874 52.2208C69.7425 56.7089 66.6889 53.2741 66.6889 53.2741C70.2747 69.8011 91.2604 52.2081 91.2604 52.2081C91.2604 52.2081 89.9891 48.747 89.7617 46.0249Z" fill="#7A2714"/>
<path d="M75.4902 50.6868C75.4902 50.6868 77.0725 46.4457 79.6931 40.991C82.3131 35.5368 86.991 32.1256 86.991 32.1256C86.991 32.1256 83.3501 29.0112 82.9859 25.7184C82.9859 25.7184 82.8948 23.5671 75.2291 28.1146C67.5632 32.662 64.6295 29.9827 64.6295 29.9827C64.6295 29.9827 65.4551 35.4594 70.0269 35.3936C74.5981 35.3278 77.667 33.2661 79.8341 32.99C79.8341 32.99 64.2757 44.6739 66.2469 50.9026C66.2469 50.9026 68.4544 57.6185 75.4902 50.6868Z" fill="#7A2714"/>
<path d="M66.121 54.8893C66.121 54.8893 66.8966 58.8006 70.8112 60.7856L68.5487 62.684L63.6758 56.8767L66.121 54.8893Z" fill="#7A2714"/>
<path d="M87.4658 29.5074L88.3043 28.8632C88.4362 28.5343 88.648 28.2322 88.938 27.9888L89.3082 27.6782C89.6614 27.3818 90.0804 27.2148 90.5078 27.1705L90.9334 26.8436C91.0472 26.4153 91.2885 26.0165 91.653 25.7106L92.0233 25.3999C92.4498 25.0421 92.9721 24.8722 93.4894 24.8801L93.7854 24.6526C93.9013 24.2417 94.1352 23.8599 94.4862 23.5654L94.8488 23.2611C95.2617 22.9147 95.7653 22.7463 96.2662 22.7469L96.7065 22.4087C96.8334 22.0745 97.044 21.767 97.3368 21.5213L97.6885 21.2262C97.9429 21.0128 98.2324 20.8681 98.5342 20.7898C98.2827 18.2628 99.8031 17.1731 100.854 14.8889C101.931 12.5454 101.339 9.33918 101.339 9.33918C101.339 9.33918 100.112 12.0691 94.3703 18.2243C89.6745 23.2584 87.5172 28.5284 87.0951 29.6392C87.2156 29.5838 87.3396 29.5399 87.4658 29.5074Z" fill="#7A2714"/>
<path d="M107.497 36.7235C107.38 37.0484 107.181 37.3483 106.898 37.5857L106.535 37.8899C106.263 38.1188 105.947 38.2624 105.619 38.3242L104.969 38.9232C104.869 39.329 104.644 39.7078 104.3 39.9965L103.93 40.3071C103.648 40.5433 103.321 40.6896 102.983 40.7504L102.145 41.5218C102.024 41.8043 101.837 42.0636 101.585 42.2746L101.215 42.5854C101.029 42.7414 100.823 42.8583 100.607 42.9374L99.5725 43.8899C110.536 36.9065 114.577 37.055 114.577 37.055C111.413 34.8767 108.598 36.0773 107.497 36.7235Z" fill="#7A2714"/>
<path d="M153.495 36.8816C152.949 37.3391 152.136 37.2675 151.679 36.7226L150.747 35.6118C150.29 35.0666 150.36 34.2538 150.906 33.7963L151.276 33.4854C151.821 33.0282 152.634 33.0991 153.092 33.6443L154.024 34.7551C154.481 35.3 154.41 36.1135 153.865 36.5708L153.495 36.8816Z" fill="#7A2714"/>
<path d="M156.443 40.3935C155.897 40.851 155.085 40.7796 154.627 40.2344L153.695 39.1236C153.237 38.5781 153.308 37.7656 153.854 37.3081L154.224 36.9973C154.769 36.54 155.582 36.6106 156.04 37.1561L156.972 38.2669C157.429 38.8121 157.358 39.6253 156.813 40.0826L156.443 40.3935Z" fill="#7A2714"/>
<path d="M159.395 43.9134C158.85 44.3709 158.037 44.2996 157.58 43.7543L156.648 42.6439C156.19 42.0986 156.261 41.2856 156.806 40.8281L157.177 40.5172C157.722 40.0599 158.535 40.1311 158.993 40.6764L159.924 41.7869C160.382 42.3321 160.311 43.1453 159.766 43.6026L159.395 43.9134Z" fill="#7A2714"/>
<path d="M162.319 47.3982C161.774 47.8557 160.961 47.7846 160.504 47.2393L159.572 46.1286C159.114 45.5834 159.185 44.7703 159.73 44.3128L160.101 44.002C160.646 43.5447 161.459 43.6159 161.917 44.1611L162.849 45.2719C163.306 45.8171 163.234 46.63 162.689 47.0873L162.319 47.3982Z" fill="#7A2714"/>
<path d="M153.727 42.6741C153.182 43.1317 152.369 43.0605 151.911 42.5153L150.979 41.4045C150.521 40.859 150.593 40.0463 151.138 39.5888L151.508 39.2782C152.053 38.8207 152.866 38.8913 153.324 39.4368L154.256 40.5476C154.714 41.0928 154.642 41.906 154.097 42.3635L153.727 42.6741Z" fill="#7A2714"/>
<path d="M156.682 46.1903C156.136 46.6478 155.323 46.5766 154.866 46.0314L153.934 44.9209C153.477 44.3757 153.548 43.5624 154.093 43.1049L154.463 42.7943C155.008 42.3368 155.822 42.4079 156.279 42.9532L157.211 44.0637C157.669 44.6089 157.597 45.4221 157.052 45.8796L156.682 46.1903Z" fill="#7A2714"/>
<path d="M150.951 45.0062C150.405 45.464 149.592 45.3929 149.135 44.8476L148.203 43.7368C147.745 43.1913 147.817 42.3786 148.362 41.9209L148.732 41.6105C149.277 41.1528 150.09 41.2236 150.548 41.7691L151.48 42.8799C151.937 43.4251 151.866 44.2381 151.321 44.6958L150.951 45.0062Z" fill="#7A2714"/>
<path d="M164.459 28.3147C163.968 28.7268 163.236 28.6628 162.825 28.1723L161.986 27.1729C161.574 26.6818 161.638 25.9499 162.129 25.5378L162.462 25.2585C162.953 24.8466 163.684 24.9109 164.097 25.402L164.935 26.4014C165.347 26.892 165.283 27.6235 164.792 28.0354L164.459 28.3147Z" fill="#7A2714"/>
<path d="M167.112 31.4746C166.621 31.8866 165.889 31.8226 165.478 31.3321L164.639 30.3324C164.227 29.8413 164.291 29.1097 164.782 28.6976L165.115 28.4182C165.606 28.0064 166.337 28.0704 166.749 28.5615L167.588 29.5612C168 30.0517 167.936 30.7833 167.445 31.1952L167.112 31.4746Z" fill="#7A2714"/>
<path d="M169.77 34.6443C169.279 35.0563 168.547 34.9921 168.136 34.5018L167.297 33.5021C166.885 33.0113 166.949 32.2797 167.44 31.8676L167.773 31.5882C168.264 31.1764 168.995 31.2404 169.407 31.7312L170.246 32.7309C170.657 33.2212 170.594 33.953 170.103 34.3649L169.77 34.6443Z" fill="#7A2714"/>
<path d="M172.403 37.7811C171.912 38.1932 171.181 38.1295 170.768 37.6384L169.93 36.639C169.518 36.1482 169.582 35.4166 170.073 35.0045L170.406 34.7251C170.897 34.3133 171.628 34.3773 172.04 34.8681L172.879 35.8675C173.291 36.3586 173.227 37.0899 172.736 37.5018L172.403 37.7811Z" fill="#7A2714"/>
<path d="M167.033 26.4346C166.567 26.8259 165.872 26.7654 165.48 26.2988L164.684 25.3496C164.292 24.8833 164.353 24.1877 164.819 23.7964L165.135 23.531C165.602 23.1395 166.297 23.2011 166.688 23.6674L167.485 24.6166C167.876 25.0832 167.816 25.7777 167.349 26.1692L167.033 26.4346Z" fill="#7A2714"/>
<path d="M169.555 29.4389C169.088 29.8302 168.393 29.7699 168.002 29.3036L167.205 28.3538C166.814 27.8875 166.875 27.1922 167.341 26.801L167.657 26.5355C168.124 26.144 168.819 26.2053 169.21 26.6716L170.007 27.6215C170.398 28.0877 170.337 28.782 169.871 29.1735L169.555 29.4389Z" fill="#7A2714"/>
<path d="M172.082 32.452C171.616 32.8433 170.92 32.7824 170.529 32.3164L169.732 31.3666C169.341 30.9003 169.402 30.2051 169.868 29.8138L170.185 29.5484C170.651 29.1569 171.346 29.2181 171.737 29.6845L172.534 30.6342C172.925 31.1003 172.865 31.7951 172.398 32.1866L172.082 32.452Z" fill="#7A2714"/>
<path d="M174.58 35.4284C174.114 35.8196 173.419 35.7588 173.027 35.2925L172.231 34.343C171.839 33.8764 171.901 33.1817 172.367 32.7904L172.683 32.525C173.15 32.1335 173.844 32.1942 174.236 32.6608L175.032 33.6103C175.424 34.0766 175.363 34.7714 174.897 35.1629L174.58 35.4284Z" fill="#7A2714"/>
<path d="M169.519 24.6164C169.076 24.9883 168.416 24.9308 168.044 24.4879L167.287 23.5852C166.916 23.1429 166.973 22.4823 167.416 22.1104L167.717 21.8582C168.159 21.4866 168.82 21.5446 169.191 21.9869L169.949 22.8897C170.32 23.3326 170.262 23.9925 169.819 24.3642L169.519 24.6164Z" fill="#7A2714"/>
<path d="M171.917 27.4752C171.473 27.8471 170.813 27.7893 170.442 27.3465L169.685 26.4443C169.313 26.0014 169.371 25.3411 169.814 24.9692L170.114 24.7171C170.557 24.3454 171.218 24.4032 171.589 24.8462L172.346 25.7483C172.718 26.1912 172.66 26.8514 172.217 27.2231L171.917 27.4752Z" fill="#7A2714"/>
<path d="M174.315 30.3351C173.872 30.707 173.212 30.649 172.841 30.2064L172.084 29.3042C171.712 28.8613 171.769 28.201 172.213 27.8291L172.513 27.5769C172.956 27.2053 173.617 27.2631 173.988 27.706L174.745 28.6081C175.117 29.0508 175.059 29.7113 174.616 30.0829L174.315 30.3351Z" fill="#7A2714"/>
<path d="M176.69 33.1651C176.247 33.537 175.586 33.4787 175.215 33.0358L174.458 32.1342C174.086 31.6908 174.144 31.031 174.587 30.6591L174.888 30.4069C175.331 30.0353 175.991 30.0925 176.363 30.536L177.119 31.4376C177.491 31.8804 177.434 32.5413 176.991 32.9129L176.69 33.1651Z" fill="#7A2714"/>
<path d="M171.964 23.0708C171.565 23.4062 170.969 23.3547 170.634 22.9546L169.95 22.1401C169.615 21.7407 169.667 21.1447 170.067 20.8092L170.338 20.5814C170.738 20.246 171.334 20.2983 171.669 20.6978L172.353 21.5123C172.688 21.9123 172.636 22.5075 172.236 22.843L171.964 23.0708Z" fill="#7A2714"/>
<path d="M174.124 25.6544C173.724 25.9899 173.128 25.9374 172.793 25.5379L172.11 24.7237C171.775 24.324 171.826 23.728 172.226 23.3925L172.498 23.1647C172.897 22.8293 173.493 22.8817 173.829 23.2814L174.512 24.0956C174.847 24.4951 174.795 25.0912 174.396 25.4266L174.124 25.6544Z" fill="#7A2714"/>
<path d="M176.29 28.2272C175.89 28.5626 175.294 28.5103 174.96 28.1113L174.276 27.2969C173.941 26.8971 173.993 26.301 174.392 25.9656L174.664 25.7378C175.064 25.4023 175.66 25.4547 175.995 25.8545L176.679 26.669C177.013 27.0679 176.961 27.6639 176.562 27.9994L176.29 28.2272Z" fill="#7A2714"/>
<path d="M178.431 30.7841C178.031 31.1195 177.436 31.0674 177.1 30.6674L176.417 29.8535C176.081 29.4534 176.134 28.8582 176.534 28.5228L176.805 28.295C177.205 27.9596 177.8 28.0111 178.136 28.4111L178.819 29.225C179.155 29.6251 179.102 30.2208 178.703 30.5563L178.431 30.7841Z" fill="#7A2714"/>
<path d="M174.193 21.6531C173.832 21.9559 173.294 21.9091 172.992 21.5482L172.375 20.8133C172.072 20.4527 172.119 19.915 172.48 19.6122L172.725 19.4066C173.086 19.1041 173.623 19.1511 173.926 19.5117L174.543 20.2467C174.845 20.6075 174.798 21.1449 174.438 21.4475L174.193 21.6531Z" fill="#7A2714"/>
<path d="M176.147 23.9833C175.786 24.2861 175.249 24.2391 174.946 23.8785L174.329 23.1435C174.026 22.7827 174.073 22.2447 174.434 21.9419L174.679 21.7363C175.04 21.4338 175.578 21.4811 175.88 21.842L176.497 22.5769C176.8 22.9375 176.753 23.4751 176.392 23.7777L176.147 23.9833Z" fill="#7A2714"/>
<path d="M178.096 26.3024C177.735 26.6052 177.197 26.5578 176.895 26.1976L176.278 25.4626C175.975 25.102 176.022 24.5644 176.383 24.2616L176.628 24.056C176.989 23.7534 177.526 23.8004 177.829 24.161L178.446 24.896C178.748 25.2563 178.701 25.7942 178.341 26.0968L178.096 26.3024Z" fill="#7A2714"/>
<path d="M180.033 28.6119C179.672 28.9146 179.134 28.8676 178.832 28.507L178.215 27.7721C177.912 27.4112 177.959 26.8738 178.32 26.571L178.565 26.3654C178.926 26.0629 179.463 26.1097 179.766 26.4705L180.383 27.2055C180.685 27.5661 180.638 28.1037 180.278 28.4063L180.033 28.6119Z" fill="#7A2714"/>
<path d="M176.243 20.3559C175.918 20.6284 175.435 20.5864 175.162 20.2611L174.607 19.5997C174.335 19.2752 174.377 18.7917 174.701 18.5192L174.922 18.3342C175.246 18.0619 175.73 18.104 176.003 18.4285L176.558 19.0899C176.831 19.4152 176.788 19.8986 176.463 20.1709L176.243 20.3559Z" fill="#7A2714"/>
<path d="M177.998 22.4442C177.673 22.7168 177.189 22.6736 176.917 22.3492L176.362 21.6881C176.089 21.363 176.131 20.8795 176.456 20.607L176.676 20.422C177.001 20.1497 177.485 20.1918 177.758 20.5169L178.312 21.178C178.585 21.5025 178.543 21.987 178.218 22.2593L177.998 22.4442Z" fill="#7A2714"/>
<path d="M179.756 24.5424C179.432 24.8149 178.948 24.7717 178.675 24.447L178.12 23.7859C177.848 23.4614 177.89 22.9777 178.215 22.7051L178.435 22.5201C178.76 22.2479 179.244 22.2902 179.516 22.6147L180.071 23.2758C180.343 23.6006 180.301 24.0851 179.977 24.3574L179.756 24.5424Z" fill="#7A2714"/>
<path d="M178.678 19.7055C178.354 19.978 177.87 19.9365 177.597 19.6115L177.042 18.9498C176.77 18.6256 176.812 18.1413 177.137 17.8688L177.357 17.684C177.682 17.4115 178.166 17.4539 178.438 17.7781L178.994 18.4398C179.266 18.7648 179.223 19.2482 178.899 19.5208L178.678 19.7055Z" fill="#7A2714"/>
<path d="M180.437 21.804C180.113 22.0766 179.628 22.0342 179.356 21.71L178.801 21.0486C178.529 20.7235 178.571 20.2395 178.896 19.967L179.116 19.7823C179.441 19.5097 179.925 19.5519 180.198 19.8769L180.753 20.5383C181.025 20.8625 180.982 21.3468 180.658 21.6193L180.437 21.804Z" fill="#7A2714"/>
<path d="M182.196 23.8973C181.872 24.1698 181.387 24.1274 181.115 23.8029L180.56 23.1412C180.288 22.817 180.33 22.3328 180.655 22.0603L180.875 21.8755C181.2 21.603 181.684 21.6454 181.956 21.9695L182.511 22.6312C182.784 22.9558 182.741 23.44 182.417 23.7125L182.196 23.8973Z" fill="#7A2714"/>
<path d="M181.4 19.4671C181.091 19.7259 180.632 19.6857 180.373 19.3776L179.845 18.7489C179.586 18.4402 179.627 17.9809 179.936 17.722L180.145 17.5465C180.453 17.2877 180.913 17.3271 181.172 17.6358L181.699 18.2645C181.958 18.5727 181.917 19.0328 181.609 19.2915L181.4 19.4671Z" fill="#7A2714"/>
<path d="M183.066 21.4521C182.758 21.7109 182.298 21.6707 182.039 21.3625L181.512 20.7342C181.254 20.426 181.294 19.9658 181.602 19.707L181.811 19.5315C182.12 19.2727 182.58 19.313 182.839 19.6211L183.366 20.2495C183.624 20.5577 183.584 21.0178 183.275 21.2766L183.066 21.4521Z" fill="#7A2714"/>
<path d="M181.498 26.618C181.173 26.8905 180.689 26.8473 180.417 26.5231L179.862 25.8617C179.59 25.5367 179.632 25.0538 179.957 24.7812L180.177 24.5962C180.502 24.324 180.985 24.3655 181.258 24.6905L181.813 25.3519C182.085 25.6761 182.043 26.1606 181.719 26.4329L181.498 26.618Z" fill="#7A2714"/>
<path d="M161.765 30.2545C161.247 30.6893 160.475 30.6217 160.04 30.1038L159.155 29.0483C158.72 28.5307 158.787 27.7581 159.305 27.3233L159.657 27.0283C160.175 26.5937 160.948 26.6614 161.382 27.179L162.268 28.2345C162.703 28.7524 162.634 29.5248 162.117 29.9595L161.765 30.2545Z" fill="#7A2714"/>
<path d="M164.565 33.5997C164.046 34.0345 163.274 33.9664 162.839 33.4485L161.954 32.3935C161.52 31.8756 161.587 31.1033 162.105 30.6685L162.457 30.3735C162.975 29.9389 163.747 30.0063 164.182 30.5242L165.067 31.5791C165.502 32.097 165.434 32.8701 164.916 33.3046L164.565 33.5997Z" fill="#7A2714"/>
<path d="M167.371 36.9363C166.853 37.3711 166.081 37.3036 165.646 36.7854L164.76 35.7302C164.326 35.2123 164.393 34.44 164.911 34.0052L165.263 33.7102C165.781 33.2756 166.554 33.343 166.988 33.8608L167.874 34.9161C168.308 35.4342 168.24 36.2068 167.722 36.6413L167.371 36.9363Z" fill="#7A2714"/>
<path d="M170.149 40.2526C169.631 40.6874 168.859 40.6198 168.424 40.1016L167.538 39.0464C167.104 38.5285 167.171 37.7562 167.689 37.3214L168.041 37.0264C168.559 36.5918 169.332 36.6592 169.766 37.1771L170.652 38.2323C171.086 38.7505 171.018 39.523 170.5 39.9575L170.149 40.2526Z" fill="#7A2714"/>
<path d="M158.992 32.3949C158.458 32.8434 157.661 32.7737 157.212 32.2394L156.299 31.1509C155.851 30.6167 155.92 29.8198 156.455 29.3712L156.818 29.067C157.352 28.6185 158.149 28.6885 158.597 29.2227L159.51 30.3112C159.959 30.8455 159.889 31.6422 159.355 32.0907L158.992 32.3949Z" fill="#7A2714"/>
<path d="M161.879 35.8436C161.345 36.2921 160.548 36.2221 160.1 35.6881L159.186 34.5993C158.738 34.0651 158.808 33.2685 159.342 32.8199L159.705 32.5157C160.239 32.0672 161.036 32.1369 161.484 32.6711L162.398 33.7599C162.846 34.2939 162.776 35.0909 162.242 35.5394L161.879 35.8436Z" fill="#7A2714"/>
<path d="M164.772 39.2869C164.238 39.7354 163.441 39.6651 162.993 39.1312L162.079 38.0424C161.631 37.5081 161.701 36.7115 162.235 36.263L162.598 35.9588C163.132 35.5103 163.929 35.58 164.377 36.1142L165.29 37.203C165.738 37.737 165.67 38.5342 165.135 38.9827L164.772 39.2869Z" fill="#7A2714"/>
<path d="M167.644 42.706C167.11 43.1545 166.312 43.0845 165.864 42.5502L164.951 41.462C164.502 40.9272 164.572 40.1309 165.107 39.6824L165.47 39.3781C166.004 38.9296 166.8 38.9991 167.249 39.5339L168.162 40.6221C168.61 41.1563 168.541 41.9533 168.007 42.4018L167.644 42.706Z" fill="#7A2714"/>
<path d="M156.209 34.6009C155.663 35.0584 154.85 34.9867 154.393 34.4418L153.461 33.331C153.004 32.7858 153.074 31.973 153.62 31.5155L153.99 31.2049C154.535 30.7472 155.348 30.8183 155.806 31.3635L156.738 32.4743C157.195 33.0192 157.124 33.8325 156.579 34.2903L156.209 34.6009Z" fill="#7A2714"/>
<path d="M159.162 38.1162C158.617 38.5738 157.804 38.5024 157.347 37.9572L156.414 36.8464C155.957 36.3009 156.028 35.4884 156.573 35.0309L156.943 34.7203C157.489 34.2625 158.302 34.3334 158.759 34.8789L159.691 35.9897C160.149 36.5349 160.078 37.3479 159.532 37.8056L159.162 38.1162Z" fill="#7A2714"/>
<path d="M162.109 41.6366C161.563 42.0941 160.751 42.0228 160.293 41.4776L159.361 40.3671C158.904 39.8218 158.974 39.0088 159.52 38.5513L159.89 38.2407C160.435 37.7829 161.249 37.8543 161.706 38.3996L162.638 39.5101C163.095 40.0553 163.024 40.8683 162.479 41.326L162.109 41.6366Z" fill="#7A2714"/>
<path d="M165.035 45.1215C164.489 45.5791 163.677 45.508 163.219 44.9627L162.287 43.852C161.83 43.3067 161.9 42.4937 162.446 42.0362L162.816 41.7256C163.361 41.2679 164.175 41.3392 164.632 41.8845L165.564 42.9952C166.022 43.5405 165.95 44.3532 165.405 44.8109L165.035 45.1215Z" fill="#7A2714"/>
<path d="M156.858 48.4056L157.503 49.1739C158.181 49.2785 158.991 49.3389 159.985 49.3555C160.522 48.8965 160.59 48.0906 160.135 47.5487L159.203 46.4379C158.746 45.8927 157.932 45.8215 157.387 46.279L157.017 46.5896C156.472 47.0472 156.401 47.8604 156.858 48.4056Z" fill="#7A2714"/>
<path d="M156.614 48.9929L156.425 48.7682C156.09 48.3687 155.564 48.2248 155.092 48.3558C155.517 48.6215 156.003 48.8333 156.614 48.9929Z" fill="#7A2714"/>
<path d="M153.605 47.0613C153.913 47.389 154.204 47.6806 154.514 47.9371C154.825 47.4728 154.808 46.842 154.431 46.3927L153.499 45.2822C153.041 44.7369 152.228 44.6655 151.683 45.1233L151.313 45.4337C151.113 45.6008 150.978 45.8155 150.908 46.047C152.333 46.214 153.195 46.6253 153.605 47.0613Z" fill="#7A2714"/>
<path d="M145.49 46.0147L146.324 47.0084C147.093 46.4292 147.747 46.0544 148.182 46.0224C148.492 45.9996 148.787 45.9853 149.069 45.9783C149.067 45.6884 148.968 45.3974 148.767 45.158L147.835 44.0472C147.377 43.5017 146.565 43.4306 146.019 43.8883L145.649 44.1992C145.104 44.6564 145.033 45.4692 145.49 46.0147Z" fill="#7A2714"/>
<path d="M142.67 48.3747L143.556 49.4306C144.341 48.674 145.124 47.9618 145.835 47.3852L145.014 46.4074C144.557 45.8619 143.744 45.7908 143.199 46.2486L142.829 46.559C142.283 47.0167 142.212 47.8292 142.67 48.3747Z" fill="#7A2714"/>
<path d="M139.963 50.6632L140.887 51.7634C140.943 51.8304 141.005 51.8902 141.071 51.9428C141.737 51.2423 142.468 50.4917 143.208 49.7676L142.3 48.6848C141.995 48.3222 141.534 48.1708 141.099 48.2435C140.722 48.997 140.342 49.8016 139.963 50.6632Z" fill="#7A2714"/>
<path d="M138.51 54.2769C138.597 54.3365 138.69 54.3839 138.787 54.4189C139.222 53.9343 139.881 53.2086 140.658 52.3821C140.618 52.3051 140.569 52.2311 140.511 52.1618L139.723 51.2227C139.317 52.1739 138.911 53.1909 138.51 54.2769Z" fill="#7A2714"/>
<path d="M142.111 46.3387C142.237 46.289 142.358 46.2194 142.468 46.1272L142.838 45.8168C143.247 45.4731 143.389 44.9293 143.241 44.4489C142.87 45.0288 142.492 45.6586 142.111 46.3387Z" fill="#7A2714"/>
<path d="M143.673 43.7963C144.142 44.1591 144.816 44.1608 145.289 43.7642L145.66 43.4534C146.205 42.9957 146.276 42.1826 145.818 41.6377L145.541 41.3075C144.954 42.0012 144.327 42.8241 143.673 43.7963Z" fill="#7A2714"/>
<path d="M145.855 40.9408L146.182 41.3304C146.64 41.8754 147.453 41.9468 147.998 41.489L148.368 41.1787C148.914 40.7209 148.985 39.9076 148.528 39.3627L148.065 38.8114C147.457 39.2933 146.704 39.9802 145.855 40.9408Z" fill="#7A2714"/>
<path d="M149.675 37.7772C149.675 37.7772 149.245 37.9468 148.516 38.4699L148.96 38.9991C149.417 39.5441 150.23 39.6155 150.776 39.158L151.146 38.8474C151.691 38.3899 151.762 37.5764 151.305 37.0314L150.373 35.9207C149.915 35.3754 149.102 35.3045 148.557 35.762L148.187 36.0726C148.172 36.0851 148.159 36.0988 148.145 36.1118C148.574 36.6021 149.089 37.1696 149.675 37.7772Z" fill="#7A2714"/>
<path d="M162.124 61.6212C161.142 54.7333 161.85 55.1678 161.979 53.6882C162.108 52.2089 161.579 49.7401 157.377 49.8383C157.269 49.8408 157.165 49.839 157.063 49.8363C157.063 49.8387 157.062 49.8409 157.062 49.8432C156.209 49.6939 155.545 49.4942 155.033 49.28C153.357 48.2465 153.001 46.1738 148.997 46.5892C148.997 46.5892 151.806 47.4874 152.122 51.3347C152.438 55.1828 153.554 57.3308 155.008 59.8804C156.462 62.4302 158.744 66.171 156.756 69.7243C156.756 69.7243 163.105 68.5089 162.124 61.6212Z" fill="#7A2714"/>
<path d="M151.351 51.4134C151.124 48.6913 149.127 46.1372 146.561 47.7763C143.995 49.4156 141.622 53.1212 136.477 57.6092C131.332 62.0973 128.278 58.6626 128.278 58.6626C131.864 75.1895 152.85 57.5966 152.85 57.5966C152.85 57.5966 151.578 54.1354 151.351 51.4134Z" fill="#7A2714"/>
<path d="M137.08 56.0752C137.08 56.0752 138.662 51.8342 141.282 46.3795C143.902 40.9252 148.58 37.514 148.58 37.514C148.58 37.514 144.939 34.3996 144.575 31.1068C144.575 31.1068 144.484 28.9555 136.818 33.5031C129.153 38.0504 126.219 35.3711 126.219 35.3711C126.219 35.3711 127.044 40.8478 131.616 40.782C136.187 40.7162 139.256 38.6546 141.423 38.3784C141.423 38.3784 125.865 50.0623 127.836 56.291C127.836 56.291 130.044 63.007 137.08 56.0752Z" fill="#7A2714"/>
<path d="M127.71 60.2777C127.71 60.2777 128.486 64.189 132.401 66.174L130.138 68.0725L125.265 62.2651L127.71 60.2777Z" fill="#7A2714"/>
<path d="M149.055 34.8958L149.894 34.2517C150.026 33.9227 150.237 33.6206 150.527 33.3772L150.898 33.0666C151.251 32.7702 151.67 32.6033 152.097 32.5589L152.523 32.232C152.637 31.8037 152.878 31.405 153.242 31.0991L153.613 30.7884C154.039 30.4305 154.561 30.2606 155.079 30.2685L155.375 30.041C155.491 29.6302 155.725 29.2483 156.076 28.9539L156.438 28.6495C156.851 28.3031 157.355 28.1348 157.856 28.1354L158.296 27.7971C158.423 27.4629 158.633 27.1554 158.926 26.9097L159.278 26.6146C159.532 26.4012 159.822 26.2566 160.124 26.1783C159.872 23.6512 161.392 22.5616 162.443 20.2773C163.521 17.9338 162.928 14.7276 162.928 14.7276C162.928 14.7276 161.702 17.4575 155.96 23.6128C151.264 28.6468 149.107 33.9168 148.684 35.0276C148.805 34.9723 148.929 34.9283 149.055 34.8958Z" fill="#7A2714"/>
<path d="M169.086 42.1119C168.97 42.4369 168.77 42.7367 168.487 42.9741L168.125 43.2783C167.852 43.5072 167.536 43.6508 167.209 43.7127L166.558 44.3117C166.458 44.7175 166.233 45.0963 165.889 45.3849L165.519 45.6955C165.238 45.9317 164.911 46.078 164.573 46.1389L163.735 46.9102C163.613 47.1928 163.426 47.4521 163.175 47.663L162.804 47.9738C162.618 48.1299 162.412 48.2467 162.197 48.3259L161.162 49.2784C172.125 42.2949 176.166 42.4434 176.166 42.4434C173.002 40.2651 170.187 41.4657 169.086 42.1119Z" fill="#7A2714"/>
</svg>
