<svg width="32" height="32" viewBox="0 0 32 32" fill="none" xmlns="http://www.w3.org/2000/svg">
<path d="M10.9976 16.859L22.2373 26.7499C22.3673 26.8644 22.5249 26.9431 22.6945 26.9783C22.8641 27.0136 23.0399 27.0041 23.2048 26.951C23.3697 26.8978 23.5179 26.8027 23.635 26.675C23.7521 26.5474 23.834 26.3915 23.8727 26.2226L28.5744 5.70604C28.615 5.52865 28.6065 5.34354 28.5497 5.17064C28.4929 4.99774 28.39 4.84361 28.2521 4.72487C28.1142 4.60613 27.9465 4.52727 27.7671 4.49679C27.5877 4.46631 27.4034 4.48537 27.234 4.55191L4.16438 13.615C3.96332 13.694 3.79324 13.8359 3.6796 14.0196C3.56596 14.2033 3.51486 14.4189 3.53394 14.6341C3.55303 14.8492 3.64127 15.0525 3.78548 15.2133C3.92968 15.3741 4.12209 15.4839 4.33391 15.5263L10.9976 16.859Z" stroke="#7A2714" stroke-width="3" stroke-linecap="round" stroke-linejoin="round"/>
<path d="M10.9976 16.859L28.0116 4.57114" stroke="#7A2714" stroke-width="3" stroke-linecap="round" stroke-linejoin="round"/>
<path d="M16.6109 21.7988L12.7047 25.7051C12.5648 25.8449 12.3866 25.9402 12.1926 25.9788C11.9987 26.0174 11.7976 25.9976 11.6149 25.9219C11.4322 25.8462 11.276 25.718 11.1661 25.5536C11.0562 25.3891 10.9976 25.1958 10.9976 24.998V16.859" stroke="#7A2714" stroke-width="3" stroke-linecap="round" stroke-linejoin="round"/>
</svg>
