<svg width="18" height="24" viewBox="0 0 18 24" fill="none" xmlns="http://www.w3.org/2000/svg">
<path d="M17.5993 9.60003V10.4001H16.7994V9.60003H17.5993Z" fill="#211D1D"/>
<path d="M17.5993 8.80053V9.60059H16.7994V8.80053H17.5993Z" fill="#211D1D"/>
<path d="M17.5993 7.99994V8.7998H16.7994V7.99994H17.5993Z" fill="#211D1D"/>
<path d="M17.5993 7.20031V8.00037H16.7994V7.20031H17.5993Z" fill="#211D1D"/>
<path d="M16.8001 16.8005V17.6006H16V16.8005H16.8001Z" fill="#211D1D"/>
<path d="M16.8001 15.9999V16.7998H16V15.9999H16.8001Z" fill="#211D1D"/>
<path d="M16.8001 15.2002V16.0003H16V15.2002H16.8001Z" fill="#211D1D"/>
<path d="M16.8001 14.3995V15.1995H16V14.3995H16.8001Z" fill="#211D1D"/>
<path d="M16.8001 13.6002V14.4001H16V13.6002H16.8001Z" fill="#211D1D"/>
<path d="M16.8001 12.8005V13.6006H16V12.8005H16.8001Z" fill="#211D1D"/>
<path d="M16.8001 11.9997V12.7998H16V11.9997H16.8001Z" fill="#211D1D"/>
<path d="M16.8001 11.2002V12.0003H16V11.2002H16.8001Z" fill="#211D1D"/>
<path d="M16.8001 10.4003V11.2002H16V10.4003H16.8001Z" fill="#211D1D"/>
<path d="M16.8001 9.60003V10.4001H16V9.60003H16.8001Z" fill="#B1E197"/>
<path d="M16.8001 8.80053V9.60059H16V8.80053H16.8001Z" fill="#B1E197"/>
<path d="M16.8001 7.99994V8.7998H16V7.99994H16.8001Z" fill="#B1E197"/>
<path d="M16.8001 7.20031V8.00037H16V7.20031H16.8001Z" fill="#B1E197"/>
<path d="M16.8001 6.40014V7.2002H16V6.40014H16.8001Z" fill="#211D1D"/>
<path d="M16.8001 5.60022V6.40009H16V5.60022H16.8001Z" fill="#211D1D"/>
<path d="M15.9999 18.4003V19.2002H15.1998V18.4003H15.9999Z" fill="#211D1D"/>
<path d="M15.9999 17.6V18.4001H15.1998V17.6H15.9999Z" fill="#211D1D"/>
<path d="M15.9999 16.8005V17.6006H15.1998V16.8005H15.9999Z" fill="#B1E197"/>
<path d="M15.9999 16.0006V16.8005H15.1998V16.0006H15.9999Z" fill="#B1E197"/>
<path d="M15.9999 15.2002V16.0003H15.1998V15.2002H15.9999Z" fill="#B1E197"/>
<path d="M15.9999 14.4001V15.2002H15.1998V14.4001H15.9999Z" fill="#B1E197"/>
<path d="M15.9999 13.6002V14.4001H15.1998V13.6002H15.9999Z" fill="#B1E197"/>
<path d="M15.9999 12.8005V13.6006H15.1998V12.8005H15.9999Z" fill="#B1E197"/>
<path d="M15.9999 11.9997V12.7998H15.1998V11.9997H15.9999Z" fill="#B1E197"/>
<path d="M15.9999 11.2002V12.0003H15.1998V11.2002H15.9999Z" fill="#B1E197"/>
<path d="M15.9999 10.4003V11.2002H15.1998V10.4003H15.9999Z" fill="#B1E197"/>
<path d="M15.9999 9.60003V10.4001H15.1998V9.60003H15.9999Z" fill="#45BB3A"/>
<path d="M15.9999 8.80053V9.60059H15.1998V8.80053H15.9999Z" fill="#45BB3A"/>
<path d="M15.9999 7.99994V8.7998H15.1998V7.99994H15.9999Z" fill="#45BB3A"/>
<path d="M15.9999 7.20031V8.00037H15.1998V7.20031H15.9999Z" fill="#B1E197"/>
<path d="M15.9999 6.40014V7.2002H15.1998V6.40014H15.9999Z" fill="#B1E197"/>
<path d="M15.9999 5.60022V6.40009H15.1998V5.60022H15.9999Z" fill="#B1E197"/>
<path d="M15.9999 4.80053V5.60059H15.1998V4.80053H15.9999Z" fill="#211D1D"/>
<path d="M15.9999 4.00042V4.80048H15.1998V4.00042H15.9999Z" fill="#211D1D"/>
<path d="M15.9999 3.20031V4.00037H15.1998V3.20031H15.9999Z" fill="#211D1D"/>
<path d="M15.9999 2.40033V3.2002H15.1998V2.40033H15.9999Z" fill="#211D1D"/>
<path d="M15.9999 1.60003V2.40009H15.1998V1.60003H15.9999Z" fill="#211D1D"/>
<path d="M15.2003 19.2002V20.0003H14.4004V19.2002H15.2003Z" fill="#211D1D"/>
<path d="M15.2003 18.4003V19.2002H14.4004V18.4003H15.2003Z" fill="#B1E197"/>
<path d="M15.2003 17.6V18.4001H14.4004V17.6H15.2003Z" fill="#B1E197"/>
<path d="M15.2003 16.8005V17.6006H14.4004V16.8005H15.2003Z" fill="#45BB3A"/>
<path d="M15.2003 15.9999V16.7998H14.4004V15.9999H15.2003Z" fill="#45BB3A"/>
<path d="M15.2003 15.2002V16.0003H14.4004V15.2002H15.2003Z" fill="#45BB3A"/>
<path d="M15.2003 14.3995V15.1995H14.4004V14.3995H15.2003Z" fill="#45BB3A"/>
<path d="M15.2003 13.6002V14.4001H14.4004V13.6002H15.2003Z" fill="#45BB3A"/>
<path d="M15.2003 12.8005V13.6006H14.4004V12.8005H15.2003Z" fill="#45BB3A"/>
<path d="M15.2003 11.9997V12.7998H14.4004V11.9997H15.2003Z" fill="#45BB3A"/>
<path d="M15.2003 11.2002V12.0003H14.4004V11.2002H15.2003Z" fill="#45BB3A"/>
<path d="M15.2003 10.4003V11.2002H14.4004V10.4003H15.2003Z" fill="#45BB3A"/>
<path d="M15.2003 9.60003V10.4001H14.4004V9.60003H15.2003Z" fill="#45BB3A"/>
<path d="M15.2003 8.80053V9.60059H14.4004V8.80053H15.2003Z" fill="#45BB3A"/>
<path d="M15.2003 7.99994V8.7998H14.4004V7.99994H15.2003Z" fill="#45BB3A"/>
<path d="M15.2003 7.20031V8.00037H14.4004V7.20031H15.2003Z" fill="#45BB3A"/>
<path d="M15.2003 6.40014V7.2002H14.4004V6.40014H15.2003Z" fill="#45BB3A"/>
<path d="M15.2003 5.60022V6.40009H14.4004V5.60022H15.2003Z" fill="#B1E197"/>
<path d="M15.2003 4.80053V5.60059H14.4004V4.80053H15.2003Z" fill="#B1E197"/>
<path d="M15.2003 3.99975V4.7998H14.4004V3.99975H15.2003Z" fill="#B1E197"/>
<path d="M15.2003 3.20031V4.00037H14.4004V3.20031H15.2003Z" fill="#B1E197"/>
<path d="M15.2003 2.39972V3.19958H14.4004V2.39972H15.2003Z" fill="#B1E197"/>
<path d="M15.2003 1.60003V2.40009H14.4004V1.60003H15.2003Z" fill="#B1E197"/>
<path d="M15.2003 0.800591V1.60065H14.4004V0.800591H15.2003Z" fill="#211D1D"/>
<path d="M14.3997 19.9997V20.7998H13.5996V19.9997H14.3997Z" fill="#211D1D"/>
<path d="M14.3997 19.2002V20.0003H13.5996V19.2002H14.3997Z" fill="#B1E197"/>
<path d="M14.3997 18.4003V19.2002H13.5996V18.4003H14.3997Z" fill="#45BB3A"/>
<path d="M14.3997 17.6V18.4001H13.5996V17.6H14.3997Z" fill="#45BB3A"/>
<path d="M14.3997 16.8005V17.6006H13.5996V16.8005H14.3997Z" fill="#45BB3A"/>
<path d="M14.3997 16.0006V16.8005H13.5996V16.0006H14.3997Z" fill="#36B63F"/>
<path d="M14.3997 15.2002V16.0003H13.5996V15.2002H14.3997Z" fill="#36B63F"/>
<path d="M14.3997 14.4001V15.2002H13.5996V14.4001H14.3997Z" fill="#36B63F"/>
<path d="M14.3997 13.6002V14.4001H13.5996V13.6002H14.3997Z" fill="#45BB3A"/>
<path d="M14.3997 12.8005V13.6006H13.5996V12.8005H14.3997Z" fill="#45BB3A"/>
<path d="M14.3997 11.9997V12.7998H13.5996V11.9997H14.3997Z" fill="#45BB3A"/>
<path d="M14.3997 11.2002V12.0003H13.5996V11.2002H14.3997Z" fill="#36B63F"/>
<path d="M14.3997 10.4003V11.2002H13.5996V10.4003H14.3997Z" fill="#36B63F"/>
<path d="M14.3997 9.60003V10.4001H13.5996V9.60003H14.3997Z" fill="#36B63F"/>
<path d="M14.3997 8.80053V9.60059H13.5996V8.80053H14.3997Z" fill="#36B63F"/>
<path d="M14.3997 7.99994V8.7998H13.5996V7.99994H14.3997Z" fill="#36B63F"/>
<path d="M14.3997 7.20031V8.00037H13.5996V7.20031H14.3997Z" fill="#36B63F"/>
<path d="M14.3997 6.40014V7.2002H13.5996V6.40014H14.3997Z" fill="#45BB3A"/>
<path d="M14.3997 5.60022V6.40009H13.5996V5.60022H14.3997Z" fill="#45BB3A"/>
<path d="M14.3997 4.80053V5.60059H13.5996V4.80053H14.3997Z" fill="#45BB3A"/>
<path d="M14.3997 4.00042V4.80048H13.5996V4.00042H14.3997Z" fill="#45BB3A"/>
<path d="M14.3997 3.20031V4.00037H13.5996V3.20031H14.3997Z" fill="#45BB3A"/>
<path d="M14.3997 2.40033V3.2002H13.5996V2.40033H14.3997Z" fill="#45BB3A"/>
<path d="M14.3997 1.60003V2.40009H13.5996V1.60003H14.3997Z" fill="#B1E197"/>
<path d="M14.3997 0.800591V1.60065H13.5996V0.800591H14.3997Z" fill="#B1E197"/>
<path d="M14.3997 3.75509e-06V0.799866H13.5996V3.75509e-06H14.3997Z" fill="#211D1D"/>
<path d="M13.5995 20.8005V21.6006L12.7994 21.6004V20.8005H13.5995Z" fill="#211D1D"/>
<path d="M13.5995 19.9997V20.7998H12.7994V19.9997H13.5995Z" fill="#B1E197"/>
<path d="M13.5995 19.2002V20.0003H12.7994V19.2002H13.5995Z" fill="#45BB3A"/>
<path d="M13.5995 18.4003V19.2002H12.7994V18.4003H13.5995Z" fill="#45BB3A"/>
<path d="M13.5995 17.6V18.4001H12.7994V17.6H13.5995Z" fill="#36B63F"/>
<path d="M13.5995 16.8005V17.6006H12.7994V16.8005H13.5995Z" fill="#36B63F"/>
<path d="M13.5995 15.9999V16.7998H12.7994V15.9999H13.5995Z" fill="#36B63F"/>
<path d="M13.5995 15.2002V16.0003H12.7994V15.2002H13.5995Z" fill="#36B63F"/>
<path d="M13.5995 14.3995V15.1995H12.7994V14.3995H13.5995Z" fill="#36B63F"/>
<path d="M13.5995 13.6002V14.4001H12.7994V13.6002H13.5995Z" fill="#36B63F"/>
<path d="M13.5995 12.8005V13.6006H12.7994V12.8005H13.5995Z" fill="#36B63F"/>
<path d="M13.5995 11.9997V12.7998H12.7994V11.9997H13.5995Z" fill="#36B63F"/>
<path d="M13.5995 11.2002V12.0003H12.7994V11.2002H13.5995Z" fill="#36B63F"/>
<path d="M13.5995 10.4003V11.2002H12.7994V10.4003H13.5995Z" fill="#36B63F"/>
<path d="M13.5995 9.60003V10.4001H12.7994V9.60003H13.5995Z" fill="#36B63F"/>
<path d="M13.5995 8.80053V9.60059H12.7994V8.80053H13.5995Z" fill="#36B63F"/>
<path d="M13.5995 7.99994V8.7998H12.7994V7.99994H13.5995Z" fill="#36B63F"/>
<path d="M13.5995 7.20031V8.00037H12.7994V7.20031H13.5995Z" fill="#36B63F"/>
<path d="M13.5995 6.40014V7.2002H12.7994V6.40014H13.5995Z" fill="#45BB3A"/>
<path d="M13.5995 5.60022V6.40009H12.7994V5.60022H13.5995Z" fill="#45BB3A"/>
<path d="M13.5995 4.80053V5.60059H12.7994V4.80053H13.5995Z" fill="#45BB3A"/>
<path d="M13.5995 3.99975V4.7998H12.7994V3.99975H13.5995Z" fill="#45BB3A"/>
<path d="M13.5995 3.20031V4.00037H12.7994V3.20031H13.5995Z" fill="#45BB3A"/>
<path d="M13.5995 2.39972V3.19958H12.7994V2.39972H13.5995Z" fill="#45BB3A"/>
<path d="M13.5995 1.60003V2.40009H12.7994V1.60003H13.5995Z" fill="#45BB3A"/>
<path d="M13.5995 0.800591V1.60065H12.7994V0.800591H13.5995Z" fill="#267736"/>
<path d="M13.5995 3.75509e-06V0.799866H12.7994V3.75509e-06H13.5995Z" fill="#211D1D"/>
<path d="M12.7999 21.6V22.4H12V21.6H12.7999Z" fill="#211D1D"/>
<path d="M12.7999 20.8001V21.5999H12V20.8001H12.7999Z" fill="#B1E197"/>
<path d="M12.7999 19.9997V20.7998H12V19.9997H12.7999Z" fill="#45BB3A"/>
<path d="M12.7999 19.2002V20.0003H12V19.2002H12.7999Z" fill="#45BB3A"/>
<path d="M12.7999 18.4003V19.2002H12V18.4003H12.7999Z" fill="#36B63F"/>
<path d="M12.7999 17.6V18.4001H12V17.6H12.7999Z" fill="#36B63F"/>
<path d="M12.7999 16.8005V17.6006H12V16.8005H12.7999Z" fill="#36B63F"/>
<path d="M12.7999 16.0006V16.8005H12V16.0006H12.7999Z" fill="#36B63F"/>
<path d="M12.7999 15.2002V16.0003H12V15.2002H12.7999Z" fill="#36B63F"/>
<path d="M12.7999 14.4001V15.2002H12V14.4001H12.7999Z" fill="#36B63F"/>
<path d="M12.7999 13.6002V14.4001H12V13.6002H12.7999Z" fill="#267736"/>
<path d="M12.7999 12.8005V13.6006H12V12.8005H12.7999Z" fill="#267736"/>
<path d="M12.7999 11.9997V12.7998H12V11.9997H12.7999Z" fill="#267736"/>
<path d="M12.7999 11.2002V12.0003H12V11.2002H12.7999Z" fill="#267736"/>
<path d="M12.7999 10.4003V11.2002H12V10.4003H12.7999Z" fill="#267736"/>
<path d="M12.7999 9.60003V10.4001H12V9.60003H12.7999Z" fill="#267736"/>
<path d="M12.7999 8.80053V9.60059H12V8.80053H12.7999Z" fill="#36B63F"/>
<path d="M12.7999 7.99994V8.7998H12V7.99994H12.7999Z" fill="#36B63F"/>
<path d="M12.7999 7.20031V8.00037H12V7.20031H12.7999Z" fill="#36B63F"/>
<path d="M12.7999 6.40014V7.2002H12V6.40014H12.7999Z" fill="#36B63F"/>
<path d="M12.7999 5.60022V6.40009H12V5.60022H12.7999Z" fill="#36B63F"/>
<path d="M12.7999 4.80053V5.60059H12V4.80053H12.7999Z" fill="#36B63F"/>
<path d="M12.7999 4.00042V4.80048H12V4.00042H12.7999Z" fill="#36B63F"/>
<path d="M12.7999 3.20031V4.00037H12V3.20031H12.7999Z" fill="#36B63F"/>
<path d="M12.7999 2.40033V3.2002H12V2.40033H12.7999Z" fill="#45BB3A"/>
<path d="M12.7999 1.60003V2.40009H12V1.60003H12.7999Z" fill="#267736"/>
<path d="M12.7999 0.800591V1.60065H12V0.800591H12.7999Z" fill="#211D1D"/>
<path d="M12.0005 22.4001V23.2002H11.2004V22.4001H12.0005Z" fill="#211D1D"/>
<path d="M12.0005 21.6V22.4H11.2004V21.6H12.0005Z" fill="#267736"/>
<path d="M12.0005 20.8001V21.5999H11.2004V20.8001H12.0005Z" fill="#267736"/>
<path d="M12.0005 19.9997V20.7998H11.2004V19.9997H12.0005Z" fill="#267736"/>
<path d="M12.0005 19.2002V20.0003H11.2004V19.2002H12.0005Z" fill="#267736"/>
<path d="M12.0005 18.4003V19.2002H11.2004V18.4003H12.0005Z" fill="#36B63F"/>
<path d="M12.0005 17.6V18.4001H11.2004V17.6H12.0005Z" fill="#267736"/>
<path d="M12.0005 16.8005V17.6006H11.2004V16.8005H12.0005Z" fill="#267736"/>
<path d="M12.0005 15.9999V16.7998H11.2004V15.9999H12.0005Z" fill="#267736"/>
<path d="M12.0005 15.2002V16.0003H11.2004V15.2002H12.0005Z" fill="#267736"/>
<path d="M12.0005 14.3995V15.1995H11.2004V14.3995H12.0005Z" fill="#267736"/>
<path d="M12.0005 13.6002V14.4001H11.2004V13.6002H12.0005Z" fill="#F9D409"/>
<path d="M12.0005 12.8005V13.6006H11.2004V12.8005H12.0005Z" fill="#F9D409"/>
<path d="M12.0005 11.9997V12.7998H11.2004V11.9997H12.0005Z" fill="#D9E70C"/>
<path d="M12.0005 11.2002V12.0003H11.2004V11.2002H12.0005Z" fill="#F9AA0C"/>
<path d="M12.0005 10.4003V11.2002H11.2004V10.4003H12.0005Z" fill="#F9D409"/>
<path d="M12.0005 9.60003V10.4001H11.2004V9.60003H12.0005Z" fill="#F9D409"/>
<path d="M12.0005 8.80053V9.60059H11.2004V8.80053H12.0005Z" fill="#267736"/>
<path d="M12.0005 7.99994V8.7998H11.2004V7.99994H12.0005Z" fill="#267736"/>
<path d="M12.0005 7.20031V8.00037H11.2004V7.20031H12.0005Z" fill="#267736"/>
<path d="M12.0005 6.40014V7.2002H11.2004V6.40014H12.0005Z" fill="#267736"/>
<path d="M12.0005 5.60022V6.40009H11.2004V5.60022H12.0005Z" fill="#267736"/>
<path d="M12.0005 4.80053V5.60059H11.2004V4.80053H12.0005Z" fill="#267736"/>
<path d="M12.0005 3.99975V4.7998H11.2004V3.99975H12.0005Z" fill="#267736"/>
<path d="M12.0005 3.20031V4.00037H11.2004V3.20031H12.0005Z" fill="#267736"/>
<path d="M12.0005 2.39972V3.19958H11.2004V2.39972H12.0005Z" fill="#267736"/>
<path d="M12.0005 1.60003V2.40009H11.2004V1.60003H12.0005Z" fill="#D9E70C"/>
<path d="M12.0005 0.800591V1.60065H11.2004V0.800591H12.0005Z" fill="#211D1D"/>
<path d="M11.1997 23.2002V24.0003H10.3997V23.2002H11.1997Z" fill="#211D1D"/>
<path d="M11.1997 22.4001V23.2002H10.3997V22.4001H11.1997Z" fill="#267736"/>
<path d="M11.1997 21.6V22.4H10.3997V21.6H11.1997Z" fill="#B1E197"/>
<path d="M11.1997 20.8001V21.5999H10.3997V20.8001H11.1997Z" fill="#B1E197"/>
<path d="M11.1997 19.9997V20.7998H10.3997V19.9997H11.1997Z" fill="#B1E197"/>
<path d="M11.1997 19.2002V20.0003H10.3997V19.2002H11.1997Z" fill="#B1E197"/>
<path d="M11.1997 18.4003V19.2002H10.3997V18.4003H11.1997Z" fill="#267736"/>
<path d="M11.1997 17.6V18.4001H10.3997V17.6H11.1997Z" fill="#D9E70C"/>
<path d="M11.1997 16.8005V17.6006H10.3997V16.8005H11.1997Z" fill="#D9E70C"/>
<path d="M11.1997 16.0006V16.8005H10.3997V16.0006H11.1997Z" fill="#F9D409"/>
<path d="M11.1997 15.2002V16.0003H10.3997V15.2002H11.1997Z" fill="#F9D409"/>
<path d="M11.1997 14.4001V15.2002H10.3997V14.4001H11.1997Z" fill="#F9D409"/>
<path d="M11.1997 13.6002V14.4001H10.3997V13.6002H11.1997Z" fill="#F9AA0C"/>
<path d="M11.1997 12.8005V13.6006H10.3997V12.8005H11.1997Z" fill="#F9AA0C"/>
<path d="M11.1997 11.9997V12.7998H10.3997V11.9997H11.1997Z" fill="#F9AA0C"/>
<path d="M11.1997 11.2002V12.0003H10.3997V11.2002H11.1997Z" fill="#D9E70C"/>
<path d="M11.1997 10.4003V11.2002H10.3997V10.4003H11.1997Z" fill="#F9AA0C"/>
<path d="M11.1997 9.60003V10.4001H10.3997V9.60003H11.1997Z" fill="#F9AA0C"/>
<path d="M11.1997 8.80053V9.60059H10.3997V8.80053H11.1997Z" fill="#F9AA0C"/>
<path d="M11.1997 7.99994V8.7998H10.3997V7.99994H11.1997Z" fill="#D9E70C"/>
<path d="M11.1997 7.20031V8.00037H10.3997V7.20031H11.1997Z" fill="#F9AA0C"/>
<path d="M11.1997 6.40014V7.2002H10.3997V6.40014H11.1997Z" fill="#F9AA0C"/>
<path d="M11.1997 5.60022V6.40009H10.3997V5.60022H11.1997Z" fill="#F9AA0C"/>
<path d="M11.1997 4.80053V5.60059H10.3997V4.80053H11.1997Z" fill="#D9E70C"/>
<path d="M11.1997 4.00042V4.80048H10.3997V4.00042H11.1997Z" fill="#F9AA0C"/>
<path d="M11.1997 3.20031V4.00037H10.3997V3.20031H11.1997Z" fill="#F9AA0C"/>
<path d="M11.1997 2.40033V3.2002H10.3997V2.40033H11.1997Z" fill="#F9AA0C"/>
<path d="M11.1997 1.60003V2.40009H10.3997V1.60003H11.1997Z" fill="#F9AA0C"/>
<path d="M11.1997 0.800591V1.60065H10.3997V0.800591H11.1997Z" fill="#211D1D"/>
<path d="M10.3996 22.4001V23.2002H9.59961V22.4001H10.3996Z" fill="#211D1D"/>
<path d="M10.3996 21.6V22.4H9.59961V21.6H10.3996Z" fill="#36B63F"/>
<path d="M10.3996 20.8001V21.5999H9.59961V20.8001H10.3996Z" fill="#36B63F"/>
<path d="M10.3996 19.9997V20.7998H9.59961V19.9997H10.3996Z" fill="#36B63F"/>
<path d="M10.3996 19.2002V20.0003H9.59961V19.2002H10.3996Z" fill="#36B63F"/>
<path d="M10.3996 18.4003V19.2002H9.59961V18.4003H10.3996Z" fill="#B1E197"/>
<path d="M10.3996 17.6V18.4001H9.59961V17.6H10.3996Z" fill="#267736"/>
<path d="M10.3996 16.8005V17.6006H9.59961V16.8005H10.3996Z" fill="#267736"/>
<path d="M10.3996 15.9999V16.7998H9.59961V15.9999H10.3996Z" fill="#F9D409"/>
<path d="M10.3996 15.2002V16.0003H9.59961V15.2002H10.3996Z" fill="#F9AA0C"/>
<path d="M10.3996 14.3995V15.1995H9.59961V14.3995H10.3996Z" fill="#F9AA0C"/>
<path d="M10.3996 13.6002V14.4001H9.59961V13.6002H10.3996Z" fill="#F9D409"/>
<path d="M10.3996 12.8005V13.6006H9.59961V12.8005H10.3996Z" fill="#F9D409"/>
<path d="M10.3996 11.9997V12.7998H9.59961V11.9997H10.3996Z" fill="#D9E70C"/>
<path d="M10.3996 11.2002V12.0003H9.59961V11.2002H10.3996Z" fill="#F9AA0C"/>
<path d="M10.3996 10.4003V11.2002H9.59961V10.4003H10.3996Z" fill="#F9D409"/>
<path d="M10.3996 9.60003V10.4001H9.59961V9.60003H10.3996Z" fill="#F9D409"/>
<path d="M10.3996 8.80053V9.60059H9.59961V8.80053H10.3996Z" fill="#D9E70C"/>
<path d="M10.3996 7.99994V8.7998H9.59961V7.99994H10.3996Z" fill="#F9AA0C"/>
<path d="M10.3996 7.20031V8.00037H9.59961V7.20031H10.3996Z" fill="#F9D409"/>
<path d="M10.3996 6.40014V7.2002H9.59961V6.40014H10.3996Z" fill="#F9D409"/>
<path d="M10.3996 5.60022V6.40009H9.59961V5.60022H10.3996Z" fill="#D9E70C"/>
<path d="M10.3996 4.80053V5.60059H9.59961V4.80053H10.3996Z" fill="#F9AA0C"/>
<path d="M10.3996 3.99975V4.7998H9.59961L9.59963 3.99975H10.3996Z" fill="#F9D409"/>
<path d="M10.3996 3.20031V4.00037H9.59961V3.20031H10.3996Z" fill="#F9D409"/>
<path d="M10.3996 2.39972V3.19958H9.59961V2.39972H10.3996Z" fill="#D9E70C"/>
<path d="M10.3996 1.60003V2.40009H9.59961V1.60003H10.3996Z" fill="#D9E70C"/>
<path d="M10.3996 0.800591V1.60065H9.59961V0.800591H10.3996Z" fill="#211D1D"/>
<path d="M9.59999 22.4001V23.2002H8.80005V22.4001H9.59999Z" fill="#211D1D"/>
<path d="M9.59999 21.6V22.4H8.80005V21.6H9.59999Z" fill="#45BB3A"/>
<path d="M9.59999 20.8001V21.5999H8.80005V20.8001H9.59999Z" fill="#45BB3A"/>
<path d="M9.59999 19.9997V20.7998H8.80005V19.9997H9.59999Z" fill="#36B63F"/>
<path d="M9.59999 19.2002V20.0003H8.80005V19.2002H9.59999Z" fill="#36B63F"/>
<path d="M9.59999 18.4003V19.2002H8.80005V18.4003H9.59999Z" fill="#36B63F"/>
<path d="M9.59999 17.6V18.4001H8.80005V17.6H9.59999Z" fill="#B1E197"/>
<path d="M9.59999 16.8005V17.6006H8.80005V16.8005H9.59999Z" fill="#2E9E3F"/>
<path d="M9.59999 16.0006V16.8005H8.80005V16.0006H9.59999Z" fill="#267736"/>
<path d="M9.59999 15.2002V16.0003H8.80005V15.2002H9.59999Z" fill="#F9D409"/>
<path d="M9.59999 14.4001V15.2002H8.80005V14.4001H9.59999Z" fill="#D9E70C"/>
<path d="M9.59999 13.6002V14.4001H8.80005V13.6002H9.59999Z" fill="#F9AA0C"/>
<path d="M9.59999 12.8005V13.6006H8.80005V12.8005H9.59999Z" fill="#F9D409"/>
<path d="M9.59999 11.9997V12.7998H8.80005V11.9997H9.59999Z" fill="#D9E70C"/>
<path d="M9.59999 11.2002V12.0003H8.80005V11.2002H9.59999Z" fill="#F9AA0C"/>
<path d="M9.59999 10.4003V11.2002H8.80005V10.4003H9.59999Z" fill="#F9D409"/>
<path d="M9.59999 9.60003V10.4001H8.80005V9.60003H9.59999Z" fill="#D9E70C"/>
<path d="M9.59999 8.80053V9.60059H8.80005V8.80053H9.59999Z" fill="#D9E70C"/>
<path d="M9.59999 7.99994V8.7998H8.80005V7.99994H9.59999Z" fill="#F9AA0C"/>
<path d="M9.59999 7.20031V8.00037H8.80005V7.20031H9.59999Z" fill="#F9D409"/>
<path d="M9.59999 6.40014V7.2002H8.80005V6.40014H9.59999Z" fill="#D9E70C"/>
<path d="M9.59999 5.60022V6.40009H8.80005V5.60022H9.59999Z" fill="#D9E70C"/>
<path d="M9.59999 4.80053V5.60059H8.80005V4.80053H9.59999Z" fill="#F9AA0C"/>
<path d="M9.60001 4.00042L9.59999 4.80048H8.80005V4.00042H9.60001Z" fill="#F9D409"/>
<path d="M9.60001 3.20031V4.00037H8.80005V3.20031H9.60001Z" fill="#D9E70C"/>
<path d="M9.60001 2.40033V3.2002H8.80005V2.40033H9.60001Z" fill="#D9E70C"/>
<path d="M9.60001 1.60003V2.40009H8.80005L8.80007 1.60003H9.60001Z" fill="#D9E70C"/>
<path d="M9.59999 0.800591V1.60065H8.80005V0.800591H9.59999Z" fill="#211D1D"/>
<path d="M8.79996 21.6V22.4H8V21.6H8.79996Z" fill="#211D1D"/>
<path d="M8.79996 20.8001V21.5999H8V20.8001H8.79996Z" fill="#45BB3A"/>
<path d="M8.79996 19.9997V20.7998H8V19.9997H8.79996Z" fill="#45BB3A"/>
<path d="M8.79996 19.2002V20.0003H8V19.2002H8.79996Z" fill="#36B63F"/>
<path d="M8.79996 18.4003V19.2002H8V18.4003H8.79996Z" fill="#36B63F"/>
<path d="M8.79996 17.6V18.4001H8V17.6H8.79996Z" fill="#36B63F"/>
<path d="M8.79996 16.8005V17.6006H8V16.8005H8.79996Z" fill="#2E9E3F"/>
<path d="M8.79996 15.9999V16.7998H8V15.9999H8.79996Z" fill="#267736"/>
<path d="M8.79996 15.2002V16.0003H8L8.00002 15.2002H8.79996Z" fill="#267736"/>
<path d="M8.79994 14.3995V15.1995H8V14.3995H8.79994Z" fill="#267736"/>
<path d="M8.79994 13.6002V14.4001H8V13.6002H8.79994Z" fill="#D9E70C"/>
<path d="M8.79994 12.8005V13.6006H8V12.8005H8.79994Z" fill="#F9AA0C"/>
<path d="M8.79994 11.9997V12.7998H8V11.9997H8.79994Z" fill="#F9AA0C"/>
<path d="M8.79994 11.2002V12.0003H8V11.2002H8.79994Z" fill="#D9E70C"/>
<path d="M8.79994 10.4003V11.2002H8V10.4003H8.79994Z" fill="#F9AA0C"/>
<path d="M8.79994 9.60003V10.4001H8V9.60003H8.79994Z" fill="#F9AA0C"/>
<path d="M8.79994 8.80053V9.60059H8V8.80053H8.79994Z" fill="#F9AA0C"/>
<path d="M8.79994 7.99994V8.7998H8V7.99994H8.79994Z" fill="#D9E70C"/>
<path d="M8.79994 7.20031V8.00037H8V7.20031H8.79994Z" fill="#F9AA0C"/>
<path d="M8.79994 6.40014V7.2002H8V6.40014H8.79994Z" fill="#F9AA0C"/>
<path d="M8.79994 5.60022V6.40009H8V5.60022H8.79994Z" fill="#F9AA0C"/>
<path d="M8.79994 4.80053V5.60059H8V4.80053H8.79994Z" fill="#D9E70C"/>
<path d="M8.79994 3.99975V4.7998H8V3.99975H8.79994Z" fill="#F9AA0C"/>
<path d="M8.79994 3.20031V4.00037H8V3.20031H8.79994Z" fill="#F9AA0C"/>
<path d="M8.79994 2.39972V3.19958H8V2.39972H8.79994Z" fill="#F9AA0C"/>
<path d="M8.79996 1.60003L8.79994 2.40009H8V1.60003H8.79996Z" fill="#211D1D"/>
<path d="M8.00067 20.8001V21.5999H7.20056V20.8001H8.00067Z" fill="#211D1D"/>
<path d="M8.00067 19.9997V20.7998H7.20056V19.9997H8.00067Z" fill="#45BB3A"/>
<path d="M8.00067 19.2002V20.0003H7.20056V19.2002H8.00067Z" fill="#45BB3A"/>
<path d="M8.00067 18.4003V19.2002H7.20056V18.4003H8.00067Z" fill="#36B63F"/>
<path d="M8.00067 17.6V18.4001H7.20056L7.20058 17.6H8.00067Z" fill="#36B63F"/>
<path d="M8.00066 16.8005V17.6006H7.20056V16.8005H8.00066Z" fill="#2E9E3F"/>
<path d="M8.00066 16.0006V16.8005H7.20056V16.0006H8.00066Z" fill="#267736"/>
<path d="M8.00068 15.2002L8.00066 16.0003H7.20056V15.2002H8.00068Z" fill="#5AC134"/>
<path d="M8.00068 14.4001V15.2002H7.20056V14.4001H8.00068Z" fill="#5AC134"/>
<path d="M8.00068 13.6002V14.4001H7.20056V13.6002H8.00068Z" fill="#267736"/>
<path d="M8.00068 12.8005V13.6006H7.20056V12.8005H8.00068Z" fill="#F9D409"/>
<path d="M8.00068 11.9997V12.7998H7.20056V11.9997H8.00068Z" fill="#F9D409"/>
<path d="M8.00068 11.2002V12.0003H7.20056V11.2002H8.00068Z" fill="#F9AA0C"/>
<path d="M8.00068 10.4003V11.2002H7.20056V10.4003H8.00068Z" fill="#D9E70C"/>
<path d="M8.00068 9.60003V10.4001H7.20056V9.60003H8.00068Z" fill="#D9E70C"/>
<path d="M8.00068 8.80053V9.60059H7.20056V8.80053H8.00068Z" fill="#F9D409"/>
<path d="M8.00068 7.99994V8.7998H7.20056V7.99994H8.00068Z" fill="#F9AA0C"/>
<path d="M8.00068 7.20031V8.00037H7.20056V7.20031H8.00068Z" fill="#D9E70C"/>
<path d="M8.00068 6.40014V7.2002H7.20056V6.40014H8.00068Z" fill="#D9E70C"/>
<path d="M8.00068 5.60022V6.40009H7.20056V5.60022H8.00068Z" fill="#F9D409"/>
<path d="M8.00068 4.80053V5.60059H7.20056V4.80053H8.00068Z" fill="#F9AA0C"/>
<path d="M8.00068 4.00042V4.80048H7.20056V4.00042H8.00068Z" fill="#D9E70C"/>
<path d="M8.00068 3.20031V4.00037H7.20056V3.20031H8.00068Z" fill="#F9D409"/>
<path d="M8.00068 2.40033V3.2002H7.20056V2.40033H8.00068Z" fill="#211D1D"/>
<path d="M7.20033 19.9997V20.7998H6.40039V19.9997H7.20033Z" fill="#211D1D"/>
<path d="M7.20033 19.2002V20.0003H6.40039V19.2002H7.20033Z" fill="#45BB3A"/>
<path d="M7.20033 18.4003V19.2002H6.40039V18.4003H7.20033Z" fill="#36B63F"/>
<path d="M7.20035 17.6L7.20033 18.4001H6.40039V17.6H7.20035Z" fill="#2E9E3F"/>
<path d="M7.20035 16.8005V17.6006H6.40039V16.8005H7.20035Z" fill="#267736"/>
<path d="M7.20035 15.9999V16.7998H6.40039L6.40041 15.9999H7.20035Z" fill="#5AC134"/>
<path d="M7.20033 15.2002V16.0003H6.40039V15.2002H7.20033Z" fill="#76CB51"/>
<path d="M7.20033 14.3995V15.1995H6.40039V14.3995H7.20033Z" fill="#5AC134"/>
<path d="M7.20033 13.6002V14.4001H6.40039V13.6002H7.20033Z" fill="#5AC134"/>
<path d="M7.20033 12.8005V13.6006H6.40039V12.8005H7.20033Z" fill="#267736"/>
<path d="M7.20033 11.9997V12.7998H6.40039V11.9997H7.20033Z" fill="#F9D409"/>
<path d="M7.20033 11.2002V12.0003H6.40039V11.2002H7.20033Z" fill="#F9AA0C"/>
<path d="M7.20033 10.4003V11.2002H6.40039V10.4003H7.20033Z" fill="#D9E70C"/>
<path d="M7.20033 9.60003V10.4001H6.40039V9.60003H7.20033Z" fill="#F9D409"/>
<path d="M7.20033 8.80053V9.60059H6.40039V8.80053H7.20033Z" fill="#F9AA0C"/>
<path d="M7.20033 7.99994V8.7998H6.40039V7.99994H7.20033Z" fill="#D9E70C"/>
<path d="M7.20033 7.20031V8.00037H6.40039V7.20031H7.20033Z" fill="#D9E70C"/>
<path d="M7.20033 6.40014V7.2002H6.40039V6.40014H7.20033Z" fill="#F9D409"/>
<path d="M7.20033 5.60022V6.40009H6.40039V5.60022H7.20033Z" fill="#F9D409"/>
<path d="M7.20033 4.80053V5.60059H6.40039V4.80053H7.20033Z" fill="#211D1D"/>
<path d="M7.20033 3.99975V4.7998H6.40039V3.99975H7.20033Z" fill="#211D1D"/>
<path d="M7.20033 3.20031V4.00037H6.40039V3.20031H7.20033Z" fill="#211D1D"/>
<path d="M6.39955 19.2002V20.0003H5.59961V19.2002H6.39955Z" fill="#211D1D"/>
<path d="M6.39955 18.4003V19.2002H5.59961V18.4003H6.39955Z" fill="#211D1D"/>
<path d="M6.39955 17.6V18.4001H5.59961V17.6H6.39955Z" fill="#267736"/>
<path d="M6.39955 16.8005V17.6006H5.59961V16.8005H6.39955Z" fill="#267736"/>
<path d="M6.39957 15.9999L6.39955 16.7998H5.59961V15.9999H6.39957Z" fill="#5AC134"/>
<path d="M6.39957 15.2002V16.0003H5.59961V15.2002H6.39957Z" fill="#76CB51"/>
<path d="M6.39957 14.3995V15.1995H5.59961V14.3995H6.39957Z" fill="#76CB51"/>
<path d="M6.39957 13.6002V14.4001H5.59961V13.6002H6.39957Z" fill="#5AC134"/>
<path d="M6.39957 12.8005V13.6006H5.59961V12.8005H6.39957Z" fill="#267736"/>
<path d="M6.39957 11.9997V12.7998H5.59961V11.9997H6.39957Z" fill="#F9AA0C"/>
<path d="M6.39957 11.2002V12.0003H5.59961V11.2002H6.39957Z" fill="#D9E70C"/>
<path d="M6.39957 10.4003V11.2002H5.59961V10.4003H6.39957Z" fill="#F9D409"/>
<path d="M6.39957 9.60003V10.4001H5.59961V9.60003H6.39957Z" fill="#F9D409"/>
<path d="M6.39957 8.80053V9.60059H5.59961V8.80053H6.39957Z" fill="#211D1D"/>
<path d="M6.39957 7.99994V8.7998H5.59961V7.99994H6.39957Z" fill="#211D1D"/>
<path d="M6.39957 7.20031V8.00037H5.59961V7.20031H6.39957Z" fill="#211D1D"/>
<path d="M6.39957 6.40014V7.2002H5.59961V6.40014H6.39957Z" fill="#211D1D"/>
<path d="M6.39957 5.60022V6.40009H5.59961V5.60022H6.39957Z" fill="#211D1D"/>
<path d="M5.59955 17.6V18.4001H4.79944V17.6H5.59955Z" fill="#211D1D"/>
<path d="M5.59955 16.8005V17.6006H4.79944V16.8005H5.59955Z" fill="#267736"/>
<path d="M5.59955 16.0006V16.8005H4.79944V16.0006H5.59955Z" fill="#76CB51"/>
<path d="M5.59955 15.2002V16.0003H4.79944V15.2002H5.59955Z" fill="#76CB51"/>
<path d="M5.59955 14.4001V15.2002H4.79944V14.4001H5.59955Z" fill="#76CB51"/>
<path d="M5.59955 13.6002V14.4001H4.79944V13.6002H5.59955Z" fill="#5AC134"/>
<path d="M5.59955 12.8005V13.6006H4.79944V12.8005H5.59955Z" fill="#5AC134"/>
<path d="M5.59955 11.9997V12.7998H4.79944V11.9997H5.59955Z" fill="#267736"/>
<path d="M5.59955 11.2002V12.0003H4.79944V11.2002H5.59955Z" fill="#211D1D"/>
<path d="M5.59955 10.4003V11.2002H4.79944V10.4003H5.59955Z" fill="#211D1D"/>
<path d="M5.59955 9.60003V10.4001H4.79944V9.60003H5.59955Z" fill="#211D1D"/>
<path d="M4.79994 17.6V18.4001H4V17.6H4.79994Z" fill="#211D1D"/>
<path d="M4.79994 16.8005V17.6006H4V16.8005H4.79994Z" fill="#267736"/>
<path d="M4.79994 15.9999V16.7998H4V15.9999H4.79994Z" fill="#B1E197"/>
<path d="M4.79994 15.2002V16.0003H4V15.2002H4.79994Z" fill="#76CB51"/>
<path d="M4.79994 14.3995V15.1995H4V14.3995H4.79994Z" fill="#76CB51"/>
<path d="M4.79994 13.6002V14.4001H4V13.6002H4.79994Z" fill="#76CB51"/>
<path d="M4.79994 12.8005V13.6006H4V12.8005H4.79994Z" fill="#5AC134"/>
<path d="M4.79994 11.9997V12.7998H4V11.9997H4.79994Z" fill="#211D1D"/>
<path d="M3.99979 16.8005V17.6006H3.19983V16.8005H3.99979Z" fill="#211D1D"/>
<path d="M3.99979 16.0006V16.8005H3.19983V16.0006H3.99979Z" fill="#B1E197"/>
<path d="M3.99979 15.2002V16.0003H3.19983V15.2002H3.99979Z" fill="#76CB51"/>
<path d="M3.99979 14.4001V15.2002H3.19983V14.4001H3.99979Z" fill="#76CB51"/>
<path d="M3.99979 13.6002V14.4001H3.19983V13.6002H3.99979Z" fill="#76CB51"/>
<path d="M3.99979 12.8005V13.6006H3.19983V12.8005H3.99979Z" fill="#5AC134"/>
<path d="M3.99979 11.9997V12.7998H3.19983L3.19985 11.9997H3.99979Z" fill="#211D1D"/>
<path d="M3.19916 15.9999V16.7998H2.39905V15.9999H3.19916Z" fill="#211D1D"/>
<path d="M3.19916 15.2002V16.0003H2.39905V15.2002H3.19916Z" fill="#B1E197"/>
<path d="M3.19916 14.3995V15.1995H2.39905L2.39907 14.3995H3.19916Z" fill="#76CB51"/>
<path d="M3.19914 13.6002V14.4001H2.39905V13.6002H3.19914Z" fill="#76CB51"/>
<path d="M3.19914 12.8005V13.6006H2.39905V12.8005H3.19914Z" fill="#5AC134"/>
<path d="M3.19916 11.9997L3.19914 12.7998H2.39905V11.9997H3.19916Z" fill="#211D1D"/>
<path d="M2.39955 16.0006V16.8005H1.59961V16.0006H2.39955Z" fill="#211D1D"/>
<path d="M2.39955 15.2002V16.0003H1.59961V15.2002H2.39955Z" fill="#B1E197"/>
<path d="M2.39957 14.4001L2.39955 15.2002H1.59961V14.4001H2.39957Z" fill="#76CB51"/>
<path d="M2.39957 13.6002V14.4001H1.59961V13.6002H2.39957Z" fill="#76CB51"/>
<path d="M2.39957 12.8005V13.6006H1.59961V12.8005H2.39957Z" fill="#5AC134"/>
<path d="M2.39957 11.9997V12.7998H1.59961V11.9997H2.39957Z" fill="#211D1D"/>
<path d="M1.59938 15.2002V16.0003H0.799438V15.2002H1.59938Z" fill="#211D1D"/>
<path d="M1.59938 14.3995V15.1995H0.799438V14.3995H1.59938Z" fill="#B1E197"/>
<path d="M1.59938 13.6002V14.4001H0.799438V13.6002H1.59938Z" fill="#76CB51"/>
<path d="M1.59938 12.8005V13.6006H0.799438V12.8005H1.59938Z" fill="#211D1D"/>
<path d="M0.799959 14.4001V15.2002H0V14.4001H0.799959Z" fill="#211D1D"/>
<path d="M0.799959 13.6002V14.4001H0V13.6002H0.799959Z" fill="#211D1D"/>
</svg>
