<svg width="99" height="46" viewBox="0 0 99 46" fill="none" xmlns="http://www.w3.org/2000/svg">
<path opacity="0.7" d="M98.959 31.391C98.959 25.652 94.307 21 88.568 21C87.676 21 86.816 21.125 85.991 21.336C84.345 14.27 78.021 9.001 70.455 9.001C69.861 9.001 69.275 9.039 68.699 9.103C65.308 3.646 59.278 0 52.381 0C42.758 0 34.811 7.081 33.408 16.312C33.327 16.31 33.248 16.3 33.166 16.3C28.29 16.3 24.088 19.14 22.092 23.251C20.643 22.366 18.947 21.847 17.126 21.847C12.768 21.847 9.09899 24.771 7.95599 28.764C7.51499 28.67 7.057 28.619 6.588 28.619C2.949 28.619 0 31.568 0 35.207C0 38.298 2.13299 40.886 5.00499 41.596C6.60999 43.622 10.684 45.064 15.469 45.064C20.027 45.064 23.942 43.755 25.692 41.88C27.747 43.057 30.832 43.807 34.282 43.807C38.325 43.807 41.857 42.777 43.827 41.235C45.798 42.777 49.33 43.807 53.374 43.807C58.141 43.807 62.202 42.376 63.82 40.362C66.044 42.376 71.626 43.807 78.178 43.807C83.318 43.807 87.856 42.925 90.654 41.574C95.393 40.606 98.959 36.414 98.959 31.391Z" fill="white"/>
</svg>
