<svg width="32" height="32" viewBox="0 0 32 32" fill="none" xmlns="http://www.w3.org/2000/svg">
<path d="M11.9976 18.5C13.1021 18.5 13.9976 17.6046 13.9976 16.5C13.9976 15.3954 13.1021 14.5 11.9976 14.5C10.893 14.5 9.99756 15.3954 9.99756 16.5C9.99756 17.6046 10.893 18.5 11.9976 18.5Z" fill="#7A2714"/>
<path d="M19.9976 18.5C21.1021 18.5 21.9976 17.6046 21.9976 16.5C21.9976 15.3954 21.1021 14.5 19.9976 14.5C18.893 14.5 17.9976 15.3954 17.9976 16.5C17.9976 17.6046 18.893 18.5 19.9976 18.5Z" fill="#7A2714"/>
<path d="M18.9087 21.8222L20.8812 25.7673C20.9814 25.9692 21.1471 26.1312 21.3512 26.2268C21.5554 26.3224 21.7859 26.3459 22.0051 26.2934C25.0725 25.5435 27.7167 24.236 29.6426 22.5621C29.7897 22.4356 29.8971 22.2694 29.9519 22.0833C30.0067 21.8973 30.0066 21.6994 29.9516 21.5134L25.7049 7.35758C25.662 7.21484 25.5879 7.08345 25.4878 6.97298C25.3878 6.8625 25.2644 6.77572 25.1266 6.71895C23.9268 6.22773 22.686 5.84361 21.4185 5.57108C21.177 5.51817 20.9245 5.55637 20.7095 5.67834C20.4945 5.80032 20.3321 5.99746 20.2536 6.23189L18.9371 10.1813" stroke="#7A2714" stroke-width="3" stroke-linecap="round" stroke-linejoin="round"/>
<path d="M13.0865 21.8222L11.1139 25.7673C11.0138 25.9692 10.8481 26.1312 10.6439 26.2268C10.4398 26.3224 10.2093 26.3458 9.99003 26.2934C6.9227 25.5435 4.27844 24.2361 2.35253 22.5621C2.20546 22.4356 2.09805 22.2694 2.04323 22.0833C1.98842 21.8973 1.98852 21.6994 2.04354 21.5134L6.29026 7.35757C6.33313 7.21483 6.40728 7.08345 6.50733 6.97297C6.60737 6.8625 6.73078 6.77571 6.86858 6.71894C8.06833 6.22772 9.30918 5.84361 10.5766 5.57108C10.8181 5.51817 11.0706 5.55637 11.2857 5.67834C11.5007 5.80032 11.663 5.99746 11.7415 6.23189L13.058 10.1813" stroke="#7A2714" stroke-width="3" stroke-linecap="round" stroke-linejoin="round"/>
<path d="M22.633 21C20.7325 21.6319 18.451 22 15.9976 22C13.5441 22 11.2627 21.6319 9.36206 21" stroke="#7A2714" stroke-width="3" stroke-linecap="round" stroke-linejoin="round"/>
<path d="M21.9976 10.8027C20.0446 10.2575 18.0251 9.98733 15.9976 10C13.97 9.98733 11.9505 10.2575 9.99756 10.8027" stroke="#7A2714" stroke-width="3" stroke-linecap="round" stroke-linejoin="round"/>
</svg>
