<svg width="184" height="73" viewBox="0 0 184 73" fill="none" xmlns="http://www.w3.org/2000/svg">
<path d="M29.4663 36.7544C29.0088 37.2997 28.1958 37.3703 27.6508 36.913L26.5401 35.981C25.9948 35.5235 25.9235 34.7107 26.381 34.1655L26.6918 33.795C27.1491 33.2501 27.9623 33.1787 28.5076 33.6362L29.6183 34.5682C30.1633 35.0255 30.2345 35.839 29.7772 36.384L29.4663 36.7544Z" fill="#FFEABA"/>
<path d="M32.9789 39.701C32.5214 40.2463 31.7086 40.3172 31.1634 39.8596L30.0526 38.9276C29.5071 38.4699 29.436 37.6574 29.8935 37.1121L30.2044 36.7417C30.6617 36.1967 31.4746 36.1251 32.0201 36.5828L33.1309 37.5149C33.6761 37.9724 33.747 38.7856 33.2897 39.3306L32.9789 39.701Z" fill="#FFEABA"/>
<path d="M36.4979 42.6548C36.0404 43.2001 35.2277 43.2709 34.6824 42.8134L33.572 41.8816C33.0267 41.4241 32.9551 40.6112 33.4126 40.0659L33.7234 39.6954C34.1807 39.1505 34.9942 39.0793 35.5394 39.5368L36.6499 40.4686C37.1952 40.9262 37.2661 41.7394 36.8088 42.2844L36.4979 42.6548Z" fill="#FFEABA"/>
<path d="M39.9828 45.5788C39.5253 46.1241 38.7128 46.1952 38.1676 45.7376L37.0568 44.8056C36.5116 44.3481 36.4399 43.5352 36.8974 42.9899L37.2083 42.6195C37.6656 42.0745 38.4791 42.0033 39.0243 42.4608L40.1351 43.3929C40.6803 43.8504 40.7509 44.6634 40.2937 45.2084L39.9828 45.5788Z" fill="#FFEABA"/>
<path d="M30.7007 42.4186C30.2432 42.9638 29.4302 43.035 28.885 42.5774L27.7742 41.6454C27.2287 41.1877 27.1578 40.3749 27.6153 39.8297L27.9259 39.4595C28.3835 38.9143 29.1964 38.8426 29.7419 39.3004L30.8527 40.2324C31.3979 40.6899 31.4688 41.5032 31.0113 42.0484L30.7007 42.4186Z" fill="#FFEABA"/>
<path d="M34.2212 45.3682C33.7637 45.9135 32.9507 45.9846 32.4055 45.5271L31.295 44.5953C30.7497 44.1377 30.6783 43.3246 31.1358 42.7793L31.4464 42.4091C31.904 41.8639 32.7175 41.7927 33.2627 42.2502L34.3732 43.182C34.9184 43.6396 34.9893 44.4528 34.5318 44.9981L34.2212 45.3682Z" fill="#FFEABA"/>
<path d="M28.3718 45.1974C27.9141 45.7429 27.1011 45.814 26.5558 45.3565L25.4451 44.4244C24.8995 43.9667 24.8287 43.1539 25.2864 42.6084L25.5968 42.2385C26.0546 41.693 26.8673 41.6216 27.4128 42.0794L28.5236 43.0114C29.0688 43.469 29.1399 44.2819 28.6822 44.8275L28.3718 45.1974Z" fill="#FFEABA"/>
<path d="M38.7761 26.4138C38.3641 26.9049 37.6325 26.9689 37.1419 26.5573L36.1425 25.7187C35.6514 25.3066 35.5871 24.5748 35.9992 24.0837L36.2786 23.7508C36.6904 23.2599 37.4223 23.1961 37.9134 23.6082L38.9128 24.4468C39.4033 24.8585 39.4673 25.59 39.0555 26.0808L38.7761 26.4138Z" fill="#FFEABA"/>
<path d="M41.9379 29.0649C41.5258 29.5559 40.7942 29.6199 40.3037 29.2083L39.304 28.3695C38.8129 27.9574 38.7489 27.2258 39.161 26.7347L39.4403 26.4017C39.8522 25.9109 40.5837 25.8469 41.0748 26.259L42.0745 27.0979C42.5651 27.5095 42.6291 28.241 42.2173 28.7319L41.9379 29.0649Z" fill="#FFEABA"/>
<path d="M45.1056 31.7249C44.6936 32.216 43.9617 32.2798 43.4714 31.8684L42.4717 31.0296C41.9809 30.6177 41.9169 29.8861 42.3289 29.395L42.6084 29.062C43.0202 28.5712 43.7518 28.5072 44.2426 28.9191L45.2423 29.7579C45.7326 30.1693 45.7968 30.9011 45.385 31.392L45.1056 31.7249Z" fill="#FFEABA"/>
<path d="M48.2436 34.3568C47.8315 34.8479 47.1002 34.9122 46.609 34.5001L45.6096 33.6615C45.1188 33.2497 45.0548 32.5181 45.4669 32.027L45.7463 31.694C46.1581 31.2032 46.8897 31.1392 47.3805 31.551L48.38 32.3896C48.8711 32.8017 48.9348 33.533 48.5229 34.0239L48.2436 34.3568Z" fill="#FFEABA"/>
<path d="M40.9844 24.1153C40.5931 24.5816 39.8982 24.6426 39.4316 24.2511L38.4824 23.4546C38.0161 23.0634 37.9549 22.3679 38.3462 21.9015L38.6116 21.5852C39.0031 21.1187 39.6982 21.0586 40.1645 21.4499L41.1137 22.2464C41.5803 22.6379 41.6414 23.3324 41.2499 23.799L40.9844 24.1153Z" fill="#FFEABA"/>
<path d="M43.9897 26.636C43.5984 27.1023 42.9037 27.1636 42.4374 26.7723L41.4876 25.9753C41.0213 25.5841 40.9604 24.8888 41.3517 24.4225L41.6172 24.1062C42.0087 23.6396 42.7035 23.5793 43.1698 23.9706L44.1196 24.7676C44.5859 25.1588 44.6466 25.8531 44.2551 26.3197L43.9897 26.636Z" fill="#FFEABA"/>
<path d="M47.0019 29.1644C46.6106 29.6307 45.9153 29.6915 45.4493 29.3005L44.4995 28.5035C44.0333 28.1123 43.9724 27.417 44.3637 26.9507L44.6291 26.6344C45.0206 26.1678 45.7154 26.1075 46.1817 26.4988L47.1315 27.2958C47.5975 27.6868 47.6589 28.3815 47.2674 28.8481L47.0019 29.1644Z" fill="#FFEABA"/>
<path d="M49.9792 31.6617C49.5879 32.128 48.8926 32.1888 48.4263 31.7976L47.4768 31.0008C47.0102 30.6093 46.95 29.9145 47.3412 29.4482L47.6067 29.1319C47.9982 28.6653 48.6924 28.6046 49.159 28.9961L50.1085 29.7928C50.5748 30.1841 50.6361 30.8788 50.2446 31.3454L49.9792 31.6617Z" fill="#FFEABA"/>
<path d="M43.1168 21.893C42.7449 22.3362 42.0852 22.3942 41.6423 22.0226L40.7395 21.2651C40.2972 20.8939 40.2389 20.2334 40.6108 19.7902L40.863 19.4897C41.2346 19.0468 41.8954 18.9892 42.3378 19.3603L43.2405 20.1178C43.6834 20.4895 43.7406 21.1495 43.369 21.5924L43.1168 21.893Z" fill="#FFEABA"/>
<path d="M45.9748 24.292C45.6029 24.7351 44.9428 24.7929 44.5 24.4213L43.5978 23.6643C43.1549 23.2927 43.0969 22.6324 43.4688 22.1892L43.7209 21.8887C44.0926 21.4458 44.7531 21.388 45.196 21.7597L46.0981 22.5167C46.541 22.8883 46.5986 23.5486 46.2269 23.9915L45.9748 24.292Z" fill="#FFEABA"/>
<path d="M48.8339 26.6918C48.462 27.135 47.8017 27.1926 47.3591 26.8212L46.4569 26.0642C46.014 25.6925 45.956 25.0323 46.3279 24.5891L46.5801 24.2885C46.9517 23.8456 47.6123 23.7878 48.0552 24.1595L48.9573 24.9165C49.3999 25.2879 49.4577 25.9484 49.0861 26.3913L48.8339 26.6918Z" fill="#FFEABA"/>
<path d="M51.6637 29.0665C51.2918 29.5097 50.6312 29.567 50.1883 29.1954L49.2867 28.4389C48.8433 28.0668 48.7858 27.4069 49.1577 26.9638L49.4099 26.6632C49.7815 26.2203 50.4415 26.1621 50.885 26.5342L51.7865 27.2907C52.2295 27.6623 52.2875 28.3231 51.9159 28.766L51.6637 29.0665Z" fill="#FFEABA"/>
<path d="M45.2572 19.9462C44.9218 20.3459 44.3266 20.3985 43.9266 20.0628L43.1121 19.3794C42.7126 19.0442 42.6602 18.4482 42.9956 18.0485L43.2234 17.777C43.5589 17.3772 44.1549 17.3253 44.5544 17.6605L45.3689 18.3439C45.7689 18.6796 45.8205 19.2749 45.485 19.6747L45.2572 19.9462Z" fill="#FFEABA"/>
<path d="M47.8327 22.1155C47.4972 22.5153 46.9012 22.5671 46.5017 22.2319L45.6875 21.5487C45.2878 21.2133 45.2353 20.6173 45.5708 20.2175L45.7986 19.946C46.134 19.5463 46.7301 19.4944 47.1298 19.8298L47.944 20.513C48.3435 20.8482 48.3959 21.4442 48.0605 21.844L47.8327 22.1155Z" fill="#FFEABA"/>
<path d="M50.4127 24.273C50.0773 24.6728 49.4813 24.7247 49.0824 24.39L48.2679 23.7065C47.8681 23.3711 47.8156 22.7751 48.1511 22.3753L48.3789 22.1038C48.7143 21.7041 49.3104 21.6522 49.7102 21.9876L50.5247 22.6711C50.9236 23.0058 50.976 23.6018 50.6405 24.0016L50.4127 24.273Z" fill="#FFEABA"/>
<path d="M52.965 26.4193C52.6296 26.8191 52.0339 26.8712 51.6338 26.5355L50.8199 25.8526C50.4199 25.5169 50.3683 24.9217 50.7037 24.5219L50.9315 24.2504C51.267 23.8506 51.8622 23.798 52.2622 24.1337L53.0761 24.8166C53.4762 25.1523 53.5283 25.7481 53.1928 26.1478L52.965 26.4193Z" fill="#FFEABA"/>
<path d="M47.2052 18.163C46.9025 18.5239 46.365 18.5712 46.0042 18.2684L45.2692 17.6517C44.9086 17.3491 44.8616 16.8114 45.1644 16.4506L45.37 16.2056C45.6726 15.845 46.2102 15.7979 46.5708 16.1005L47.3058 16.7172C47.6666 17.02 47.7134 17.5575 47.4109 17.918L47.2052 18.163Z" fill="#FFEABA"/>
<path d="M49.5347 20.1185C49.2319 20.4794 48.6943 20.5264 48.3337 20.2239L47.5987 19.6072C47.2379 19.3044 47.1905 18.7665 47.4933 18.4056L47.6989 18.1606C48.0015 17.8 48.5394 17.7532 48.9002 18.056L49.6352 18.6727C49.9958 18.9753 50.0428 19.5129 49.7403 19.8735L49.5347 20.1185Z" fill="#FFEABA"/>
<path d="M51.8564 22.064C51.5536 22.4248 51.0156 22.4716 50.6553 22.1693L49.9203 21.5526C49.5598 21.25 49.5127 20.7124 49.8155 20.3515L50.0211 20.1065C50.3237 19.7459 50.8613 19.6989 51.2219 20.0014L51.9569 20.6181C52.3172 20.9205 52.3645 21.4584 52.062 21.8189L51.8564 22.064Z" fill="#FFEABA"/>
<path d="M54.1651 24.002C53.8623 24.3628 53.3246 24.4099 52.964 24.1074L52.229 23.4906C51.8682 23.1879 51.8214 22.6504 52.1242 22.2895L52.3298 22.0445C52.6324 21.684 53.1697 21.6367 53.5306 21.9395L54.2656 22.5562C54.6262 22.8588 54.6732 23.3964 54.3706 23.757L54.1651 24.002Z" fill="#FFEABA"/>
<path d="M48.999 16.5296C48.7265 16.8544 48.2436 16.8969 47.9183 16.6239L47.2569 16.0689C46.9324 15.7966 46.8898 15.3132 47.1623 14.9884L47.3473 14.768C47.6196 14.4435 48.1036 14.4009 48.4281 14.6732L49.0895 15.2281C49.4148 15.5011 49.4563 15.9847 49.1841 16.3092L48.999 16.5296Z" fill="#FFEABA"/>
<path d="M51.0901 18.2815C50.8176 18.6062 50.3336 18.6478 50.009 18.3755L49.348 17.8208C49.0229 17.548 48.9803 17.0646 49.2528 16.7398L49.4378 16.5194C49.7101 16.1949 50.1941 16.1523 50.5191 16.425L51.1802 16.9798C51.5048 17.2521 51.5474 17.7365 51.2751 18.061L51.0901 18.2815Z" fill="#FFEABA"/>
<path d="M53.1862 20.0423C52.9137 20.3671 52.4297 20.4086 52.1049 20.1361L51.4438 19.5814C51.1193 19.3091 51.0764 18.8255 51.349 18.5007L51.5339 18.2802C51.8062 17.9557 52.2905 17.9134 52.615 18.1856L53.2761 18.7404C53.6008 19.0129 53.6435 19.4974 53.3712 19.8219L53.1862 20.0423Z" fill="#FFEABA"/>
<path d="M51.2846 15.4662C51.0121 15.791 50.5287 15.834 50.2037 15.5613L49.542 15.0061C49.2177 14.734 49.1754 14.2498 49.4479 13.925L49.6326 13.7048C49.9052 13.38 50.3894 13.3377 50.7136 13.6097L51.3753 14.1649C51.7004 14.4377 51.7419 14.9212 51.4694 15.246L51.2846 15.4662Z" fill="#FFEABA"/>
<path d="M53.3814 17.2274C53.1089 17.5522 52.6246 17.5945 52.3004 17.3225L51.639 16.7675C51.3139 16.4947 51.2718 16.0107 51.5444 15.6859L51.7291 15.4658C52.0016 15.141 52.4856 15.0984 52.8107 15.3711L53.4721 15.9261C53.7963 16.1982 53.8387 16.6824 53.5661 17.0072L53.3814 17.2274Z" fill="#FFEABA"/>
<path d="M55.4773 18.9833C55.2048 19.3081 54.7205 19.3504 54.396 19.0781L53.7343 18.5229C53.4101 18.2509 53.3678 17.7666 53.6403 17.4418L53.825 17.2217C54.0976 16.8969 54.5818 16.8545 54.906 17.1265L55.5677 17.6818C55.8922 17.9541 55.9346 18.4383 55.6621 18.7631L55.4773 18.9833Z" fill="#FFEABA"/>
<path d="M53.9234 14.7588C53.6646 15.0673 53.2048 15.1075 52.8966 14.8489L52.2679 14.3214C51.9592 14.0624 51.9196 13.603 52.1783 13.2945L52.3539 13.0853C52.6127 12.7769 53.0722 12.7359 53.3809 12.9949L54.0096 13.5224C54.3178 13.781 54.3578 14.2412 54.099 14.5496L53.9234 14.7588Z" fill="#FFEABA"/>
<path d="M55.9092 16.4243C55.6504 16.7327 55.1905 16.7729 54.8823 16.5144L54.2539 15.9871C53.9458 15.7285 53.9053 15.2684 54.1641 14.96L54.3396 14.7508C54.5984 14.4424 55.0588 14.4021 55.367 14.6607L55.9954 15.1879C56.3035 15.4465 56.3435 15.9067 56.0847 16.2151L55.9092 16.4243Z" fill="#FFEABA"/>
<path d="M55.2619 21.784C54.9894 22.1087 54.5054 22.1503 54.1812 21.8782L53.5198 21.3233C53.1947 21.0505 53.1527 20.5675 53.4252 20.2427L53.6102 20.0223C53.8825 19.6978 54.3659 19.6547 54.691 19.9275L55.3524 20.4824C55.6765 20.7545 55.7192 21.239 55.4469 21.5635L55.2619 21.784Z" fill="#FFEABA"/>
<path d="M36.4599 28.7918C36.0251 29.31 35.2531 29.3775 34.7352 28.943L33.6797 28.0573C33.1621 27.623 33.094 26.8505 33.5288 26.3323L33.8238 25.9807C34.2583 25.4628 35.0314 25.3952 35.549 25.8295L36.6045 26.7152C37.1224 27.1498 37.1895 27.9223 36.7549 28.4402L36.4599 28.7918Z" fill="#FFEABA"/>
<path d="M39.7979 31.6001C39.3631 32.1182 38.5905 32.1853 38.0726 31.7508L37.0177 30.8655C36.4998 30.431 36.432 29.6587 36.8668 29.1406L37.1618 28.789C37.5963 28.2711 38.3691 28.2032 38.887 28.6378L39.942 29.523C40.4598 29.9575 40.5275 30.7306 40.0929 31.2485L39.7979 31.6001Z" fill="#FFEABA"/>
<path d="M43.1409 34.3987C42.7061 34.9169 41.9341 34.9844 41.4159 34.5496L40.3607 33.6642C39.8428 33.2296 39.775 32.4574 40.2098 31.9392L40.5048 31.5876C40.9394 31.0697 41.7121 31.0019 42.23 31.4364L43.2853 32.3219C43.8034 32.7566 43.8705 33.5292 43.4359 34.0471L43.1409 34.3987Z" fill="#FFEABA"/>
<path d="M46.4527 37.1823C46.0179 37.7004 45.2459 37.768 44.7277 37.3331L43.6725 36.4477C43.1546 36.0131 43.0867 35.2409 43.5215 34.7227L43.8165 34.3711C44.2511 33.8532 45.0239 33.7854 45.5418 34.2199L46.597 35.1054C47.1152 35.5402 47.1823 36.3127 46.7477 36.8306L46.4527 37.1823Z" fill="#FFEABA"/>
<path d="M34.1009 31.3812C33.6524 31.9158 32.8555 31.9854 32.3213 31.5372L31.2328 30.6238C30.6985 30.1755 30.6288 29.3786 31.0773 28.8441L31.3815 28.4815C31.83 27.9471 32.6267 27.8776 33.1609 28.3259L34.2494 29.2393C34.7837 29.6875 34.8536 30.4842 34.4051 31.0187L34.1009 31.3812Z" fill="#FFEABA"/>
<path d="M37.5432 34.2761C37.0947 34.8106 36.2975 34.8801 35.7635 34.4321L34.6747 33.5184C34.1405 33.0702 34.071 32.2735 34.5196 31.739L34.8238 31.3764C35.2723 30.8419 36.0687 30.7723 36.6029 31.2205L37.6917 32.1341C38.2257 32.5822 38.2959 33.3791 37.8474 33.9136L37.5432 34.2761Z" fill="#FFEABA"/>
<path d="M40.9903 37.1648C40.5417 37.6994 39.7443 37.7686 39.2103 37.3205L38.1215 36.4069C37.5873 35.9587 37.5178 35.162 37.9664 34.6275L38.2706 34.2649C38.7191 33.7304 39.5155 33.6608 40.0497 34.109L41.1385 35.0226C41.6724 35.4707 41.743 36.2678 41.2945 36.8023L40.9903 37.1648Z" fill="#FFEABA"/>
<path d="M44.4119 40.0332C43.9634 40.5678 43.1662 40.6372 42.632 40.1889L41.5438 39.2758C41.009 38.8271 40.9398 38.0306 41.3883 37.4961L41.6925 37.1336C42.141 36.5991 42.9371 36.5292 43.4719 36.9779L44.5601 37.891C45.0944 38.3393 45.1646 39.1362 44.7161 39.6707L44.4119 40.0332Z" fill="#FFEABA"/>
<path d="M31.7427 34.0371C31.2852 34.5823 30.4722 34.6529 29.9272 34.1957L28.8165 33.2636C28.2712 32.8061 28.1998 31.9934 28.6573 31.4481L28.9679 31.078C29.4257 30.5325 30.2387 30.4613 30.784 30.9189L31.8947 31.8509C32.4396 32.3082 32.511 33.1214 32.0533 33.6669L31.7427 34.0371Z" fill="#FFEABA"/>
<path d="M35.2616 36.9861C34.8041 37.5314 33.9914 37.6022 33.4461 37.1447L32.3353 36.2127C31.7898 35.7549 31.7187 34.9425 32.1763 34.3972L32.4869 34.0271C32.9446 33.4815 33.7573 33.4102 34.3028 33.8679L35.4136 34.8C35.9589 35.2575 36.0299 36.0705 35.5722 36.616L35.2616 36.9861Z" fill="#FFEABA"/>
<path d="M38.7748 39.9414C38.3173 40.4866 37.5045 40.5575 36.9593 40.1L35.8488 39.1682C35.3036 38.7106 35.2319 37.8977 35.6894 37.3525L36 36.9823C36.4578 36.4368 37.2711 36.3659 37.8163 36.8234L38.9268 37.7552C39.472 38.2127 39.5431 39.0257 39.0854 39.5712L38.7748 39.9414Z" fill="#FFEABA"/>
<path d="M42.2616 42.8653C41.8041 43.4105 40.9916 43.4816 40.4464 43.0241L39.3356 42.092C38.7904 41.6345 38.7187 40.8216 39.1763 40.2763L39.4869 39.9062C39.9446 39.3607 40.7579 39.2898 41.3031 39.7473L42.4138 40.6793C42.9591 41.1368 43.0299 41.9496 42.5722 42.4951L42.2616 42.8653Z" fill="#FFEABA"/>
<path d="M34.7799 47.5193L35.5481 48.1639C36.2342 48.1492 37.0424 48.068 38.0245 47.9117C38.4728 47.3665 38.4002 46.561 37.8583 46.1063L36.7476 45.1742C36.2024 44.7167 35.3889 44.7879 34.9313 45.3331L34.6207 45.7033C34.1632 46.2486 34.2346 47.0618 34.7799 47.5193Z" fill="#FFEABA"/>
<path d="M34.6409 48.1401L34.4162 47.9515C34.0167 47.6163 33.4738 47.566 33.0318 47.7769C33.4966 47.9647 34.0118 48.0889 34.6409 48.1401Z" fill="#FFEABA"/>
<path d="M31.3427 46.7603C31.7028 47.0295 32.0405 47.2661 32.39 47.4649C32.6154 46.9537 32.489 46.3355 32.0396 45.9585L30.9291 45.0267C30.3839 44.5691 29.5706 44.64 29.1129 45.1856L28.8025 45.5555C28.6354 45.7546 28.5396 45.9895 28.5108 46.2297C29.9431 46.1467 30.8635 46.402 31.3427 46.7603Z" fill="#FFEABA"/>
<path d="M23.1692 47.1387L24.163 47.9725C24.8193 47.2687 25.3985 46.7859 25.8216 46.6788C26.1227 46.6026 26.4107 46.5373 26.6869 46.4815C26.6349 46.1963 26.487 45.9269 26.2476 45.7259L25.1368 44.7939C24.5913 44.3362 23.7788 44.4072 23.3211 44.9527L23.0102 45.3232C22.5529 45.8682 22.6237 46.6809 23.1692 47.1387Z" fill="#FFEABA"/>
<path d="M20.8016 49.9526L21.8575 50.8386C22.4992 49.9572 23.1463 49.1199 23.7466 48.4286L22.7688 47.6081C22.2233 47.1504 21.4109 47.2215 20.9531 47.767L20.6427 48.1369C20.185 48.6824 20.2561 49.4949 20.8016 49.9526Z" fill="#FFEABA"/>
<path d="M18.5338 52.6763L19.634 53.5994C19.7011 53.6557 19.7723 53.7038 19.8463 53.7442C20.3806 52.9386 20.971 52.0723 21.5737 51.2308L20.4909 50.3223C20.1283 50.018 19.6479 49.949 19.2319 50.0962C18.9911 50.9037 18.7573 51.762 18.5338 52.6763Z" fill="#FFEABA"/>
<path d="M17.7292 56.4876C17.8254 56.5312 17.9254 56.5616 18.0273 56.5792C18.3713 56.0265 18.8944 55.1974 19.5165 54.2484C19.4633 54.1796 19.4025 54.1152 19.3332 54.057L18.3941 53.2691C18.1588 54.2764 17.936 55.3484 17.7292 56.4876Z" fill="#FFEABA"/>
<path d="M19.8973 48.0447C20.0132 47.9738 20.1203 47.8841 20.2124 47.7743L20.5228 47.4044C20.8665 46.9948 20.9117 46.4346 20.6823 45.9873C20.418 46.6227 20.1553 47.3085 19.8973 48.0447Z" fill="#FFEABA"/>
<path d="M20.9949 45.2695C21.5198 45.5454 22.184 45.43 22.5806 44.9573L22.8914 44.5869C23.3492 44.0414 23.2775 43.2285 22.7326 42.7712L22.4023 42.4941C21.9447 43.2793 21.4694 44.1986 20.9949 45.2695Z" fill="#FFEABA"/>
<path d="M22.648 42.0784L23.0376 42.4054C23.5826 42.8626 24.3959 42.7917 24.8536 42.2462L25.164 41.8763C25.6217 41.3308 25.5503 40.5176 25.0054 40.0603L24.4541 39.5977C23.9388 40.1779 23.3167 40.9851 22.648 42.0784Z" fill="#FFEABA"/>
<path d="M25.8598 38.2998C25.8598 38.2998 25.4664 38.5413 24.8389 39.1831L25.3681 39.6272C25.913 40.0845 26.7263 40.0136 27.1838 39.4683L27.4944 39.0982C27.9519 38.5529 27.8807 37.7394 27.3358 37.2822L26.2251 36.3502C25.6798 35.8926 24.8666 35.964 24.409 36.5093L24.0984 36.8794C24.086 36.8943 24.0754 36.9101 24.0637 36.9253C24.5717 37.3336 25.1774 37.8031 25.8598 38.2998Z" fill="#FFEABA"/>
<path d="M42.2599 59.6198C40.0976 53.0069 40.8698 53.3119 40.7401 51.8324C40.6107 50.3531 39.6605 48.0137 35.5399 48.84C35.4331 48.8614 35.331 48.8776 35.2299 48.8927C35.2299 48.895 35.2299 48.8973 35.2299 48.8997C34.3637 48.9008 33.6759 48.8193 33.1344 48.6973C31.3039 47.9706 30.5941 45.9911 26.7222 47.0956C26.7222 47.0956 29.6444 47.4924 30.6236 51.2264C31.6032 54.9611 33.0756 56.8827 34.9505 59.141C36.8252 61.3996 39.7214 64.6873 38.3807 68.5318C38.3807 68.5318 44.4226 66.2324 42.2599 59.6198Z" fill="#FFEABA"/>
<path d="M29.8786 51.4376C29.182 48.7965 26.7723 46.6278 24.5299 48.6876C22.2878 50.7476 20.5935 54.809 16.3062 60.1223C12.0188 65.4356 8.41511 62.5833 8.41511 62.5833C14.8164 78.2365 32.4283 57.2667 32.4283 57.2667C32.4283 57.2667 30.5752 54.0788 29.8786 51.4376Z" fill="#FFEABA"/>
<path d="M16.6334 58.5069C16.6334 58.5069 17.4552 54.0555 19.0888 48.2286C20.7219 42.4023 24.7364 38.2306 24.7364 38.2306C24.7364 38.2306 20.6099 35.7957 19.6795 32.6162C19.6795 32.6162 19.2163 30.5134 12.4567 36.323C5.69687 42.1324 2.34245 40.0032 2.34245 40.0032C2.34245 40.0032 4.10659 45.2534 8.59745 44.3947C13.0878 43.5361 15.7521 40.9729 17.8383 40.3246C17.8383 40.3246 4.54517 54.5327 7.56798 60.3245C7.56798 60.3245 10.9082 66.5551 16.6334 58.5069Z" fill="#FFEABA"/>
<path d="M8.13638 64.2725C8.13638 64.2725 9.57942 67.9897 13.7792 69.2648L11.8808 71.5272L6.07346 66.6543L8.13638 64.2725Z" fill="#FFEABA"/>
<path d="M24.7493 35.5697L25.4632 34.7897C25.536 34.4429 25.6921 34.1086 25.9355 33.8186L26.2461 33.4484C26.5425 33.0952 26.9261 32.858 27.3393 32.74L27.7016 32.3442C27.7393 31.9027 27.9077 31.4681 28.2136 31.1035L28.5243 30.7333C28.8822 30.3068 29.367 30.0488 29.8778 29.9667L30.1299 29.6913C30.1727 29.2665 30.3367 28.8499 30.6312 28.499L30.9355 28.1363C31.2819 27.7235 31.7486 27.4702 32.242 27.3838L32.6169 26.9742C32.6839 26.623 32.8379 26.2837 33.0836 25.9909L33.3787 25.6392C33.5921 25.3848 33.8521 25.1921 34.1358 25.0626C33.4492 22.6176 34.7573 21.2805 35.3954 18.8485C36.0496 16.3535 34.9091 13.2989 34.9091 13.2989C34.9091 13.2989 34.1757 16.2003 29.5896 23.2591C25.8393 29.0321 24.6299 34.5967 24.4071 35.7639C24.5162 35.6885 24.6306 35.6236 24.7493 35.5697Z" fill="#FFEABA"/>
<path d="M45.7288 39.1979C45.6705 39.5381 45.5263 39.868 45.2889 40.1509L44.9847 40.5135C44.7558 40.7862 44.4695 40.9825 44.158 41.1003L43.6211 41.8032C43.5931 42.2202 43.4379 42.6322 43.1492 42.9762L42.8386 43.3464C42.6024 43.6278 42.3057 43.8287 41.9834 43.9473L41.292 44.8525C41.2212 45.1519 41.0821 45.4397 40.8711 45.6911L40.5603 46.0616C40.4043 46.2475 40.2219 46.3983 40.0232 46.5137L39.1695 47.6314C48.7534 38.8504 52.7592 38.2948 52.7592 38.2948C49.2649 36.6991 46.7011 38.3702 45.7288 39.1979Z" fill="#FFEABA"/>
<path d="M91.0559 31.366C90.5984 31.9113 89.7854 31.9819 89.2404 31.5246L88.1297 30.5926C87.5844 30.1351 87.5131 29.3224 87.9706 28.7771L88.2814 28.4067C88.7387 27.8617 89.5519 27.7903 90.0972 28.2479L91.2079 29.1799C91.7529 29.6371 91.8241 30.4506 91.3668 30.9956L91.0559 31.366Z" fill="#FFEABA"/>
<path d="M94.5685 34.3127C94.111 34.8579 93.2982 34.9288 92.753 34.4713L91.6422 33.5392C91.0967 33.0815 91.0256 32.269 91.4831 31.7238L91.794 31.3533C92.2513 30.8083 93.0642 30.7367 93.6097 31.1944L94.7205 32.1265C95.2657 32.584 95.3366 33.3973 94.8793 33.9422L94.5685 34.3127Z" fill="#FFEABA"/>
<path d="M98.0875 37.2665C97.63 37.8117 96.8173 37.8826 96.272 37.4251L95.1616 36.4932C94.6163 36.0357 94.5447 35.2228 95.0022 34.6775L95.313 34.3071C95.7703 33.7621 96.5838 33.691 97.129 34.1485L98.2395 35.0803C98.7848 35.5378 98.8557 36.351 98.3984 36.896L98.0875 37.2665Z" fill="#FFEABA"/>
<path d="M101.572 40.1905C101.115 40.7357 100.302 40.8068 99.7572 40.3493L98.6464 39.4173C98.1012 38.9597 98.0295 38.1468 98.487 37.6015L98.7979 37.2311C99.2552 36.6861 100.069 36.615 100.614 37.0725L101.725 38.0045C102.27 38.462 102.341 39.2751 101.883 39.82L101.572 40.1905Z" fill="#FFEABA"/>
<path d="M92.2903 37.0302C91.8328 37.5755 91.0198 37.6466 90.4746 37.1891L89.3638 36.257C88.8183 35.7993 88.7474 34.9866 89.2049 34.4413L89.5155 34.0711C89.9731 33.5259 90.786 33.4543 91.3315 33.912L92.4423 34.8441C92.9875 35.3016 93.0584 36.1148 92.6009 36.6601L92.2903 37.0302Z" fill="#FFEABA"/>
<path d="M95.8108 39.9799C95.3533 40.5251 94.5403 40.5962 93.9951 40.1387L92.8846 39.2069C92.3393 38.7494 92.2679 37.9362 92.7254 37.3909L93.036 37.0208C93.4936 36.4755 94.3071 36.4043 94.8523 36.8619L95.9628 37.7937C96.508 38.2512 96.5789 39.0644 96.1214 39.6097L95.8108 39.9799Z" fill="#FFEABA"/>
<path d="M89.9614 39.809C89.5037 40.3545 88.6907 40.4257 88.1454 39.9681L87.0347 39.0361C86.4891 38.5783 86.4183 37.7656 86.876 37.2201L87.1864 36.8502C87.6442 36.3047 88.4569 36.2333 89.0024 36.691L90.1132 37.6231C90.6584 38.0806 90.7295 38.8936 90.2718 39.4391L89.9614 39.809Z" fill="#FFEABA"/>
<path d="M100.366 21.0254C99.9537 21.5165 99.2221 21.5805 98.7315 21.169L97.7321 20.3304C97.241 19.9183 97.1767 19.1864 97.5888 18.6953L97.8682 18.3624C98.28 17.8716 99.0119 17.8078 99.503 18.2199L100.502 19.0585C100.993 19.4701 101.057 20.2017 100.645 20.6925L100.366 21.0254Z" fill="#FFEABA"/>
<path d="M103.527 23.6765C103.115 24.1676 102.384 24.2316 101.893 23.82L100.894 22.9811C100.402 22.569 100.339 21.8374 100.751 21.3464L101.03 21.0134C101.442 20.5226 102.173 20.4586 102.664 20.8706L103.664 21.7095C104.155 22.1211 104.219 22.8527 103.807 23.3435L103.527 23.6765Z" fill="#FFEABA"/>
<path d="M106.695 26.3365C106.283 26.8276 105.551 26.8914 105.061 26.4801L104.061 25.6412C103.57 25.2294 103.506 24.4977 103.919 24.0067L104.198 23.6737C104.61 23.1829 105.341 23.1189 105.832 23.5307L106.832 24.3696C107.322 24.781 107.386 25.5127 106.975 26.0036L106.695 26.3365Z" fill="#FFEABA"/>
<path d="M109.833 28.9685C109.421 29.4596 108.69 29.5238 108.199 29.1117L107.199 28.2731C106.708 27.8613 106.644 27.1297 107.057 26.6386L107.336 26.3056C107.748 25.8148 108.479 25.7508 108.97 26.1627L109.97 27.0013C110.461 27.4133 110.524 28.1447 110.113 28.6355L109.833 28.9685Z" fill="#FFEABA"/>
<path d="M102.574 18.7269C102.183 19.1932 101.488 19.2543 101.021 18.8628L100.072 18.0663C99.6057 17.675 99.5445 16.9795 99.9358 16.5132L100.201 16.1969C100.593 15.7303 101.288 15.6703 101.754 16.0616L102.703 16.858C103.17 17.2495 103.231 17.944 102.839 18.4106L102.574 18.7269Z" fill="#FFEABA"/>
<path d="M105.579 21.2476C105.188 21.7139 104.493 21.7752 104.027 21.3839L103.077 20.587C102.611 20.1957 102.55 19.5004 102.941 19.0341L103.207 18.7178C103.598 18.2512 104.293 18.191 104.759 18.5822L105.709 19.3792C106.175 19.7705 106.236 20.4647 105.845 20.9313L105.579 21.2476Z" fill="#FFEABA"/>
<path d="M108.592 23.776C108.2 24.2424 107.505 24.3031 107.039 23.9121L106.089 23.1152C105.623 22.7239 105.562 22.0286 105.953 21.5623L106.219 21.246C106.61 20.7794 107.305 20.7191 107.771 21.1104L108.721 21.9074C109.187 22.2984 109.248 22.9931 108.857 23.4597L108.592 23.776Z" fill="#FFEABA"/>
<path d="M111.569 26.2734C111.177 26.7397 110.482 26.8005 110.016 26.4092L109.066 25.6125C108.6 25.221 108.54 24.5262 108.931 24.0598L109.196 23.7435C109.588 23.2769 110.282 23.2162 110.749 23.6077L111.698 24.4044C112.164 24.7957 112.226 25.4904 111.834 25.957L111.569 26.2734Z" fill="#FFEABA"/>
<path d="M104.706 16.5046C104.335 16.9478 103.675 17.0058 103.232 16.6342L102.329 15.8767C101.887 15.5055 101.829 14.845 102.2 14.4018L102.453 14.1013C102.824 13.6584 103.485 13.6008 103.927 13.972L104.83 14.7295C105.273 15.1011 105.33 15.7611 104.959 16.2041L104.706 16.5046Z" fill="#FFEABA"/>
<path d="M107.564 18.9036C107.192 19.3468 106.532 19.4045 106.09 19.0329L105.187 18.276C104.744 17.9043 104.686 17.244 105.058 16.8008L105.311 16.5003C105.682 16.0574 106.343 15.9996 106.786 16.3713L107.688 17.1283C108.131 17.4999 108.188 18.1602 107.817 18.6031L107.564 18.9036Z" fill="#FFEABA"/>
<path d="M110.424 21.3035C110.052 21.7467 109.391 21.8042 108.949 21.4328L108.047 20.6758C107.604 20.3042 107.546 19.6439 107.918 19.2007L108.17 18.9002C108.541 18.4573 109.202 18.3995 109.645 18.7711L110.547 19.5281C110.99 19.8995 111.047 20.5601 110.676 21.0029L110.424 21.3035Z" fill="#FFEABA"/>
<path d="M113.253 23.6782C112.881 24.1213 112.221 24.1786 111.778 23.807L110.876 23.0505C110.433 22.6784 110.375 22.0186 110.747 21.5754L111 21.2748C111.371 20.832 112.031 20.7737 112.475 21.1458L113.376 21.9023C113.819 22.2739 113.877 22.9347 113.505 23.3776L113.253 23.6782Z" fill="#FFEABA"/>
<path d="M106.847 14.5578C106.511 14.9576 105.916 15.0101 105.516 14.6744L104.702 13.991C104.302 13.6558 104.25 13.0599 104.585 12.6601L104.813 12.3886C105.148 11.9888 105.745 11.9369 106.144 12.2721L106.958 12.9556C107.358 13.2912 107.41 13.8865 107.075 14.2863L106.847 14.5578Z" fill="#FFEABA"/>
<path d="M109.422 16.7271C109.087 17.1269 108.491 17.1788 108.091 16.8435L107.277 16.1603C106.877 15.8249 106.825 15.2289 107.16 14.8292L107.388 14.5577C107.724 14.1579 108.32 14.106 108.719 14.4414L109.534 15.1246C109.933 15.4598 109.986 16.0559 109.65 16.4556L109.422 16.7271Z" fill="#FFEABA"/>
<path d="M112.002 18.8847C111.667 19.2844 111.071 19.3363 110.672 19.0016L109.857 18.3182C109.458 17.9827 109.405 17.3867 109.741 16.987L109.969 16.7155C110.304 16.3157 110.9 16.2638 111.3 16.5993L112.114 17.2827C112.513 17.6174 112.566 18.2134 112.23 18.6132L112.002 18.8847Z" fill="#FFEABA"/>
<path d="M114.555 21.031C114.219 21.4307 113.623 21.4828 113.223 21.1472L112.41 20.4642C112.009 20.1286 111.958 19.5333 112.293 19.1335L112.521 18.862C112.857 18.4623 113.452 18.4097 113.852 18.7453L114.666 19.4283C115.066 19.764 115.118 20.3597 114.782 20.7595L114.555 21.031Z" fill="#FFEABA"/>
<path d="M108.795 12.7747C108.492 13.1355 107.955 13.1828 107.594 12.88L106.859 12.2633C106.498 11.9608 106.451 11.4231 106.754 11.0622L106.96 10.8172C107.262 10.4566 107.8 10.4096 108.16 10.7121L108.895 11.3288C109.256 11.6316 109.303 12.1691 109 12.5296L108.795 12.7747Z" fill="#FFEABA"/>
<path d="M111.124 14.7302C110.822 15.091 110.284 15.138 109.923 14.8355L109.188 14.2188C108.827 13.916 108.78 13.3781 109.083 13.0172L109.288 12.7722C109.591 12.4116 110.129 12.3649 110.49 12.6676L111.225 13.2844C111.585 13.5869 111.632 14.1246 111.33 14.4852L111.124 14.7302Z" fill="#FFEABA"/>
<path d="M113.446 16.6756C113.143 17.0364 112.605 17.0832 112.245 16.7809L111.51 16.1642C111.149 15.8617 111.102 15.324 111.405 14.9631L111.611 14.7181C111.913 14.3575 112.451 14.3105 112.812 14.6131L113.546 15.2298C113.907 15.5321 113.954 16.07 113.652 16.4306L113.446 16.6756Z" fill="#FFEABA"/>
<path d="M115.755 18.6136C115.452 18.9745 114.914 19.0215 114.554 18.719L113.819 18.1023C113.458 17.7995 113.411 17.262 113.714 16.9012L113.919 16.6562C114.222 16.2956 114.759 16.2483 115.12 16.5512L115.855 17.1679C116.216 17.4704 116.263 18.0081 115.96 18.3687L115.755 18.6136Z" fill="#FFEABA"/>
<path d="M110.589 11.1413C110.316 11.466 109.833 11.5085 109.508 11.2355L108.846 10.6806C108.522 10.4082 108.479 9.92484 108.752 9.60005L108.937 9.37959C109.209 9.0551 109.693 9.01248 110.018 9.2848L110.679 9.83977C111.004 10.1128 111.046 10.5963 110.774 10.9208L110.589 11.1413Z" fill="#FFEABA"/>
<path d="M112.68 12.8931C112.407 13.2179 111.923 13.2594 111.599 12.9872L110.938 12.4324C110.612 12.1597 110.57 11.6762 110.842 11.3515L111.027 11.131C111.3 10.8065 111.784 10.7639 112.109 11.0367L112.77 11.5914C113.094 11.8637 113.137 12.3482 112.865 12.6727L112.68 12.8931Z" fill="#FFEABA"/>
<path d="M114.776 14.654C114.503 14.9787 114.019 15.0203 113.694 14.7478L113.033 14.193C112.709 13.9208 112.666 13.4371 112.939 13.1123L113.124 12.8919C113.396 12.5674 113.88 12.525 114.205 12.7973L114.866 13.352C115.19 13.6245 115.233 14.109 114.961 14.4335L114.776 14.654Z" fill="#FFEABA"/>
<path d="M112.874 10.0778C112.602 10.4026 112.118 10.4456 111.793 10.1729L111.132 9.61771C110.807 9.34565 110.765 8.86139 111.037 8.53661L111.222 8.31644C111.495 7.99166 111.979 7.94929 112.303 8.22135L112.965 8.77657C113.29 9.04932 113.331 9.53286 113.059 9.85764L112.874 10.0778Z" fill="#FFEABA"/>
<path d="M114.971 11.839C114.698 12.1638 114.214 12.2062 113.89 11.9341L113.229 11.3791C112.904 11.1063 112.861 10.6223 113.134 10.2976L113.319 10.0774C113.591 9.7526 114.075 9.71002 114.4 9.98276L115.062 10.5377C115.386 10.8098 115.428 11.2941 115.156 11.6188L114.971 11.839Z" fill="#FFEABA"/>
<path d="M117.067 13.5949C116.794 13.9197 116.31 13.9621 115.986 13.6898L115.324 13.1345C115 12.8625 114.957 12.3782 115.23 12.0535L115.415 11.8333C115.687 11.5085 116.171 11.4661 116.496 11.7382L117.157 12.2934C117.482 12.5657 117.524 13.05 117.252 13.3747L117.067 13.5949Z" fill="#FFEABA"/>
<path d="M115.513 9.37045C115.254 9.6789 114.794 9.71913 114.486 9.46056L113.858 8.93303C113.549 8.67399 113.509 8.2146 113.768 7.90615L113.943 7.69695C114.202 7.38854 114.662 7.34754 114.971 7.60654L115.599 8.13408C115.907 8.39265 115.947 8.85284 115.689 9.16121L115.513 9.37045Z" fill="#FFEABA"/>
<path d="M117.499 11.0359C117.24 11.3444 116.78 11.3846 116.472 11.126L115.844 10.5987C115.535 10.3402 115.495 9.88007 115.754 9.57161L115.929 9.36242C116.188 9.054 116.648 9.01373 116.957 9.2723L117.585 9.79958C117.893 10.0582 117.933 10.5183 117.674 10.8267L117.499 11.0359Z" fill="#FFEABA"/>
<path d="M116.852 16.3956C116.579 16.7204 116.095 16.7619 115.771 16.4899L115.109 15.9349C114.784 15.6622 114.742 15.1792 115.015 14.8544L115.2 14.6339C115.472 14.3094 115.956 14.2663 116.281 14.5391L116.942 15.0941C117.266 15.3661 117.309 15.8506 117.037 16.1751L116.852 16.3956Z" fill="#FFEABA"/>
<path d="M98.0495 23.4035C97.6147 23.9216 96.8427 23.9892 96.3248 23.5546L95.2693 22.6689C94.7517 22.2346 94.6836 21.4621 95.1184 20.9439L95.4134 20.5924C95.8479 20.0745 96.621 20.0068 97.1386 20.4411L98.1941 21.3268C98.712 21.7614 98.7791 22.5339 98.3445 23.0519L98.0495 23.4035Z" fill="#FFEABA"/>
<path d="M101.388 26.2117C100.953 26.7299 100.18 26.797 99.6622 26.3624L98.6073 25.4772C98.0894 25.0426 98.0216 24.2704 98.4564 23.7522L98.7514 23.4006C99.1859 22.8827 99.9587 22.8148 100.477 23.2494L101.532 24.1346C102.049 24.5691 102.117 25.3422 101.683 25.8601L101.388 26.2117Z" fill="#FFEABA"/>
<path d="M104.731 29.0104C104.296 29.5285 103.524 29.5961 103.006 29.1613L101.95 28.2758C101.432 27.8413 101.365 27.069 101.799 26.5508L102.094 26.1992C102.529 25.6813 103.302 25.6135 103.82 26.048L104.875 26.9335C105.393 27.3683 105.46 28.1409 105.026 28.6588L104.731 29.0104Z" fill="#FFEABA"/>
<path d="M108.042 31.7939C107.608 32.3121 106.835 32.3796 106.317 31.9448L105.262 31.0594C104.744 30.6248 104.676 29.8525 105.111 29.3343L105.406 28.9828C105.841 28.4648 106.613 28.397 107.131 28.8316L108.187 29.717C108.705 30.1518 108.772 30.9244 108.337 31.4423L108.042 31.7939Z" fill="#FFEABA"/>
<path d="M95.6905 25.9929C95.242 26.5274 94.4451 26.5971 93.9109 26.1488L92.8224 25.2354C92.2881 24.7872 92.2184 23.9903 92.6669 23.4557L92.9711 23.0932C93.4196 22.5587 94.2163 22.4892 94.7505 22.9375L95.839 23.8509C96.3733 24.2992 96.4432 25.0958 95.9947 25.6303L95.6905 25.9929Z" fill="#FFEABA"/>
<path d="M99.1328 28.8878C98.6843 29.4223 97.8871 29.4917 97.3531 29.0437L96.2643 28.1301C95.7301 27.6818 95.6606 26.8851 96.1092 26.3506L96.4134 25.9881C96.8619 25.4536 97.6583 25.3839 98.1925 25.8322L99.2813 26.7458C99.8152 27.1938 99.8855 27.9907 99.437 28.5252L99.1328 28.8878Z" fill="#FFEABA"/>
<path d="M102.58 31.7765C102.131 32.311 101.334 32.3802 100.8 31.9322L99.7111 31.0186C99.1769 30.5703 99.1074 29.7736 99.556 29.2391L99.8602 28.8765C100.309 28.3421 101.105 28.2724 101.639 28.7207L102.728 29.6343C103.262 30.0823 103.333 30.8794 102.884 31.4139L102.58 31.7765Z" fill="#FFEABA"/>
<path d="M106.002 34.6449C105.553 35.1794 104.756 35.2489 104.222 34.8006L103.133 33.8875C102.599 33.4387 102.529 32.6423 102.978 32.1077L103.282 31.7452C103.731 31.2107 104.527 31.1408 105.062 31.5896L106.15 32.5027C106.684 32.9509 106.754 33.7478 106.306 34.2823L106.002 34.6449Z" fill="#FFEABA"/>
<path d="M93.3323 28.6487C92.8748 29.1939 92.0618 29.2646 91.5168 28.8073L90.4061 27.8753C89.8608 27.4177 89.7894 26.605 90.2469 26.0598L90.5575 25.6896C91.0153 25.1441 91.8283 25.073 92.3736 25.5305L93.4843 26.4625C94.0292 26.9198 94.1006 27.733 93.6429 28.2785L93.3323 28.6487Z" fill="#FFEABA"/>
<path d="M96.8512 31.5978C96.3937 32.143 95.581 32.2139 95.0357 31.7564L93.9249 30.8243C93.3794 30.3666 93.3083 29.5541 93.7659 29.0088L94.0765 28.6387C94.5342 28.0932 95.3469 28.0218 95.8924 28.4795L97.0032 29.4116C97.5485 29.8691 97.6195 30.6821 97.1618 31.2276L96.8512 31.5978Z" fill="#FFEABA"/>
<path d="M100.364 34.553C99.9069 35.0983 99.0941 35.1691 98.5489 34.7116L97.4384 33.7798C96.8932 33.3223 96.8215 32.5093 97.279 31.9641L97.5896 31.5939C98.0474 31.0484 98.8607 30.9775 99.4059 31.435L100.516 32.3668C101.062 32.8244 101.133 33.6373 100.675 34.1828L100.364 34.553Z" fill="#FFEABA"/>
<path d="M103.851 37.4769C103.394 38.0221 102.581 38.0932 102.036 37.6357L100.925 36.7037C100.38 36.2462 100.308 35.4332 100.766 34.888L101.076 34.5178C101.534 33.9723 102.347 33.9014 102.893 34.3589L104.003 35.2909C104.549 35.7485 104.62 36.5612 104.162 37.1067L103.851 37.4769Z" fill="#FFEABA"/>
<path d="M96.3695 42.1309L97.1377 42.7755C97.8238 42.7608 98.632 42.6797 99.6141 42.5233C100.062 41.9782 99.9898 41.1726 99.4479 40.7179L98.3372 39.7859C97.792 39.3284 96.9785 39.3995 96.5209 39.9448L96.2103 40.3149C95.7528 40.8602 95.8242 41.6734 96.3695 42.1309Z" fill="#FFEABA"/>
<path d="M96.2305 42.7517L96.0058 42.5632C95.6063 42.228 95.0634 42.1776 94.6214 42.3885C95.0862 42.5763 95.6014 42.7006 96.2305 42.7517Z" fill="#FFEABA"/>
<path d="M92.9323 41.3719C93.2924 41.6412 93.6301 41.8777 93.9796 42.0766C94.205 41.5654 94.0786 40.9471 93.6292 40.5701L92.5187 39.6383C91.9735 39.1808 91.1602 39.2517 90.7025 39.7972L90.3921 40.1671C90.225 40.3663 90.1292 40.6012 90.1004 40.8413C91.5327 40.7583 92.4531 41.0137 92.9323 41.3719Z" fill="#FFEABA"/>
<path d="M84.7588 41.7503L85.7526 42.5841C86.4089 41.8803 86.9881 41.3976 87.4112 41.2904C87.7123 41.2142 88.0003 41.149 88.2765 41.0931C88.2245 40.8079 88.0766 40.5385 87.8372 40.3376L86.7264 39.4055C86.1809 38.9478 85.3684 39.0189 84.9107 39.5644L84.5998 39.9348C84.1425 40.4798 84.2133 41.2926 84.7588 41.7503Z" fill="#FFEABA"/>
<path d="M82.3912 44.5642L83.4471 45.4502C84.0888 44.5688 84.7359 43.7315 85.3362 43.0402L84.3584 42.2197C83.8129 41.762 83.0005 41.8331 82.5427 42.3786L82.2323 42.7485C81.7746 43.294 81.8457 44.1065 82.3912 44.5642Z" fill="#FFEABA"/>
<path d="M80.1234 47.2879L81.2236 48.211C81.2907 48.2673 81.3619 48.3154 81.4359 48.3558C81.9702 47.5503 82.5606 46.684 83.1633 45.8425L82.0805 44.9339C81.7179 44.6296 81.2375 44.5606 80.8215 44.7078C80.5807 45.5153 80.3469 46.3736 80.1234 47.2879Z" fill="#FFEABA"/>
<path d="M79.3188 51.0992C79.415 51.1428 79.515 51.1732 79.6169 51.1909C79.9609 50.6382 80.484 49.809 81.1061 48.86C81.0529 48.7913 80.9921 48.7268 80.9228 48.6687L79.9837 47.8807C79.7484 48.8881 79.5256 49.96 79.3188 51.0992Z" fill="#FFEABA"/>
<path d="M81.4869 42.6563C81.6028 42.5854 81.7099 42.4958 81.802 42.3859L82.1124 42.016C82.4561 41.6065 82.5013 41.0462 82.2719 40.5989C82.0076 41.2344 81.7449 41.9202 81.4869 42.6563Z" fill="#FFEABA"/>
<path d="M82.5845 39.8812C83.1094 40.157 83.7736 40.0416 84.1702 39.569L84.481 39.1985C84.9388 38.653 84.8671 37.8401 84.3222 37.3828L83.9919 37.1057C83.5343 37.8909 83.059 38.8103 82.5845 39.8812Z" fill="#FFEABA"/>
<path d="M84.2376 36.69L84.6272 37.017C85.1722 37.4743 85.9855 37.4034 86.4432 36.8579L86.7536 36.4879C87.2113 35.9424 87.1399 35.1292 86.595 34.6719L86.0437 34.2093C85.5284 34.7895 84.9063 35.5968 84.2376 36.69Z" fill="#FFEABA"/>
<path d="M87.4494 32.9114C87.4494 32.9114 87.056 33.153 86.4285 33.7948L86.9577 34.2388C87.5026 34.6961 88.3159 34.6252 88.7734 34.08L89.084 33.7098C89.5415 33.1646 89.4703 32.3511 88.9254 31.8938L87.8147 30.9618C87.2694 30.5043 86.4562 30.5757 85.9986 31.1209L85.688 31.4911C85.6756 31.5059 85.665 31.5217 85.6533 31.5369C86.1613 31.9452 86.767 32.4147 87.4494 32.9114Z" fill="#FFEABA"/>
<path d="M103.85 54.2314C101.687 47.6185 102.459 47.9235 102.33 46.444C102.2 44.9648 101.25 42.6253 97.1295 43.4516C97.0227 43.473 96.9206 43.4892 96.8195 43.5043C96.8195 43.5067 96.8195 43.5089 96.8195 43.5113C95.9533 43.5124 95.2655 43.4309 94.724 43.3089C92.8935 42.5822 92.1837 40.6027 88.3118 41.7072C88.3118 41.7072 91.234 42.1041 92.2132 45.838C93.1928 49.5728 94.6652 51.4943 96.5401 53.7526C98.4148 56.0112 101.311 59.299 99.9703 63.1435C99.9703 63.1435 106.012 60.844 103.85 54.2314Z" fill="#FFEABA"/>
<path d="M91.4682 46.0493C90.7716 43.4081 88.3619 41.2395 86.1195 43.2992C83.8774 45.3592 82.1831 49.4206 77.8958 54.7339C73.6084 60.0473 70.0047 57.1949 70.0047 57.1949C76.406 72.8481 94.0179 51.8783 94.0179 51.8783C94.0179 51.8783 92.1648 48.6905 91.4682 46.0493Z" fill="#FFEABA"/>
<path d="M78.223 53.1185C78.223 53.1185 79.0448 48.6671 80.6784 42.8402C82.3115 37.0139 86.326 32.8422 86.326 32.8422C86.326 32.8422 82.1995 30.4073 81.2691 27.2278C81.2691 27.2278 80.8059 25.125 74.0463 30.9346C67.2865 36.744 63.9321 34.6149 63.9321 34.6149C63.9321 34.6149 65.6962 39.865 70.187 39.0064C74.6774 38.1477 77.3417 35.5845 79.4279 34.9362C79.4279 34.9362 66.1348 49.1443 69.1576 54.9361C69.1576 54.9361 72.4978 61.1667 78.223 53.1185Z" fill="#FFEABA"/>
<path d="M69.726 58.8841C69.726 58.8841 71.169 62.6013 75.3688 63.8764L73.4704 66.1388L67.6631 61.2659L69.726 58.8841Z" fill="#FFEABA"/>
<path d="M86.3389 30.1813L87.0528 29.4014C87.1256 29.0545 87.2817 28.7202 87.5251 28.4302L87.8357 28.06C88.1321 27.7068 88.5157 27.4696 88.9289 27.3517L89.2912 26.9559C89.3289 26.5143 89.4973 26.0797 89.8032 25.7152L90.1139 25.3449C90.4718 24.9184 90.9566 24.6604 91.4674 24.5783L91.7195 24.3029C91.7623 23.8782 91.9263 23.4615 92.2208 23.1106L92.5251 22.7479C92.8715 22.3351 93.3382 22.0818 93.8316 21.9954L94.2065 21.5858C94.2735 21.2347 94.4275 20.8953 94.6732 20.6025L94.9683 20.2508C95.1817 19.9964 95.4417 19.8037 95.7254 19.6742C95.0388 17.2293 96.3469 15.8921 96.985 13.4601C97.6392 10.9651 96.4987 7.91057 96.4987 7.91057C96.4987 7.91057 95.7653 10.8119 91.1792 17.8707C87.4289 23.6438 86.2195 29.2083 85.9967 30.3755C86.1058 30.3001 86.2202 30.2353 86.3389 30.1813Z" fill="#FFEABA"/>
<path d="M107.318 33.8095C107.26 34.1497 107.116 34.4796 106.878 34.7626L106.574 35.1251C106.345 35.3979 106.059 35.5942 105.748 35.7119L105.211 36.4148C105.183 36.8318 105.027 37.2438 104.739 37.5878L104.428 37.958C104.192 38.2395 103.895 38.4403 103.573 38.559L102.882 39.4641C102.811 39.7635 102.672 40.0514 102.461 40.3027L102.15 40.6732C101.994 40.8591 101.811 41.01 101.613 41.1254L100.759 42.2431C110.343 33.462 114.349 32.9065 114.349 32.9065C110.854 31.3107 108.291 32.9819 107.318 33.8095Z" fill="#FFEABA"/>
<path d="M152.645 25.9776C152.188 26.5229 151.375 26.5935 150.83 26.1362L149.719 25.2042C149.174 24.7467 149.102 23.9339 149.56 23.3887L149.871 23.0182C150.328 22.4733 151.141 22.4019 151.687 22.8594L152.797 23.7914C153.342 24.2487 153.413 25.0622 152.956 25.6072L152.645 25.9776Z" fill="#FFEABA"/>
<path d="M156.158 28.9243C155.7 29.4695 154.888 29.5404 154.342 29.0829L153.232 28.1508C152.686 27.6931 152.615 26.8806 153.072 26.3353L153.383 25.9649C153.841 25.4199 154.654 25.3483 155.199 25.806L156.31 26.7381C156.855 27.1956 156.926 28.0088 156.469 28.5538L156.158 28.9243Z" fill="#FFEABA"/>
<path d="M159.677 31.878C159.219 32.4233 158.407 32.4941 157.861 32.0366L156.751 31.1048C156.206 30.6473 156.134 29.8344 156.592 29.2891L156.902 28.9186C157.36 28.3737 158.173 28.3025 158.718 28.76L159.829 29.6919C160.374 30.1494 160.445 30.9626 159.988 31.5076L159.677 31.878Z" fill="#FFEABA"/>
<path d="M163.162 34.802C162.704 35.3473 161.892 35.4184 161.347 34.9609L160.236 34.0288C159.691 33.5713 159.619 32.7584 160.076 32.2131L160.387 31.8427C160.845 31.2977 161.658 31.2265 162.203 31.6841L163.314 32.6161C163.859 33.0736 163.93 33.8866 163.473 34.4316L163.162 34.802Z" fill="#FFEABA"/>
<path d="M153.88 31.6418C153.422 32.187 152.609 32.2582 152.064 31.8007L150.953 30.8686C150.408 30.4109 150.337 29.5981 150.794 29.0529L151.105 28.6827C151.562 28.1375 152.375 28.0658 152.921 28.5236L154.032 29.4556C154.577 29.9131 154.648 30.7264 154.19 31.2716L153.88 31.6418Z" fill="#FFEABA"/>
<path d="M157.4 34.5914C156.943 35.1367 156.13 35.2078 155.584 34.7503L154.474 33.8185C153.929 33.361 153.857 32.5478 154.315 32.0025L154.625 31.6323C155.083 31.0871 155.896 31.0159 156.442 31.4734L157.552 32.4052C158.097 32.8628 158.168 33.676 157.711 34.2213L157.4 34.5914Z" fill="#FFEABA"/>
<path d="M151.551 34.4206C151.093 34.9661 150.28 35.0372 149.735 34.5797L148.624 33.6477C148.079 33.1899 148.008 32.3771 148.465 31.8316L148.776 31.4617C149.234 30.9162 150.046 30.8449 150.592 31.3026L151.703 32.2346C152.248 32.6922 152.319 33.5052 151.861 34.0507L151.551 34.4206Z" fill="#FFEABA"/>
<path d="M161.955 15.637C161.543 16.1281 160.811 16.1921 160.321 15.7805L159.321 14.9419C158.83 14.5298 158.766 13.798 159.178 13.3069L159.458 12.974C159.869 12.4831 160.601 12.4193 161.092 12.8314L162.092 13.67C162.582 14.0817 162.646 14.8132 162.234 15.3041L161.955 15.637Z" fill="#FFEABA"/>
<path d="M165.117 18.2881C164.705 18.7791 163.973 18.8431 163.483 18.4315L162.483 17.5927C161.992 17.1806 161.928 16.449 162.34 15.9579L162.619 15.6249C163.031 15.1341 163.763 15.0701 164.254 15.4822L165.254 16.3211C165.744 16.7327 165.808 17.4643 165.396 17.9551L165.117 18.2881Z" fill="#FFEABA"/>
<path d="M168.285 20.9481C167.873 21.4392 167.141 21.503 166.65 21.0916L165.651 20.2528C165.16 19.8409 165.096 19.1093 165.508 18.6182L165.787 18.2852C166.199 17.7944 166.931 17.7304 167.422 18.1423L168.421 18.9812C168.912 19.3925 168.976 20.1243 168.564 20.6152L168.285 20.9481Z" fill="#FFEABA"/>
<path d="M171.423 23.58C171.01 24.0711 170.279 24.1354 169.788 23.7233L168.789 22.8847C168.298 22.4729 168.234 21.7413 168.646 21.2502L168.925 20.9172C169.337 20.4264 170.069 20.3624 170.56 20.7742L171.559 21.6128C172.05 22.0249 172.114 22.7562 171.702 23.2471L171.423 23.58Z" fill="#FFEABA"/>
<path d="M164.163 13.3385C163.772 13.8048 163.077 13.8658 162.611 13.4743L161.661 12.6778C161.195 12.2866 161.134 11.5911 161.525 11.1248L161.791 10.8084C162.182 10.3419 162.877 10.2818 163.343 10.6731L164.293 11.4696C164.759 11.8611 164.82 12.5556 164.429 13.0222L164.163 13.3385Z" fill="#FFEABA"/>
<path d="M167.169 15.8592C166.777 16.3255 166.083 16.3868 165.616 15.9955L164.667 15.1985C164.2 14.8073 164.139 14.112 164.531 13.6457L164.796 13.3294C165.188 12.8628 165.882 12.8025 166.349 13.1938L167.299 13.9908C167.765 14.3821 167.826 15.0763 167.434 15.5429L167.169 15.8592Z" fill="#FFEABA"/>
<path d="M170.181 18.3876C169.79 18.8539 169.094 18.9147 168.628 18.5237L167.679 17.7267C167.212 17.3355 167.151 16.6402 167.543 16.1739L167.808 15.8576C168.2 15.391 168.894 15.3307 169.361 15.722L170.31 16.519C170.776 16.91 170.838 17.6047 170.446 18.0713L170.181 18.3876Z" fill="#FFEABA"/>
<path d="M173.158 20.8849C172.767 21.3512 172.072 21.412 171.605 21.0208L170.656 20.224C170.189 19.8325 170.129 19.1377 170.52 18.6714L170.786 18.3551C171.177 17.8885 171.871 17.8278 172.338 18.2193L173.287 19.016C173.754 19.4073 173.815 20.102 173.424 20.5686L173.158 20.8849Z" fill="#FFEABA"/>
<path d="M166.296 11.1162C165.924 11.5594 165.264 11.6174 164.821 11.2458L163.918 10.4883C163.476 10.1171 163.418 9.45662 163.79 9.0134L164.042 8.71286C164.414 8.26997 165.074 8.21239 165.517 8.58355L166.419 9.34104C166.862 9.71266 166.92 10.3727 166.548 10.8156L166.296 11.1162Z" fill="#FFEABA"/>
<path d="M169.154 13.5152C168.782 13.9584 168.122 14.0161 167.679 13.6445L166.777 12.8875C166.334 12.5159 166.276 11.8556 166.648 11.4124L166.9 11.1119C167.272 10.669 167.932 10.6112 168.375 10.9829L169.277 11.7399C169.72 12.1115 169.778 12.7718 169.406 13.2147L169.154 13.5152Z" fill="#FFEABA"/>
<path d="M172.013 15.9151C171.641 16.3582 170.981 16.4158 170.538 16.0444L169.636 15.2874C169.193 14.9157 169.135 14.2555 169.507 13.8123L169.759 13.5117C170.131 13.0688 170.791 13.0111 171.234 13.3827L172.136 14.1397C172.579 14.5111 172.637 15.1716 172.265 15.6145L172.013 15.9151Z" fill="#FFEABA"/>
<path d="M174.843 18.2897C174.471 18.7329 173.81 18.7902 173.367 18.4186L172.466 17.6621C172.022 17.29 171.965 16.6301 172.337 16.187L172.589 15.8864C172.96 15.4435 173.62 15.3853 174.064 15.7574L174.966 16.5139C175.408 16.8855 175.466 17.5463 175.095 17.9892L174.843 18.2897Z" fill="#FFEABA"/>
<path d="M168.436 9.16937C168.101 9.56913 167.506 9.62171 167.106 9.28602L166.291 8.60258C165.892 8.26739 165.839 7.67143 166.175 7.27167L166.402 7.00017C166.738 6.60041 167.334 6.5485 167.733 6.88369L168.548 7.56713C168.948 7.90278 168.999 8.49811 168.664 8.89787L168.436 9.16937Z" fill="#FFEABA"/>
<path d="M171.012 11.3387C170.676 11.7385 170.08 11.7903 169.681 11.4551L168.866 10.7719C168.467 10.4365 168.414 9.84051 168.75 9.44075L168.978 9.16925C169.313 8.76949 169.909 8.71762 170.309 9.05302L171.123 9.73621C171.522 10.0714 171.575 10.6674 171.239 11.0672L171.012 11.3387Z" fill="#FFEABA"/>
<path d="M173.592 13.4962C173.256 13.896 172.66 13.9479 172.261 13.6132L171.447 12.9297C171.047 12.5943 170.995 11.9983 171.33 11.5985L171.558 11.327C171.893 10.9273 172.489 10.8754 172.889 11.2108L173.704 11.8943C174.103 12.229 174.155 12.825 173.819 13.2248L173.592 13.4962Z" fill="#FFEABA"/>
<path d="M176.144 15.6425C175.809 16.0423 175.213 16.0944 174.813 15.7587L173.999 15.0758C173.599 14.7401 173.547 14.1449 173.883 13.7451L174.11 13.4736C174.446 13.0738 175.041 13.0212 175.441 13.3569L176.255 14.0398C176.655 14.3755 176.707 14.9713 176.372 15.371L176.144 15.6425Z" fill="#FFEABA"/>
<path d="M170.384 7.38625C170.081 7.7471 169.544 7.7944 169.183 7.49157L168.448 6.87486C168.088 6.57233 168.041 6.03465 168.343 5.67376L168.549 5.42876C168.852 5.06816 169.389 5.02113 169.75 5.3237L170.485 5.94041C170.846 6.2432 170.892 6.78066 170.59 7.14121L170.384 7.38625Z" fill="#FFEABA"/>
<path d="M172.714 9.34173C172.411 9.70257 171.873 9.74962 171.513 9.44708L170.778 8.83037C170.417 8.52758 170.369 7.98966 170.672 7.62881L170.878 7.38381C171.18 7.02321 171.718 6.97643 172.079 7.27922L172.814 7.89592C173.175 8.1985 173.222 8.73613 172.919 9.09673L172.714 9.34173Z" fill="#FFEABA"/>
<path d="M175.035 11.2872C174.733 11.648 174.195 11.6948 173.834 11.3925L173.099 10.7758C172.739 10.4732 172.692 9.93559 172.994 9.5747L173.2 9.3297C173.503 8.9691 174.04 8.92207 174.401 9.22464L175.136 9.84135C175.496 10.1437 175.543 10.6816 175.241 11.0422L175.035 11.2872Z" fill="#FFEABA"/>
<path d="M177.344 13.2252C177.041 13.5861 176.504 13.6331 176.143 13.3306L175.408 12.7138C175.047 12.4111 175 11.8736 175.303 11.5128L175.509 11.2677C175.811 10.9072 176.349 10.8599 176.71 11.1627L177.445 11.7794C177.805 12.082 177.852 12.6196 177.55 12.9802L177.344 13.2252Z" fill="#FFEABA"/>
<path d="M172.178 5.75283C171.905 6.07762 171.423 6.12011 171.097 5.84711L170.436 5.29214C170.111 5.01982 170.069 4.53641 170.341 4.21162L170.526 3.99116C170.799 3.66667 171.283 3.62406 171.607 3.89637L172.268 4.45134C172.594 4.72433 172.635 5.20788 172.363 5.53236L172.178 5.75283Z" fill="#FFEABA"/>
<path d="M174.269 7.50466C173.997 7.82945 173.513 7.871 173.188 7.59873L172.527 7.04401C172.202 6.77123 172.159 6.28781 172.432 5.96303L172.617 5.74257C172.889 5.41808 173.373 5.37546 173.698 5.64824L174.359 6.20297C174.684 6.47528 174.726 6.95975 174.454 7.28424L174.269 7.50466Z" fill="#FFEABA"/>
<path d="M176.365 9.26552C176.093 9.59031 175.609 9.63183 175.284 9.35934L174.623 8.80462C174.298 8.53234 174.255 8.04868 174.528 7.7239L174.713 7.50343C174.985 7.17894 175.469 7.13658 175.794 7.40885L176.455 7.96358C176.78 8.23611 176.822 8.72061 176.55 9.04506L176.365 9.26552Z" fill="#FFEABA"/>
<path d="M174.464 4.68938C174.191 5.01417 173.708 5.05721 173.383 4.78451L172.721 4.22928C172.397 3.95722 172.354 3.47296 172.627 3.14818L172.812 2.92801C173.084 2.60323 173.568 2.56086 173.893 2.83292L174.554 3.38815C174.879 3.66089 174.921 4.14443 174.648 4.46921L174.464 4.68938Z" fill="#FFEABA"/>
<path d="M176.56 6.45058C176.288 6.77536 175.804 6.81773 175.479 6.54567L174.818 5.99069C174.493 5.71792 174.451 5.23391 174.723 4.90913L174.908 4.68896C175.181 4.36417 175.665 4.3216 175.99 4.59433L176.651 5.14931C176.975 5.42137 177.018 5.90563 176.745 6.23041L176.56 6.45058Z" fill="#FFEABA"/>
<path d="M178.656 8.20648C178.384 8.53127 177.899 8.57364 177.575 8.30132L176.913 7.7461C176.589 7.47407 176.547 6.98981 176.819 6.66503L177.004 6.44486C177.277 6.12008 177.761 6.07771 178.085 6.34974L178.747 6.90496C179.071 7.17728 179.114 7.66153 178.841 7.98632L178.656 8.20648Z" fill="#FFEABA"/>
<path d="M177.102 3.98202C176.844 4.29047 176.384 4.3307 176.076 4.07213L175.447 3.5446C175.138 3.28556 175.099 2.82617 175.357 2.51772L175.533 2.30852C175.792 2.00011 176.251 1.95912 176.56 2.21812L177.189 2.74565C177.497 3.00422 177.537 3.46441 177.278 3.77278L177.102 3.98202Z" fill="#FFEABA"/>
<path d="M179.088 5.64748C178.829 5.95594 178.369 5.99613 178.061 5.7376L177.433 5.21031C177.125 4.95174 177.084 4.49164 177.343 4.18318L177.519 3.97399C177.777 3.66558 178.238 3.6253 178.546 3.88387L179.174 4.41115C179.482 4.66973 179.522 5.12988 179.264 5.43829L179.088 5.64748Z" fill="#FFEABA"/>
<path d="M178.441 11.0072C178.168 11.3319 177.684 11.3735 177.36 11.1014L176.699 10.5465C176.374 10.2737 176.332 9.79074 176.604 9.46595L176.789 9.24549C177.061 8.921 177.545 8.87792 177.87 9.15066L178.531 9.70564C178.855 9.97766 178.898 10.4622 178.626 10.7867L178.441 11.0072Z" fill="#FFEABA"/>
<path d="M159.639 18.015C159.204 18.5332 158.432 18.6007 157.914 18.1662L156.859 17.2805C156.341 16.8462 156.273 16.0737 156.708 15.5555L157.003 15.2039C157.437 14.686 158.21 14.6184 158.728 15.0527L159.783 15.9384C160.301 16.373 160.368 17.1455 159.934 17.6635L159.639 18.015Z" fill="#FFEABA"/>
<path d="M162.977 20.8233C162.542 21.3415 161.769 21.4085 161.252 20.974L160.197 20.0888C159.679 19.6542 159.611 18.8819 160.046 18.3638L160.341 18.0122C160.775 17.4943 161.548 17.4264 162.066 17.861L163.121 18.7462C163.639 19.1807 163.706 19.9538 163.272 20.4717L162.977 20.8233Z" fill="#FFEABA"/>
<path d="M166.32 23.6219C165.885 24.1401 165.113 24.2076 164.595 23.7728L163.54 22.8874C163.022 22.4529 162.954 21.6806 163.389 21.1624L163.684 20.8108C164.118 20.2929 164.891 20.2251 165.409 20.6596L166.464 21.5451C166.982 21.9798 167.049 22.7524 166.615 23.2703L166.32 23.6219Z" fill="#FFEABA"/>
<path d="M169.632 26.4055C169.197 26.9236 168.425 26.9912 167.907 26.5563L166.851 25.6709C166.334 25.2364 166.266 24.4641 166.7 23.9459L166.995 23.5943C167.43 23.0764 168.203 23.0086 168.721 23.4432L169.776 24.3286C170.294 24.7634 170.361 25.5359 169.927 26.0538L169.632 26.4055Z" fill="#FFEABA"/>
<path d="M157.28 20.6044C156.831 21.139 156.034 21.2086 155.5 20.7604L154.412 19.847C153.877 19.3987 153.808 18.6018 154.256 18.0673L154.56 17.7047C155.009 17.1703 155.806 17.1008 156.34 17.5491L157.428 18.4625C157.963 18.9107 158.033 19.7074 157.584 20.2419L157.28 20.6044Z" fill="#FFEABA"/>
<path d="M160.722 23.4993C160.274 24.0339 159.476 24.1033 158.942 23.6553L157.854 22.7416C157.319 22.2934 157.25 21.4967 157.699 20.9622L158.003 20.5996C158.451 20.0651 159.248 19.9955 159.782 20.4437L160.871 21.3574C161.405 21.8054 161.475 22.6023 161.026 23.1368L160.722 23.4993Z" fill="#FFEABA"/>
<path d="M164.169 26.388C163.721 26.9226 162.923 26.9918 162.389 26.5437L161.3 25.6301C160.766 25.1819 160.697 24.3852 161.145 23.8507L161.45 23.4881C161.898 22.9536 162.694 22.884 163.229 23.3322L164.317 24.2458C164.851 24.6939 164.922 25.491 164.473 26.0255L164.169 26.388Z" fill="#FFEABA"/>
<path d="M167.591 29.2565C167.142 29.791 166.345 29.8605 165.811 29.4121L164.723 28.499C164.188 28.0503 164.119 27.2538 164.567 26.7193L164.871 26.3568C165.32 25.8223 166.116 25.7524 166.651 26.2011L167.739 27.1142C168.273 27.5625 168.344 28.3594 167.895 28.8939L167.591 29.2565Z" fill="#FFEABA"/>
<path d="M154.922 23.2603C154.464 23.8055 153.651 23.8761 153.106 23.4189L151.995 22.4868C151.45 22.0293 151.379 21.2166 151.836 20.6713L152.147 20.3012C152.605 19.7557 153.418 19.6846 153.963 20.1421L155.074 21.0741C155.619 21.5314 155.69 22.3446 155.232 22.8901L154.922 23.2603Z" fill="#FFEABA"/>
<path d="M158.441 26.2093C157.983 26.7546 157.17 26.8255 156.625 26.3679L155.514 25.4359C154.969 24.9781 154.898 24.1657 155.355 23.6204L155.666 23.2503C156.124 22.7048 156.936 22.6334 157.482 23.0911L158.593 24.0232C159.138 24.4807 159.209 25.2937 158.751 25.8392L158.441 26.2093Z" fill="#FFEABA"/>
<path d="M161.954 29.1646C161.496 29.7098 160.684 29.7807 160.138 29.3232L159.028 28.3914C158.483 27.9338 158.411 27.1209 158.868 26.5757L159.179 26.2055C159.637 25.66 160.45 25.5891 160.995 26.0466L162.106 26.9784C162.651 27.4359 162.722 28.2489 162.264 28.7944L161.954 29.1646Z" fill="#FFEABA"/>
<path d="M165.441 32.0885C164.983 32.6337 164.171 32.7048 163.625 32.2473L162.515 31.3153C161.969 30.8577 161.898 30.0448 162.355 29.4995L162.666 29.1294C163.124 28.5839 163.937 28.513 164.482 28.9705L165.593 29.9025C166.138 30.36 166.209 31.1728 165.751 31.7183L165.441 32.0885Z" fill="#FFEABA"/>
<path d="M157.959 36.7425L158.727 37.3871C159.413 37.3724 160.221 37.2912 161.203 37.1349C161.652 36.5897 161.579 35.7842 161.037 35.3295L159.927 34.3974C159.381 33.9399 158.568 34.0111 158.11 34.5563L157.8 34.9265C157.342 35.4718 157.414 36.285 157.959 36.7425Z" fill="#FFEABA"/>
<path d="M157.82 37.3633L157.595 37.1747C157.196 36.8395 156.653 36.7892 156.211 37.0001C156.676 37.1879 157.191 37.3121 157.82 37.3633Z" fill="#FFEABA"/>
<path d="M154.522 35.9835C154.882 36.2527 155.219 36.4893 155.569 36.6881C155.794 36.1769 155.668 35.5587 155.219 35.1817L154.108 34.2499C153.563 33.7923 152.75 33.8633 152.292 34.4088L151.981 34.7787C151.814 34.9778 151.719 35.2127 151.69 35.4529C153.122 35.3699 154.042 35.6252 154.522 35.9835Z" fill="#FFEABA"/>
<path d="M146.348 36.3619L147.342 37.1957C147.998 36.4919 148.577 36.0091 149.001 35.902C149.302 35.8258 149.59 35.7605 149.866 35.7047C149.814 35.4195 149.666 35.1501 149.427 34.9492L148.316 34.0171C147.77 33.5594 146.958 33.6304 146.5 34.1759L146.189 34.5464C145.732 35.0914 145.803 35.9041 146.348 36.3619Z" fill="#FFEABA"/>
<path d="M143.981 39.1758L145.036 40.0618C145.678 39.1804 146.325 38.3431 146.926 37.6518L145.948 36.8313C145.402 36.3736 144.59 36.4447 144.132 36.9902L143.822 37.3601C143.364 37.9056 143.435 38.7181 143.981 39.1758Z" fill="#FFEABA"/>
<path d="M141.713 41.8995L142.813 42.8226C142.88 42.8789 142.951 42.927 143.025 42.9674C143.56 42.1618 144.15 41.2955 144.753 40.454L143.67 39.5455C143.307 39.2412 142.827 39.1722 142.411 39.3194C142.17 40.1269 141.936 40.9852 141.713 41.8995Z" fill="#FFEABA"/>
<path d="M140.908 45.7108C141.004 45.7544 141.104 45.7848 141.206 45.8024C141.55 45.2497 142.073 44.4206 142.695 43.4716C142.642 43.4028 142.581 43.3384 142.512 43.2802L141.573 42.4923C141.338 43.4996 141.115 44.5716 140.908 45.7108Z" fill="#FFEABA"/>
<path d="M143.076 37.2679C143.192 37.197 143.299 37.1073 143.391 36.9975L143.702 36.6276C144.045 36.218 144.091 35.6578 143.861 35.2105C143.597 35.846 143.334 36.5317 143.076 37.2679Z" fill="#FFEABA"/>
<path d="M144.174 34.4927C144.699 34.7686 145.363 34.6532 145.76 34.1805L146.07 33.8101C146.528 33.2646 146.456 32.4517 145.912 31.9944L145.581 31.7173C145.124 32.5025 144.648 33.4218 144.174 34.4927Z" fill="#FFEABA"/>
<path d="M145.827 31.3016L146.217 31.6286C146.762 32.0858 147.575 32.0149 148.033 31.4694L148.343 31.0995C148.801 30.554 148.729 29.7408 148.184 29.2835L147.633 28.8209C147.118 29.4011 146.496 30.2083 145.827 31.3016Z" fill="#FFEABA"/>
<path d="M149.039 27.523C149.039 27.523 148.645 27.7645 148.018 28.4063L148.547 28.8504C149.092 29.3077 149.905 29.2368 150.363 28.6916L150.673 28.3214C151.131 27.7761 151.06 26.9627 150.515 26.5054L149.404 25.5734C148.859 25.1158 148.046 25.1872 147.588 25.7325L147.277 26.1026C147.265 26.1175 147.254 26.1333 147.243 26.1485C147.751 26.5568 148.356 27.0263 149.039 27.523Z" fill="#FFEABA"/>
<path d="M165.439 48.843C163.277 42.2301 164.049 42.5351 163.919 41.0556C163.79 39.5763 162.839 37.2369 158.719 38.0632C158.612 38.0846 158.51 38.1008 158.409 38.1159C158.409 38.1182 158.409 38.1205 158.409 38.1229C157.543 38.124 156.855 38.0425 156.313 37.9205C154.483 37.1938 153.773 35.2143 149.901 36.3188C149.901 36.3188 152.823 36.7156 153.803 40.4496C154.782 44.1843 156.255 46.1059 158.129 48.3642C160.004 50.6228 162.9 53.9105 161.56 57.755C161.56 57.755 167.602 55.4556 165.439 48.843Z" fill="#FFEABA"/>
<path d="M153.058 40.6609C152.361 38.0197 149.951 35.851 147.709 37.9108C145.467 39.9708 143.772 44.0322 139.485 49.3455C135.198 54.6588 131.594 51.8065 131.594 51.8065C137.995 67.4597 155.607 46.4899 155.607 46.4899C155.607 46.4899 153.754 43.302 153.058 40.6609Z" fill="#FFEABA"/>
<path d="M139.812 47.7301C139.812 47.7301 140.634 43.2787 142.268 37.4518C143.901 31.6255 147.915 27.4538 147.915 27.4538C147.915 27.4538 143.789 25.0189 142.858 21.8394C142.858 21.8394 142.395 19.7366 135.636 25.5462C128.876 31.3556 125.521 29.2264 125.521 29.2264C125.521 29.2264 127.286 34.4766 131.776 33.6179C136.267 32.7593 138.931 30.1961 141.017 29.5478C141.017 29.5478 127.724 43.7559 130.747 49.5477C130.747 49.5477 134.087 55.7783 139.812 47.7301Z" fill="#FFEABA"/>
<path d="M131.315 53.4957C131.315 53.4957 132.758 57.2129 136.958 58.488L135.06 60.7504L129.252 55.8775L131.315 53.4957Z" fill="#FFEABA"/>
<path d="M147.928 24.7929L148.642 24.0129C148.715 23.6661 148.871 23.3318 149.114 23.0418L149.425 22.6716C149.721 22.3184 150.105 22.0812 150.518 21.9632L150.881 21.5674C150.918 21.1259 151.087 20.6913 151.393 20.3268L151.703 19.9565C152.061 19.53 152.546 19.272 153.057 19.1899L153.309 18.9145C153.352 18.4898 153.516 18.0731 153.81 17.7222L154.114 17.3595C154.461 16.9467 154.928 16.6934 155.421 16.607L155.796 16.1974C155.863 15.8462 156.017 15.5069 156.263 15.2141L156.558 14.8624C156.771 14.608 157.031 14.4153 157.315 14.2858C156.628 11.8408 157.936 10.5037 158.574 8.07167C159.229 5.57668 158.088 2.52214 158.088 2.52214C158.088 2.52214 157.355 5.42348 152.769 12.4823C149.018 18.2553 147.809 23.8199 147.586 24.9871C147.695 24.9117 147.81 24.8468 147.928 24.7929Z" fill="#FFEABA"/>
<path d="M168.908 28.4211C168.849 28.7613 168.705 29.0912 168.468 29.3741L168.164 29.7367C167.935 30.0094 167.648 30.2057 167.337 30.3235L166.8 31.0264C166.772 31.4434 166.617 31.8554 166.328 32.1994L166.018 32.5696C165.781 32.851 165.485 33.0519 165.162 33.1705L164.471 34.0757C164.4 34.3751 164.261 34.6629 164.05 34.9143L163.739 35.2848C163.583 35.4707 163.401 35.6215 163.202 35.7369L162.348 36.8546C171.932 28.0736 175.938 27.518 175.938 27.518C172.444 25.9223 169.88 27.5934 168.908 28.4211Z" fill="#FFEABA"/>
</svg>
