<svg width="32" height="32" viewBox="0 0 32 32" fill="none" xmlns="http://www.w3.org/2000/svg">
<path d="M15.9975 11.0004C15.9976 9.85156 16.3932 8.73783 17.1179 7.84641C17.8425 6.95498 18.852 6.34023 19.9766 6.10551C21.1011 5.87078 22.2722 6.0304 23.2929 6.55752C24.3137 7.08464 25.1218 7.94712 25.5814 8.99996L29.9975 9L25.9647 13.0328C25.7021 17.089 23.9056 20.8933 20.9401 23.6731C17.9745 26.4529 14.0622 27.9999 9.9975 28C5.9975 28 4.9975 26.5 4.9975 26.5C4.9975 26.5 8.9975 25 10.9975 22C10.9975 22 2.9975 18 4.9975 7C4.9975 7 9.9975 12 15.9958 13L15.9975 11.0004Z" stroke="#7A2714" stroke-width="3" stroke-linecap="round" stroke-linejoin="round"/>
</svg>
